G04*
G04 #@! TF.GenerationSoftware,Altium Limited,Altium Designer,25.8.1 (18)*
G04*
G04 Layer_Physical_Order=2*
G04 Layer_Color=16711680*
%FSLAX44Y44*%
%MOMM*%
G71*
G04*
G04 #@! TF.SameCoordinates,1115CEBF-BE97-4310-87F7-018F2C0EDB41*
G04*
G04*
G04 #@! TF.FilePolarity,Positive*
G04*
G01*
G75*
%ADD13C,0.2540*%
%ADD79C,0.2030*%
%ADD81C,1.0000*%
%ADD82C,2.0000*%
%ADD83C,0.4000*%
%ADD85C,1.6500*%
%ADD86C,1.5000*%
%ADD87R,1.5000X1.5000*%
%ADD88C,1.5748*%
%ADD89R,1.5748X1.5748*%
%ADD90R,1.5000X1.5000*%
%ADD91C,1.9500*%
%ADD92C,2.1000*%
%ADD93R,1.9500X1.9500*%
%ADD94R,2.1000X2.1000*%
%ADD96C,0.4570*%
%ADD97C,0.4572*%
%ADD98C,5.0000*%
%ADD99C,0.2032*%
%ADD100O,2.0000X1.2000*%
G36*
X1558290Y1287715D02*
Y210820D01*
X419668D01*
Y213360D01*
X419668Y553720D01*
X419431Y554909D01*
X418758Y555918D01*
X392430Y582245D01*
Y1287522D01*
X393845Y1288935D01*
X1558290Y1287715D01*
D02*
G37*
%LPC*%
G36*
X1510927Y1274680D02*
X1510030D01*
Y1248410D01*
X1536300D01*
Y1249307D01*
X1535622Y1253589D01*
X1534282Y1257712D01*
X1532314Y1261574D01*
X1529766Y1265081D01*
X1526701Y1268146D01*
X1523194Y1270694D01*
X1519332Y1272662D01*
X1515209Y1274002D01*
X1510927Y1274680D01*
D02*
G37*
G36*
X1507490D02*
X1506593D01*
X1502311Y1274002D01*
X1498188Y1272662D01*
X1494326Y1270694D01*
X1490819Y1268146D01*
X1487754Y1265081D01*
X1485206Y1261574D01*
X1483238Y1257712D01*
X1481898Y1253589D01*
X1481220Y1249307D01*
Y1248410D01*
X1507490D01*
Y1274680D01*
D02*
G37*
G36*
X678180Y1249298D02*
Y1245870D01*
X681608D01*
X681001Y1247334D01*
X679644Y1248691D01*
X678180Y1249298D01*
D02*
G37*
G36*
X675640D02*
X674176Y1248691D01*
X672819Y1247334D01*
X672212Y1245870D01*
X675640D01*
Y1249298D01*
D02*
G37*
G36*
X681608Y1243330D02*
X678180D01*
Y1239902D01*
X679644Y1240509D01*
X681001Y1241866D01*
X681608Y1243330D01*
D02*
G37*
G36*
X675640D02*
X672212D01*
X672819Y1241866D01*
X674176Y1240509D01*
X675640Y1239902D01*
Y1243330D01*
D02*
G37*
G36*
X1536300Y1245870D02*
X1510030D01*
Y1219600D01*
X1510927D01*
X1515209Y1220278D01*
X1519332Y1221618D01*
X1523194Y1223586D01*
X1526701Y1226134D01*
X1529766Y1229199D01*
X1532314Y1232706D01*
X1534282Y1236568D01*
X1535622Y1240691D01*
X1536300Y1244973D01*
Y1245870D01*
D02*
G37*
G36*
X1507490D02*
X1481220D01*
Y1244973D01*
X1481898Y1240691D01*
X1483238Y1236568D01*
X1485206Y1232706D01*
X1487754Y1229199D01*
X1490819Y1226134D01*
X1494326Y1223586D01*
X1498188Y1221618D01*
X1502311Y1220278D01*
X1506593Y1219600D01*
X1507490D01*
Y1245870D01*
D02*
G37*
G36*
X647700Y1212468D02*
Y1209040D01*
X651128D01*
X650521Y1210504D01*
X649164Y1211861D01*
X647700Y1212468D01*
D02*
G37*
G36*
X645160D02*
X643696Y1211861D01*
X642339Y1210504D01*
X641732Y1209040D01*
X645160D01*
Y1212468D01*
D02*
G37*
G36*
X651128Y1206500D02*
X647700D01*
Y1203072D01*
X649164Y1203679D01*
X650521Y1205036D01*
X651128Y1206500D01*
D02*
G37*
G36*
X645160D02*
X641732D01*
X642339Y1205036D01*
X643696Y1203679D01*
X645160Y1203072D01*
Y1206500D01*
D02*
G37*
G36*
X1326270Y1204697D02*
Y1201270D01*
X1329697D01*
X1329091Y1202733D01*
X1327733Y1204090D01*
X1326270Y1204697D01*
D02*
G37*
G36*
X1323730D02*
X1322267Y1204090D01*
X1320910Y1202733D01*
X1320304Y1201270D01*
X1323730D01*
Y1204697D01*
D02*
G37*
G36*
X1226270D02*
Y1201270D01*
X1229697D01*
X1229090Y1202733D01*
X1227733Y1204090D01*
X1226270Y1204697D01*
D02*
G37*
G36*
X1223730D02*
X1222267Y1204090D01*
X1220910Y1202733D01*
X1220304Y1201270D01*
X1223730D01*
Y1204697D01*
D02*
G37*
G36*
X1076270D02*
Y1201270D01*
X1079697D01*
X1079090Y1202733D01*
X1077733Y1204090D01*
X1076270Y1204697D01*
D02*
G37*
G36*
X1073730D02*
X1072267Y1204090D01*
X1070910Y1202733D01*
X1070303Y1201270D01*
X1073730D01*
Y1204697D01*
D02*
G37*
G36*
X1026270D02*
Y1201270D01*
X1029697D01*
X1029090Y1202733D01*
X1027733Y1204090D01*
X1026270Y1204697D01*
D02*
G37*
G36*
X1023730D02*
X1022267Y1204090D01*
X1020910Y1202733D01*
X1020303Y1201270D01*
X1023730D01*
Y1204697D01*
D02*
G37*
G36*
X626270D02*
Y1201270D01*
X629697D01*
X629090Y1202733D01*
X627733Y1204090D01*
X626270Y1204697D01*
D02*
G37*
G36*
X623730D02*
X622267Y1204090D01*
X620910Y1202733D01*
X620303Y1201270D01*
X623730D01*
Y1204697D01*
D02*
G37*
G36*
X576270D02*
Y1201270D01*
X579697D01*
X579090Y1202733D01*
X577733Y1204090D01*
X576270Y1204697D01*
D02*
G37*
G36*
X573730D02*
X572267Y1204090D01*
X570910Y1202733D01*
X570303Y1201270D01*
X573730D01*
Y1204697D01*
D02*
G37*
G36*
X526270D02*
Y1201270D01*
X529697D01*
X529090Y1202733D01*
X527733Y1204090D01*
X526270Y1204697D01*
D02*
G37*
G36*
X523730D02*
X522267Y1204090D01*
X520910Y1202733D01*
X520303Y1201270D01*
X523730D01*
Y1204697D01*
D02*
G37*
G36*
X1329697Y1198730D02*
X1326270D01*
Y1195304D01*
X1327733Y1195910D01*
X1329091Y1197267D01*
X1329697Y1198730D01*
D02*
G37*
G36*
X1323730D02*
X1320304D01*
X1320910Y1197267D01*
X1322267Y1195910D01*
X1323730Y1195304D01*
Y1198730D01*
D02*
G37*
G36*
X1229697D02*
X1226270D01*
Y1195304D01*
X1227733Y1195910D01*
X1229090Y1197267D01*
X1229697Y1198730D01*
D02*
G37*
G36*
X1223730D02*
X1220304D01*
X1220910Y1197267D01*
X1222267Y1195910D01*
X1223730Y1195304D01*
Y1198730D01*
D02*
G37*
G36*
X1079697D02*
X1076270D01*
Y1195304D01*
X1077733Y1195910D01*
X1079090Y1197267D01*
X1079697Y1198730D01*
D02*
G37*
G36*
X1073730D02*
X1070303D01*
X1070910Y1197267D01*
X1072267Y1195910D01*
X1073730Y1195304D01*
Y1198730D01*
D02*
G37*
G36*
X1029697D02*
X1026270D01*
Y1195304D01*
X1027733Y1195910D01*
X1029090Y1197267D01*
X1029697Y1198730D01*
D02*
G37*
G36*
X1023730D02*
X1020303D01*
X1020910Y1197267D01*
X1022267Y1195910D01*
X1023730Y1195304D01*
Y1198730D01*
D02*
G37*
G36*
X629697D02*
X626270D01*
Y1195304D01*
X627733Y1195910D01*
X629090Y1197267D01*
X629697Y1198730D01*
D02*
G37*
G36*
X623730D02*
X620303D01*
X620910Y1197267D01*
X622267Y1195910D01*
X623730Y1195304D01*
Y1198730D01*
D02*
G37*
G36*
X579697D02*
X576270D01*
Y1195304D01*
X577733Y1195910D01*
X579090Y1197267D01*
X579697Y1198730D01*
D02*
G37*
G36*
X573730D02*
X570303D01*
X570910Y1197267D01*
X572267Y1195910D01*
X573730Y1195304D01*
Y1198730D01*
D02*
G37*
G36*
X529697D02*
X526270D01*
Y1195304D01*
X527733Y1195910D01*
X529090Y1197267D01*
X529697Y1198730D01*
D02*
G37*
G36*
X523730D02*
X520303D01*
X520910Y1197267D01*
X522267Y1195910D01*
X523730Y1195304D01*
Y1198730D01*
D02*
G37*
G36*
X1164590Y1190878D02*
X1163126Y1190271D01*
X1162722Y1189867D01*
X1161415Y1189117D01*
X1160108Y1189867D01*
X1159704Y1190271D01*
X1158240Y1190878D01*
Y1186180D01*
Y1181482D01*
X1159704Y1182089D01*
X1160108Y1182493D01*
X1161415Y1183243D01*
X1162722Y1182493D01*
X1163126Y1182089D01*
X1164590Y1181482D01*
Y1186180D01*
Y1190878D01*
D02*
G37*
G36*
X1167130D02*
Y1187450D01*
X1170558D01*
X1169951Y1188914D01*
X1168594Y1190271D01*
X1167130Y1190878D01*
D02*
G37*
G36*
X1155700D02*
X1154236Y1190271D01*
X1152879Y1188914D01*
X1152272Y1187450D01*
X1155700D01*
Y1190878D01*
D02*
G37*
G36*
X1420206Y1208618D02*
X1416974D01*
X1413851Y1207781D01*
X1411051Y1206165D01*
X1408765Y1203879D01*
X1407149Y1201079D01*
X1406312Y1197956D01*
Y1194724D01*
X1407149Y1191601D01*
X1408765Y1188801D01*
X1411051Y1186515D01*
X1413851Y1184899D01*
X1416974Y1184062D01*
X1420206D01*
X1423329Y1184899D01*
X1426129Y1186515D01*
X1428415Y1188801D01*
X1430031Y1191601D01*
X1430868Y1194724D01*
Y1197956D01*
X1430031Y1201079D01*
X1428415Y1203879D01*
X1426129Y1206165D01*
X1423329Y1207781D01*
X1420206Y1208618D01*
D02*
G37*
G36*
X1170558Y1184910D02*
X1167130D01*
Y1181482D01*
X1168594Y1182089D01*
X1169951Y1183446D01*
X1170558Y1184910D01*
D02*
G37*
G36*
X1155700D02*
X1152272D01*
X1152879Y1183446D01*
X1154236Y1182089D01*
X1155700Y1181482D01*
Y1184910D01*
D02*
G37*
G36*
X1034168Y1191648D02*
X1015612D01*
Y1173092D01*
X1034168D01*
Y1191648D01*
D02*
G37*
G36*
X1481668Y1195588D02*
X1457112D01*
Y1171032D01*
X1481668D01*
Y1195588D01*
D02*
G37*
G36*
X986328Y1239774D02*
X984712D01*
X983218Y1239155D01*
X982075Y1238012D01*
X981456Y1236518D01*
Y1234902D01*
X982075Y1233408D01*
X982672Y1232810D01*
Y1212760D01*
X956481Y1186568D01*
X941952D01*
Y1168012D01*
X960508D01*
Y1182541D01*
X987534Y1209566D01*
X987534Y1209566D01*
X988151Y1210490D01*
X988368Y1211580D01*
Y1232810D01*
X988965Y1233408D01*
X989584Y1234902D01*
Y1236518D01*
X988965Y1238012D01*
X987822Y1239155D01*
X986328Y1239774D01*
D02*
G37*
G36*
X955848D02*
X954232D01*
X952738Y1239155D01*
X951595Y1238012D01*
X950976Y1236518D01*
Y1235673D01*
X923816Y1208514D01*
X923199Y1207590D01*
X922982Y1206500D01*
X922982Y1206500D01*
Y1186132D01*
X922249Y1185936D01*
X920133Y1184714D01*
X918406Y1182987D01*
X917184Y1180871D01*
X916552Y1178512D01*
Y1176068D01*
X917184Y1173709D01*
X918406Y1171593D01*
X920133Y1169866D01*
X922249Y1168644D01*
X924609Y1168012D01*
X927051D01*
X929411Y1168644D01*
X931527Y1169866D01*
X933254Y1171593D01*
X934476Y1173709D01*
X935108Y1176068D01*
Y1178512D01*
X934476Y1180871D01*
X933254Y1182987D01*
X931527Y1184714D01*
X929411Y1185936D01*
X928678Y1186132D01*
Y1205320D01*
X955003Y1231646D01*
X955848D01*
X957342Y1232265D01*
X958485Y1233408D01*
X959104Y1234902D01*
Y1236518D01*
X958485Y1238012D01*
X957342Y1239155D01*
X955848Y1239774D01*
D02*
G37*
G36*
X1344006Y1183218D02*
X1340774D01*
X1337651Y1182381D01*
X1334851Y1180765D01*
X1332565Y1178479D01*
X1330949Y1175679D01*
X1330112Y1172556D01*
Y1169324D01*
X1330949Y1166201D01*
X1332565Y1163401D01*
X1334851Y1161115D01*
X1337651Y1159499D01*
X1340774Y1158662D01*
X1344006D01*
X1347129Y1159499D01*
X1349929Y1161115D01*
X1352215Y1163401D01*
X1353831Y1166201D01*
X1354668Y1169324D01*
Y1172556D01*
X1353831Y1175679D01*
X1352215Y1178479D01*
X1349929Y1180765D01*
X1347129Y1182381D01*
X1344006Y1183218D01*
D02*
G37*
G36*
X1026212Y1167010D02*
X1026160D01*
Y1158240D01*
X1034930D01*
Y1158292D01*
X1034246Y1160845D01*
X1032924Y1163135D01*
X1031055Y1165004D01*
X1028765Y1166326D01*
X1026212Y1167010D01*
D02*
G37*
G36*
X1023620D02*
X1023568D01*
X1021015Y1166326D01*
X1018725Y1165004D01*
X1016856Y1163135D01*
X1015534Y1160845D01*
X1014850Y1158292D01*
Y1158240D01*
X1023620D01*
Y1167010D01*
D02*
G37*
G36*
X820472Y1165740D02*
X820420D01*
Y1156970D01*
X829190D01*
Y1157022D01*
X828506Y1159575D01*
X827184Y1161865D01*
X825315Y1163734D01*
X823025Y1165056D01*
X820472Y1165740D01*
D02*
G37*
G36*
X817880D02*
X817828D01*
X815275Y1165056D01*
X812985Y1163734D01*
X811116Y1161865D01*
X809794Y1159575D01*
X809110Y1157022D01*
Y1156970D01*
X817880D01*
Y1165740D01*
D02*
G37*
G36*
X717602Y1161930D02*
X717550D01*
Y1153160D01*
X726320D01*
Y1153212D01*
X725636Y1155765D01*
X724314Y1158055D01*
X722445Y1159924D01*
X720155Y1161246D01*
X717602Y1161930D01*
D02*
G37*
G36*
X715010D02*
X714958D01*
X712405Y1161246D01*
X710115Y1159924D01*
X708246Y1158055D01*
X706924Y1155765D01*
X706240Y1153212D01*
Y1153160D01*
X715010D01*
Y1161930D01*
D02*
G37*
G36*
X1351270Y1154697D02*
Y1151270D01*
X1354697D01*
X1354091Y1152733D01*
X1352733Y1154090D01*
X1351270Y1154697D01*
D02*
G37*
G36*
X1348730D02*
X1347267Y1154090D01*
X1345910Y1152733D01*
X1345304Y1151270D01*
X1348730D01*
Y1154697D01*
D02*
G37*
G36*
X1301270D02*
Y1151270D01*
X1304697D01*
X1304091Y1152733D01*
X1302733Y1154090D01*
X1301270Y1154697D01*
D02*
G37*
G36*
X1298730D02*
X1297267Y1154090D01*
X1295910Y1152733D01*
X1295304Y1151270D01*
X1298730D01*
Y1154697D01*
D02*
G37*
G36*
X1251270D02*
Y1151270D01*
X1254697D01*
X1254090Y1152733D01*
X1252733Y1154090D01*
X1251270Y1154697D01*
D02*
G37*
G36*
X1248730D02*
X1247267Y1154090D01*
X1245910Y1152733D01*
X1245304Y1151270D01*
X1248730D01*
Y1154697D01*
D02*
G37*
G36*
X1151270D02*
Y1151270D01*
X1154697D01*
X1154090Y1152733D01*
X1152733Y1154090D01*
X1151270Y1154697D01*
D02*
G37*
G36*
X1148730D02*
X1147267Y1154090D01*
X1145910Y1152733D01*
X1145304Y1151270D01*
X1148730D01*
Y1154697D01*
D02*
G37*
G36*
X1051270D02*
Y1151270D01*
X1054697D01*
X1054090Y1152733D01*
X1052733Y1154090D01*
X1051270Y1154697D01*
D02*
G37*
G36*
X1048730D02*
X1047267Y1154090D01*
X1045910Y1152733D01*
X1045303Y1151270D01*
X1048730D01*
Y1154697D01*
D02*
G37*
G36*
X951270D02*
Y1151270D01*
X954697D01*
X954090Y1152733D01*
X952733Y1154090D01*
X951270Y1154697D01*
D02*
G37*
G36*
X948730D02*
X947267Y1154090D01*
X945910Y1152733D01*
X945303Y1151270D01*
X948730D01*
Y1154697D01*
D02*
G37*
G36*
X901270D02*
Y1151270D01*
X904697D01*
X904090Y1152733D01*
X902733Y1154090D01*
X901270Y1154697D01*
D02*
G37*
G36*
X898730D02*
X897267Y1154090D01*
X895910Y1152733D01*
X895303Y1151270D01*
X898730D01*
Y1154697D01*
D02*
G37*
G36*
X801270D02*
Y1151270D01*
X804697D01*
X804090Y1152733D01*
X802733Y1154090D01*
X801270Y1154697D01*
D02*
G37*
G36*
X798730D02*
X797267Y1154090D01*
X795910Y1152733D01*
X795303Y1151270D01*
X798730D01*
Y1154697D01*
D02*
G37*
G36*
X651270D02*
Y1151270D01*
X654697D01*
X654090Y1152733D01*
X652733Y1154090D01*
X651270Y1154697D01*
D02*
G37*
G36*
X648730D02*
X647267Y1154090D01*
X645910Y1152733D01*
X645303Y1151270D01*
X648730D01*
Y1154697D01*
D02*
G37*
G36*
X551270D02*
Y1151270D01*
X554697D01*
X554090Y1152733D01*
X552733Y1154090D01*
X551270Y1154697D01*
D02*
G37*
G36*
X548730D02*
X547267Y1154090D01*
X545910Y1152733D01*
X545303Y1151270D01*
X548730D01*
Y1154697D01*
D02*
G37*
G36*
X501270D02*
Y1151270D01*
X504697D01*
X504090Y1152733D01*
X502733Y1154090D01*
X501270Y1154697D01*
D02*
G37*
G36*
X498730D02*
X497267Y1154090D01*
X495910Y1152733D01*
X495303Y1151270D01*
X498730D01*
Y1154697D01*
D02*
G37*
G36*
X1034930Y1155700D02*
X1026160D01*
Y1146930D01*
X1026212D01*
X1028765Y1147614D01*
X1031055Y1148936D01*
X1032924Y1150805D01*
X1034246Y1153095D01*
X1034930Y1155648D01*
Y1155700D01*
D02*
G37*
G36*
X1023620D02*
X1014850D01*
Y1155648D01*
X1015534Y1153095D01*
X1016856Y1150805D01*
X1018725Y1148936D01*
X1021015Y1147614D01*
X1023568Y1146930D01*
X1023620D01*
Y1155700D01*
D02*
G37*
G36*
X853828Y1164978D02*
X835272D01*
Y1146422D01*
X853828D01*
Y1164978D01*
D02*
G37*
G36*
X829190Y1154430D02*
X820420D01*
Y1145660D01*
X820472D01*
X823025Y1146344D01*
X825315Y1147666D01*
X827184Y1149535D01*
X828506Y1151825D01*
X829190Y1154378D01*
Y1154430D01*
D02*
G37*
G36*
X817880D02*
X809110D01*
Y1154378D01*
X809794Y1151825D01*
X811116Y1149535D01*
X812985Y1147666D01*
X815275Y1146344D01*
X817828Y1145660D01*
X817880D01*
Y1154430D01*
D02*
G37*
G36*
X1354697Y1148730D02*
X1351270D01*
Y1145304D01*
X1352733Y1145910D01*
X1354091Y1147267D01*
X1354697Y1148730D01*
D02*
G37*
G36*
X1348730D02*
X1345304D01*
X1345910Y1147267D01*
X1347267Y1145910D01*
X1348730Y1145304D01*
Y1148730D01*
D02*
G37*
G36*
X1304697D02*
X1301270D01*
Y1145304D01*
X1302733Y1145910D01*
X1304091Y1147267D01*
X1304697Y1148730D01*
D02*
G37*
G36*
X1298730D02*
X1295304D01*
X1295910Y1147267D01*
X1297267Y1145910D01*
X1298730Y1145304D01*
Y1148730D01*
D02*
G37*
G36*
X1254697D02*
X1251270D01*
Y1145304D01*
X1252733Y1145910D01*
X1254090Y1147267D01*
X1254697Y1148730D01*
D02*
G37*
G36*
X1248730D02*
X1245304D01*
X1245910Y1147267D01*
X1247267Y1145910D01*
X1248730Y1145304D01*
Y1148730D01*
D02*
G37*
G36*
X1154697D02*
X1151270D01*
Y1145304D01*
X1152733Y1145910D01*
X1154090Y1147267D01*
X1154697Y1148730D01*
D02*
G37*
G36*
X1148730D02*
X1145304D01*
X1145910Y1147267D01*
X1147267Y1145910D01*
X1148730Y1145304D01*
Y1148730D01*
D02*
G37*
G36*
X1054697D02*
X1051270D01*
Y1145304D01*
X1052733Y1145910D01*
X1054090Y1147267D01*
X1054697Y1148730D01*
D02*
G37*
G36*
X1048730D02*
X1045303D01*
X1045910Y1147267D01*
X1047267Y1145910D01*
X1048730Y1145304D01*
Y1148730D01*
D02*
G37*
G36*
X954697D02*
X951270D01*
Y1145304D01*
X952733Y1145910D01*
X954090Y1147267D01*
X954697Y1148730D01*
D02*
G37*
G36*
X948730D02*
X945303D01*
X945910Y1147267D01*
X947267Y1145910D01*
X948730Y1145304D01*
Y1148730D01*
D02*
G37*
G36*
X904697D02*
X901270D01*
Y1145304D01*
X902733Y1145910D01*
X904090Y1147267D01*
X904697Y1148730D01*
D02*
G37*
G36*
X898730D02*
X895303D01*
X895910Y1147267D01*
X897267Y1145910D01*
X898730Y1145304D01*
Y1148730D01*
D02*
G37*
G36*
X804697D02*
X801270D01*
Y1145304D01*
X802733Y1145910D01*
X804090Y1147267D01*
X804697Y1148730D01*
D02*
G37*
G36*
X798730D02*
X795303D01*
X795910Y1147267D01*
X797267Y1145910D01*
X798730Y1145304D01*
Y1148730D01*
D02*
G37*
G36*
X654697D02*
X651270D01*
Y1145304D01*
X652733Y1145910D01*
X654090Y1147267D01*
X654697Y1148730D01*
D02*
G37*
G36*
X648730D02*
X645303D01*
X645910Y1147267D01*
X647267Y1145910D01*
X648730Y1145304D01*
Y1148730D01*
D02*
G37*
G36*
X554697D02*
X551270D01*
Y1145304D01*
X552733Y1145910D01*
X554090Y1147267D01*
X554697Y1148730D01*
D02*
G37*
G36*
X548730D02*
X545303D01*
X545910Y1147267D01*
X547267Y1145910D01*
X548730Y1145304D01*
Y1148730D01*
D02*
G37*
G36*
X504697D02*
X501270D01*
Y1145304D01*
X502733Y1145910D01*
X504090Y1147267D01*
X504697Y1148730D01*
D02*
G37*
G36*
X498730D02*
X495303D01*
X495910Y1147267D01*
X497267Y1145910D01*
X498730Y1145304D01*
Y1148730D01*
D02*
G37*
G36*
X750958Y1161168D02*
X732402D01*
Y1142612D01*
X750958D01*
Y1161168D01*
D02*
G37*
G36*
X726320Y1150620D02*
X717550D01*
Y1141850D01*
X717602D01*
X720155Y1142534D01*
X722445Y1143856D01*
X724314Y1145725D01*
X725636Y1148015D01*
X726320Y1150568D01*
Y1150620D01*
D02*
G37*
G36*
X715010D02*
X706240D01*
Y1150568D01*
X706924Y1148015D01*
X708246Y1145725D01*
X710115Y1143856D01*
X712405Y1142534D01*
X714958Y1141850D01*
X715010D01*
Y1150620D01*
D02*
G37*
G36*
X1189990Y1134998D02*
Y1131570D01*
X1193418D01*
X1192811Y1133034D01*
X1191454Y1134391D01*
X1189990Y1134998D01*
D02*
G37*
G36*
X1187450D02*
X1185986Y1134391D01*
X1184629Y1133034D01*
X1184022Y1131570D01*
X1187450D01*
Y1134998D01*
D02*
G37*
G36*
X1206500Y1132458D02*
Y1129030D01*
X1209928D01*
X1209321Y1130494D01*
X1207964Y1131851D01*
X1206500Y1132458D01*
D02*
G37*
G36*
X1203960D02*
X1202496Y1131851D01*
X1201139Y1130494D01*
X1200532Y1129030D01*
X1203960D01*
Y1132458D01*
D02*
G37*
G36*
X1193418Y1129030D02*
X1189990D01*
Y1125602D01*
X1191454Y1126209D01*
X1192811Y1127566D01*
X1193418Y1129030D01*
D02*
G37*
G36*
X1187450D02*
X1184022D01*
X1184629Y1127566D01*
X1185986Y1126209D01*
X1187450Y1125602D01*
Y1129030D01*
D02*
G37*
G36*
X1209928Y1126490D02*
X1206500D01*
Y1123062D01*
X1207964Y1123669D01*
X1209321Y1125026D01*
X1209928Y1126490D01*
D02*
G37*
G36*
X1203960D02*
X1200532D01*
X1201139Y1125026D01*
X1202496Y1123669D01*
X1203960Y1123062D01*
Y1126490D01*
D02*
G37*
G36*
X1026112Y1140848D02*
X1023669D01*
X1021309Y1140216D01*
X1019193Y1138994D01*
X1017466Y1137267D01*
X1016244Y1135151D01*
X1015612Y1132792D01*
Y1130349D01*
X1016244Y1127989D01*
X1017466Y1125873D01*
X1019193Y1124146D01*
X1021309Y1122924D01*
X1023669Y1122292D01*
X1026112D01*
X1028471Y1122924D01*
X1030587Y1124146D01*
X1032314Y1125873D01*
X1033536Y1127989D01*
X1034168Y1130349D01*
Y1132792D01*
X1033536Y1135151D01*
X1032314Y1137267D01*
X1030587Y1138994D01*
X1028471Y1140216D01*
X1026112Y1140848D01*
D02*
G37*
G36*
X1471006Y1145588D02*
X1467774D01*
X1464651Y1144751D01*
X1461851Y1143135D01*
X1459565Y1140849D01*
X1457949Y1138049D01*
X1457112Y1134926D01*
Y1131693D01*
X1457949Y1128571D01*
X1459565Y1125771D01*
X1461851Y1123485D01*
X1464651Y1121869D01*
X1467774Y1121032D01*
X1471006D01*
X1474129Y1121869D01*
X1476929Y1123485D01*
X1479215Y1125771D01*
X1480831Y1128571D01*
X1481668Y1131693D01*
Y1134926D01*
X1480831Y1138049D01*
X1479215Y1140849D01*
X1476929Y1143135D01*
X1474129Y1144751D01*
X1471006Y1145588D01*
D02*
G37*
G36*
X1420206Y1132418D02*
X1416974D01*
X1413851Y1131581D01*
X1411051Y1129965D01*
X1408765Y1127679D01*
X1407149Y1124879D01*
X1406312Y1121756D01*
Y1118524D01*
X1407149Y1115401D01*
X1408765Y1112601D01*
X1411051Y1110315D01*
X1413851Y1108699D01*
X1416974Y1107862D01*
X1420206D01*
X1423329Y1108699D01*
X1426129Y1110315D01*
X1428415Y1112601D01*
X1430031Y1115401D01*
X1430868Y1118524D01*
Y1121756D01*
X1430031Y1124879D01*
X1428415Y1127679D01*
X1426129Y1129965D01*
X1423329Y1131581D01*
X1420206Y1132418D01*
D02*
G37*
G36*
X1276270Y1104697D02*
Y1101270D01*
X1279697D01*
X1279090Y1102733D01*
X1277733Y1104090D01*
X1276270Y1104697D01*
D02*
G37*
G36*
X1273730D02*
X1272267Y1104090D01*
X1270910Y1102733D01*
X1270304Y1101270D01*
X1273730D01*
Y1104697D01*
D02*
G37*
G36*
X1226270D02*
Y1101270D01*
X1229697D01*
X1229090Y1102733D01*
X1227733Y1104090D01*
X1226270Y1104697D01*
D02*
G37*
G36*
X1223730D02*
X1222267Y1104090D01*
X1220910Y1102733D01*
X1220304Y1101270D01*
X1223730D01*
Y1104697D01*
D02*
G37*
G36*
X1176270D02*
Y1101270D01*
X1179697D01*
X1179090Y1102733D01*
X1177733Y1104090D01*
X1176270Y1104697D01*
D02*
G37*
G36*
X1173730D02*
X1172267Y1104090D01*
X1170910Y1102733D01*
X1170304Y1101270D01*
X1173730D01*
Y1104697D01*
D02*
G37*
G36*
X1126270D02*
Y1101270D01*
X1129697D01*
X1129090Y1102733D01*
X1127733Y1104090D01*
X1126270Y1104697D01*
D02*
G37*
G36*
X1123730D02*
X1122267Y1104090D01*
X1120910Y1102733D01*
X1120304Y1101270D01*
X1123730D01*
Y1104697D01*
D02*
G37*
G36*
X1076270D02*
Y1101270D01*
X1079697D01*
X1079090Y1102733D01*
X1077733Y1104090D01*
X1076270Y1104697D01*
D02*
G37*
G36*
X1073730D02*
X1072267Y1104090D01*
X1070910Y1102733D01*
X1070303Y1101270D01*
X1073730D01*
Y1104697D01*
D02*
G37*
G36*
X976270D02*
Y1101270D01*
X979697D01*
X979090Y1102733D01*
X977733Y1104090D01*
X976270Y1104697D01*
D02*
G37*
G36*
X973730D02*
X972267Y1104090D01*
X970910Y1102733D01*
X970303Y1101270D01*
X973730D01*
Y1104697D01*
D02*
G37*
G36*
X926270D02*
Y1101270D01*
X929697D01*
X929090Y1102733D01*
X927733Y1104090D01*
X926270Y1104697D01*
D02*
G37*
G36*
X923730D02*
X922267Y1104090D01*
X920910Y1102733D01*
X920303Y1101270D01*
X923730D01*
Y1104697D01*
D02*
G37*
G36*
X873730D02*
X872267Y1104090D01*
X870910Y1102733D01*
X870303Y1101270D01*
X873730D01*
Y1104697D01*
D02*
G37*
G36*
X826270D02*
Y1101270D01*
X829697D01*
X829090Y1102733D01*
X827733Y1104090D01*
X826270Y1104697D01*
D02*
G37*
G36*
X823730D02*
X822267Y1104090D01*
X820910Y1102733D01*
X820303Y1101270D01*
X823730D01*
Y1104697D01*
D02*
G37*
G36*
X776270D02*
Y1101270D01*
X779697D01*
X779090Y1102733D01*
X777733Y1104090D01*
X776270Y1104697D01*
D02*
G37*
G36*
X773730D02*
X772267Y1104090D01*
X770910Y1102733D01*
X770303Y1101270D01*
X773730D01*
Y1104697D01*
D02*
G37*
G36*
X726270D02*
Y1101270D01*
X729697D01*
X729090Y1102733D01*
X727733Y1104090D01*
X726270Y1104697D01*
D02*
G37*
G36*
X723730D02*
X722267Y1104090D01*
X720910Y1102733D01*
X720303Y1101270D01*
X723730D01*
Y1104697D01*
D02*
G37*
G36*
X676270D02*
Y1101270D01*
X679697D01*
X679090Y1102733D01*
X677733Y1104090D01*
X676270Y1104697D01*
D02*
G37*
G36*
X673730D02*
X672267Y1104090D01*
X670910Y1102733D01*
X670303Y1101270D01*
X673730D01*
Y1104697D01*
D02*
G37*
G36*
X626270D02*
Y1101270D01*
X629697D01*
X629090Y1102733D01*
X627733Y1104090D01*
X626270Y1104697D01*
D02*
G37*
G36*
X623730D02*
X622267Y1104090D01*
X620910Y1102733D01*
X620303Y1101270D01*
X623730D01*
Y1104697D01*
D02*
G37*
G36*
X526270D02*
Y1101270D01*
X529697D01*
X529090Y1102733D01*
X527733Y1104090D01*
X526270Y1104697D01*
D02*
G37*
G36*
X523730D02*
X522267Y1104090D01*
X520910Y1102733D01*
X520303Y1101270D01*
X523730D01*
Y1104697D01*
D02*
G37*
G36*
X1026112Y1115448D02*
X1023669D01*
X1021309Y1114816D01*
X1019193Y1113594D01*
X1017466Y1111867D01*
X1016244Y1109751D01*
X1015612Y1107392D01*
Y1104949D01*
X1016244Y1102589D01*
X1017466Y1100473D01*
X1019193Y1098746D01*
X1021309Y1097524D01*
X1023669Y1096892D01*
X1026112D01*
X1028471Y1097524D01*
X1030587Y1098746D01*
X1032314Y1100473D01*
X1033536Y1102589D01*
X1034168Y1104949D01*
Y1107392D01*
X1033536Y1109751D01*
X1032314Y1111867D01*
X1030587Y1113594D01*
X1028471Y1114816D01*
X1026112Y1115448D01*
D02*
G37*
G36*
X829697Y1098730D02*
X826270D01*
Y1095303D01*
X827733Y1095910D01*
X829090Y1097267D01*
X829697Y1098730D01*
D02*
G37*
G36*
X823730D02*
X820303D01*
X820910Y1097267D01*
X822267Y1095910D01*
X823730Y1095303D01*
Y1098730D01*
D02*
G37*
G36*
X779697D02*
X776270D01*
Y1095303D01*
X777733Y1095910D01*
X779090Y1097267D01*
X779697Y1098730D01*
D02*
G37*
G36*
X773730D02*
X770303D01*
X770910Y1097267D01*
X772267Y1095910D01*
X773730Y1095303D01*
Y1098730D01*
D02*
G37*
G36*
X729697D02*
X726270D01*
Y1095303D01*
X727733Y1095910D01*
X729090Y1097267D01*
X729697Y1098730D01*
D02*
G37*
G36*
X723730D02*
X720303D01*
X720910Y1097267D01*
X722267Y1095910D01*
X723730Y1095303D01*
Y1098730D01*
D02*
G37*
G36*
X679697D02*
X676270D01*
Y1095303D01*
X677733Y1095910D01*
X679090Y1097267D01*
X679697Y1098730D01*
D02*
G37*
G36*
X673730D02*
X670303D01*
X670910Y1097267D01*
X672267Y1095910D01*
X673730Y1095303D01*
Y1098730D01*
D02*
G37*
G36*
X629697D02*
X626270D01*
Y1095303D01*
X627733Y1095910D01*
X629090Y1097267D01*
X629697Y1098730D01*
D02*
G37*
G36*
X623730D02*
X620303D01*
X620910Y1097267D01*
X622267Y1095910D01*
X623730Y1095303D01*
Y1098730D01*
D02*
G37*
G36*
X529697D02*
X526270D01*
Y1095303D01*
X527733Y1095910D01*
X529090Y1097267D01*
X529697Y1098730D01*
D02*
G37*
G36*
X523730D02*
X520303D01*
X520910Y1097267D01*
X522267Y1095910D01*
X523730Y1095303D01*
Y1098730D01*
D02*
G37*
G36*
X1323730D02*
X1320304D01*
X1320910Y1097267D01*
X1322267Y1095910D01*
X1323730Y1095303D01*
Y1098730D01*
D02*
G37*
G36*
X1279697D02*
X1276270D01*
Y1095303D01*
X1277733Y1095910D01*
X1279090Y1097267D01*
X1279697Y1098730D01*
D02*
G37*
G36*
X1273730D02*
X1270304D01*
X1270910Y1097267D01*
X1272267Y1095910D01*
X1273730Y1095303D01*
Y1098730D01*
D02*
G37*
G36*
X1229697D02*
X1226270D01*
Y1095303D01*
X1227733Y1095910D01*
X1229090Y1097267D01*
X1229697Y1098730D01*
D02*
G37*
G36*
X1223730D02*
X1220304D01*
X1220910Y1097267D01*
X1222267Y1095910D01*
X1223730Y1095303D01*
Y1098730D01*
D02*
G37*
G36*
X1179697D02*
X1176270D01*
Y1095303D01*
X1177733Y1095910D01*
X1179090Y1097267D01*
X1179697Y1098730D01*
D02*
G37*
G36*
X1173730D02*
X1170304D01*
X1170910Y1097267D01*
X1172267Y1095910D01*
X1173730Y1095303D01*
Y1098730D01*
D02*
G37*
G36*
X1129697D02*
X1126270D01*
Y1095303D01*
X1127733Y1095910D01*
X1129090Y1097267D01*
X1129697Y1098730D01*
D02*
G37*
G36*
X1123730D02*
X1120304D01*
X1120910Y1097267D01*
X1122267Y1095910D01*
X1123730Y1095303D01*
Y1098730D01*
D02*
G37*
G36*
X1079697D02*
X1076270D01*
Y1095303D01*
X1077733Y1095910D01*
X1079090Y1097267D01*
X1079697Y1098730D01*
D02*
G37*
G36*
X1073730D02*
X1070303D01*
X1070910Y1097267D01*
X1072267Y1095910D01*
X1073730Y1095303D01*
Y1098730D01*
D02*
G37*
G36*
X979697D02*
X976270D01*
Y1095303D01*
X977733Y1095910D01*
X979090Y1097267D01*
X979697Y1098730D01*
D02*
G37*
G36*
X973730D02*
X970303D01*
X970910Y1097267D01*
X972267Y1095910D01*
X973730Y1095303D01*
Y1098730D01*
D02*
G37*
G36*
X929697D02*
X926270D01*
Y1095303D01*
X927733Y1095910D01*
X929090Y1097267D01*
X929697Y1098730D01*
D02*
G37*
G36*
X923730D02*
X920303D01*
X920910Y1097267D01*
X922267Y1095910D01*
X923730Y1095303D01*
Y1098730D01*
D02*
G37*
G36*
X985587Y1116305D02*
X985587Y1116305D01*
X896360D01*
X894886Y1116012D01*
X893636Y1115177D01*
X893636Y1115177D01*
X880844Y1102384D01*
X879090Y1102733D01*
X877733Y1104090D01*
X876270Y1104697D01*
Y1100000D01*
X875000D01*
Y1098730D01*
X870303D01*
X870910Y1097267D01*
X871904Y1096273D01*
X872441Y1093982D01*
X829126Y1050667D01*
X828291Y1049417D01*
X827998Y1047943D01*
X827998Y1047943D01*
Y906146D01*
X826270Y904991D01*
Y900000D01*
Y895009D01*
X827998Y893855D01*
Y806146D01*
X826270Y804991D01*
Y800000D01*
Y795009D01*
X827998Y793855D01*
Y740419D01*
X827786Y739907D01*
Y738643D01*
X827786Y738290D01*
X827766Y738166D01*
X827691Y737899D01*
X825602Y737222D01*
X825564Y737243D01*
X825262Y737544D01*
X823768Y738163D01*
X822152D01*
X820658Y737544D01*
X820060Y736947D01*
X745094D01*
X743758Y738947D01*
X743838Y739140D01*
X734442D01*
X734522Y738947D01*
X733186Y736947D01*
X710405D01*
X710007Y738947D01*
X711503Y739566D01*
X713127Y740813D01*
X714374Y742438D01*
X715158Y744330D01*
X715425Y746360D01*
X715158Y748391D01*
X714374Y750283D01*
X713127Y751908D01*
X711503Y753154D01*
X709611Y753938D01*
X707580Y754205D01*
X699580D01*
X697550Y753938D01*
X695657Y753154D01*
X694033Y751908D01*
X692786Y750283D01*
X692002Y748391D01*
X691735Y746360D01*
X692002Y744330D01*
X692786Y742438D01*
X694033Y740813D01*
X695657Y739566D01*
X697153Y738947D01*
X696755Y736947D01*
X662810D01*
X649353Y750404D01*
Y769014D01*
X630049D01*
Y749710D01*
X641993D01*
X656757Y734946D01*
X655992Y733098D01*
X649353D01*
Y735233D01*
X648696Y737688D01*
X647425Y739889D01*
X645628Y741686D01*
X643427Y742956D01*
X640972Y743614D01*
X638430D01*
X635976Y742956D01*
X633775Y741686D01*
X631978Y739889D01*
X630707Y737688D01*
X630049Y735233D01*
Y732691D01*
X630707Y730237D01*
X631978Y728036D01*
X633775Y726239D01*
X635976Y724968D01*
X638430Y724310D01*
X640972D01*
X643427Y724968D01*
X645628Y726239D01*
X646791Y727402D01*
X651791D01*
X652514Y725402D01*
X644214Y717102D01*
X643427Y717556D01*
X640972Y718214D01*
X638430D01*
X635976Y717556D01*
X633775Y716286D01*
X631978Y714489D01*
X630707Y712288D01*
X630049Y709833D01*
Y707291D01*
X630707Y704837D01*
X631978Y702636D01*
X633775Y700839D01*
X635976Y699568D01*
X638430Y698910D01*
X640972D01*
X643427Y699568D01*
X645628Y700839D01*
X647425Y702636D01*
X648696Y704837D01*
X649353Y707291D01*
Y709833D01*
X648696Y712288D01*
X648241Y713075D01*
X656219Y721052D01*
X670736D01*
X671564Y719052D01*
X644214Y691702D01*
X643427Y692156D01*
X640972Y692814D01*
X638430D01*
X635976Y692156D01*
X633775Y690886D01*
X631978Y689089D01*
X630707Y686888D01*
X630049Y684433D01*
Y681891D01*
X630707Y679436D01*
X631978Y677236D01*
X633775Y675439D01*
X635976Y674168D01*
X638430Y673510D01*
X640972D01*
X643427Y674168D01*
X645628Y675439D01*
X647425Y677236D01*
X648696Y679436D01*
X649353Y681891D01*
Y684433D01*
X648696Y686888D01*
X648241Y687675D01*
X676539Y715972D01*
X810934D01*
X811577Y715010D01*
X821643D01*
X822286Y715972D01*
X835300D01*
X835898Y715375D01*
X837392Y714756D01*
X839008D01*
X840502Y715375D01*
X841645Y716518D01*
X842264Y718012D01*
Y719628D01*
X841645Y721122D01*
X840502Y722265D01*
X839008Y722884D01*
X837392D01*
X835898Y722265D01*
X835300Y721668D01*
X805116D01*
X804164Y723092D01*
Y724708D01*
X805142Y726172D01*
X811170D01*
X811768Y725575D01*
X813262Y724956D01*
X814878D01*
X816372Y725575D01*
X817515Y726718D01*
X818134Y728212D01*
Y729828D01*
X818452Y730305D01*
X820658Y730654D01*
X822152Y730035D01*
X823768D01*
X825262Y730654D01*
X826405Y731797D01*
X827024Y733291D01*
Y734555D01*
X827024Y734908D01*
X827044Y735032D01*
X827119Y735299D01*
X829208Y735976D01*
X829246Y735955D01*
X829548Y735654D01*
X831042Y735035D01*
X832658D01*
X834152Y735654D01*
X835295Y736797D01*
X835914Y738290D01*
Y739907D01*
X835702Y740419D01*
Y1046347D01*
X897956Y1108601D01*
X983991D01*
X1013911Y1078681D01*
X1014279Y1078435D01*
X1014699Y1076174D01*
X1014643Y1075970D01*
X990416Y1051744D01*
X989581Y1050494D01*
X989288Y1049020D01*
X989288Y1049020D01*
Y978328D01*
X989288Y978328D01*
X989581Y976854D01*
X990416Y975604D01*
X1005993Y960028D01*
X1006205Y959516D01*
X1007348Y958373D01*
X1008842Y957754D01*
X1010458D01*
X1010970Y957966D01*
X1059825D01*
X1060688Y957103D01*
X1062182Y956484D01*
X1063798D01*
X1065292Y957103D01*
X1066435Y958246D01*
X1066538Y958494D01*
X1067183Y959139D01*
X1068178Y959337D01*
X1069428Y960172D01*
X1083960Y974704D01*
X1085808Y973939D01*
Y970758D01*
X1085596Y970247D01*
Y968630D01*
X1086215Y967136D01*
X1087358Y965993D01*
X1087957Y965745D01*
X1087687Y963692D01*
X1086621Y963552D01*
X1084972Y962869D01*
X1083556Y961782D01*
X1036103Y914329D01*
X1035016Y912913D01*
X1034333Y911264D01*
X1034100Y909495D01*
Y819109D01*
X1011768Y796777D01*
X981052D01*
X979747Y798730D01*
X970253D01*
X968948Y796777D01*
X900852D01*
X898589Y799039D01*
X898712Y801248D01*
X899800Y802336D01*
X900406Y803800D01*
X895709D01*
Y805070D01*
X894439D01*
Y809767D01*
X892975Y809161D01*
X891887Y808073D01*
X889678Y807950D01*
X885074Y812554D01*
X883658Y813641D01*
X882010Y814324D01*
X880240Y814557D01*
X878471Y814324D01*
X876822Y813641D01*
X875406Y812554D01*
X874320Y811138D01*
X873636Y809489D01*
X873404Y807720D01*
X873636Y805951D01*
X874320Y804302D01*
X875406Y802886D01*
X893186Y785106D01*
X894602Y784019D01*
X896251Y783336D01*
X898020Y783103D01*
X1007764D01*
Y737462D01*
X966716Y696414D01*
X965629Y694998D01*
X964947Y693349D01*
X964714Y691580D01*
Y643107D01*
X950262D01*
X950204Y643175D01*
X950960Y645175D01*
X952733Y645910D01*
X954090Y647267D01*
X954697Y648730D01*
X944532D01*
X943371Y648169D01*
X928672Y662868D01*
X927256Y663955D01*
X926290Y664355D01*
X925607Y664638D01*
X923838Y664871D01*
X825238D01*
X807474Y682634D01*
X806058Y683721D01*
X804409Y684404D01*
X802640Y684637D01*
X800871Y684404D01*
X799222Y683721D01*
X797806Y682634D01*
X796719Y681218D01*
X796037Y679569D01*
X795804Y677800D01*
X796037Y676031D01*
X796719Y674382D01*
X797806Y672966D01*
X817572Y653200D01*
X818988Y652113D01*
X820637Y651431D01*
X822406Y651198D01*
X879517D01*
X880157Y650240D01*
X885190D01*
Y648970D01*
X886460D01*
Y644272D01*
X887238Y644595D01*
X888371Y642899D01*
X887976Y642504D01*
X886889Y641088D01*
X886207Y639440D01*
X885974Y637670D01*
X886207Y635901D01*
X886889Y634252D01*
X887976Y632836D01*
X889392Y631749D01*
X891041Y631067D01*
X892810Y630834D01*
X894579Y631067D01*
X896228Y631749D01*
X897644Y632836D01*
X902724Y637916D01*
X903811Y639332D01*
X904493Y640981D01*
X904726Y642750D01*
Y651198D01*
X921006D01*
X940768Y631436D01*
X942184Y630349D01*
X943833Y629666D01*
X945602Y629434D01*
X968718D01*
X970448Y627704D01*
X969796Y625527D01*
X968816Y625121D01*
X967459Y623764D01*
X966852Y622300D01*
X971550D01*
Y621030D01*
X972820D01*
Y616332D01*
X974284Y616939D01*
X975641Y618296D01*
X976198Y619640D01*
X976482Y620109D01*
X978376Y620797D01*
X978845Y620602D01*
X980614Y620369D01*
X1004322D01*
X1077614Y547078D01*
Y536070D01*
X1077744Y535082D01*
Y529352D01*
X1071335Y522944D01*
X1070249Y521529D01*
X1069566Y519880D01*
X1069333Y518110D01*
X1069566Y516341D01*
X1070249Y514692D01*
X1071335Y513276D01*
X1072751Y512190D01*
X1074400Y511507D01*
X1076170Y511274D01*
X1077939Y511507D01*
X1079588Y512190D01*
X1081004Y513276D01*
X1081564Y513836D01*
X1083564Y513008D01*
Y512120D01*
X1084299Y510346D01*
X1085524Y509121D01*
X1085594Y508000D01*
X1085524Y506879D01*
X1084299Y505654D01*
X1083692Y504190D01*
X1088390D01*
Y502920D01*
X1089660D01*
Y498222D01*
X1090930Y498749D01*
X1092200Y498222D01*
Y502920D01*
X1093470D01*
Y504190D01*
X1098168D01*
X1097561Y505654D01*
X1096336Y506879D01*
X1096266Y508000D01*
X1096336Y509121D01*
X1097561Y510346D01*
X1098168Y511810D01*
X1093470D01*
Y513080D01*
X1092200D01*
Y517778D01*
X1090930Y517252D01*
X1089350Y517906D01*
X1088462D01*
X1087634Y519906D01*
X1089414Y521687D01*
X1090501Y523102D01*
X1091183Y524751D01*
X1091416Y526521D01*
Y535940D01*
X1091286Y536928D01*
Y549910D01*
X1091053Y551679D01*
X1090370Y553328D01*
X1089284Y554744D01*
X1011988Y632040D01*
X1010572Y633127D01*
X1008923Y633810D01*
X1007154Y634043D01*
X983446D01*
X978387Y639102D01*
Y688748D01*
X1019434Y729796D01*
X1020521Y731212D01*
X1021204Y732861D01*
X1021436Y734630D01*
Y787108D01*
X1023296Y788968D01*
X1025435Y788278D01*
X1025879Y787206D01*
X1027236Y785849D01*
X1028700Y785242D01*
Y789940D01*
X1029970D01*
Y791210D01*
X1034668D01*
X1034061Y792674D01*
X1032704Y794031D01*
X1031632Y794475D01*
X1030942Y796614D01*
X1045771Y811443D01*
X1046858Y812859D01*
X1047541Y814508D01*
X1047774Y816277D01*
Y906663D01*
X1093224Y952114D01*
X1094311Y953530D01*
X1094994Y955179D01*
X1095227Y956948D01*
X1094994Y958717D01*
X1094311Y960366D01*
X1093224Y961782D01*
X1091808Y962869D01*
X1090528Y963399D01*
X1090482Y964920D01*
X1090602Y965430D01*
X1091962Y965993D01*
X1093105Y967136D01*
X1093724Y968630D01*
Y970247D01*
X1093512Y970758D01*
Y979443D01*
X1093512Y979443D01*
X1093219Y980918D01*
X1092384Y982167D01*
X1092384Y982167D01*
X1092157Y982394D01*
X1091835Y983170D01*
X1090692Y984314D01*
X1090001Y984600D01*
X1089864Y984691D01*
X1089703Y984723D01*
X1089198Y984932D01*
X1088652D01*
X1088390Y984984D01*
X1088128Y984932D01*
X1087582D01*
X1087077Y984723D01*
X1086916Y984691D01*
X1086796Y984611D01*
X1084567D01*
X1083093Y984317D01*
X1081843Y983483D01*
X1081843Y983483D01*
X1065013Y966652D01*
X1064018Y966454D01*
X1062768Y965619D01*
X1062768Y965619D01*
X1062611Y965462D01*
X1061565Y965670D01*
X1061565Y965670D01*
X1011246D01*
X996992Y979924D01*
Y1047424D01*
X1021611Y1072043D01*
X1023669Y1071492D01*
X1026112D01*
X1028471Y1072124D01*
X1030587Y1073346D01*
X1032314Y1075073D01*
X1033536Y1077189D01*
X1034168Y1079548D01*
Y1081992D01*
X1033536Y1084351D01*
X1032314Y1086467D01*
X1030587Y1088194D01*
X1028471Y1089416D01*
X1026112Y1090048D01*
X1023669D01*
X1021309Y1089416D01*
X1019193Y1088194D01*
X1017466Y1086467D01*
X1017073Y1086415D01*
X988311Y1115177D01*
X987061Y1116012D01*
X985587Y1116305D01*
D02*
G37*
G36*
X1471006Y1095588D02*
X1467774D01*
X1464651Y1094751D01*
X1461851Y1093135D01*
X1459565Y1090849D01*
X1457949Y1088049D01*
X1457112Y1084926D01*
Y1081694D01*
X1457949Y1078571D01*
X1459565Y1075771D01*
X1461851Y1073485D01*
X1464651Y1071869D01*
X1467774Y1071032D01*
X1471006D01*
X1474129Y1071869D01*
X1476929Y1073485D01*
X1479215Y1075771D01*
X1480831Y1078571D01*
X1481668Y1081694D01*
Y1084926D01*
X1480831Y1088049D01*
X1479215Y1090849D01*
X1476929Y1093135D01*
X1474129Y1094751D01*
X1471006Y1095588D01*
D02*
G37*
G36*
X511810Y1065148D02*
X510346Y1064541D01*
X509942Y1064137D01*
X508635Y1063387D01*
X507328Y1064137D01*
X506924Y1064541D01*
X505460Y1065148D01*
Y1060450D01*
Y1055752D01*
X506924Y1056359D01*
X507328Y1056763D01*
X508635Y1057513D01*
X509942Y1056763D01*
X510346Y1056359D01*
X511810Y1055752D01*
Y1060450D01*
Y1065148D01*
D02*
G37*
G36*
X514350D02*
Y1061720D01*
X517778D01*
X517171Y1063184D01*
X515814Y1064541D01*
X514350Y1065148D01*
D02*
G37*
G36*
X502920D02*
X501456Y1064541D01*
X500099Y1063184D01*
X499492Y1061720D01*
X502920D01*
Y1065148D01*
D02*
G37*
G36*
X517778Y1059180D02*
X514350D01*
Y1055752D01*
X515814Y1056359D01*
X517171Y1057716D01*
X517778Y1059180D01*
D02*
G37*
G36*
X502920D02*
X499492D01*
X500099Y1057716D01*
X501456Y1056359D01*
X502920Y1055752D01*
Y1059180D01*
D02*
G37*
G36*
X904584Y1070153D02*
X886028D01*
Y1051597D01*
X904584D01*
Y1070153D01*
D02*
G37*
G36*
X1351270Y1054697D02*
Y1051270D01*
X1354697D01*
X1354091Y1052733D01*
X1352733Y1054090D01*
X1351270Y1054697D01*
D02*
G37*
G36*
X1348730D02*
X1347267Y1054090D01*
X1345910Y1052733D01*
X1345304Y1051270D01*
X1348730D01*
Y1054697D01*
D02*
G37*
G36*
X1301270D02*
Y1051270D01*
X1304697D01*
X1304091Y1052733D01*
X1302733Y1054090D01*
X1301270Y1054697D01*
D02*
G37*
G36*
X1298730D02*
X1297267Y1054090D01*
X1295910Y1052733D01*
X1295304Y1051270D01*
X1298730D01*
Y1054697D01*
D02*
G37*
G36*
X1201270D02*
Y1051270D01*
X1204697D01*
X1204090Y1052733D01*
X1202733Y1054090D01*
X1201270Y1054697D01*
D02*
G37*
G36*
X1198730D02*
X1197267Y1054090D01*
X1195910Y1052733D01*
X1195304Y1051270D01*
X1198730D01*
Y1054697D01*
D02*
G37*
G36*
X1051270D02*
Y1051270D01*
X1054697D01*
X1054090Y1052733D01*
X1052733Y1054090D01*
X1051270Y1054697D01*
D02*
G37*
G36*
X1048730D02*
X1047267Y1054090D01*
X1045910Y1052733D01*
X1045303Y1051270D01*
X1048730D01*
Y1054697D01*
D02*
G37*
G36*
X951270D02*
Y1051270D01*
X954697D01*
X954090Y1052733D01*
X952733Y1054090D01*
X951270Y1054697D01*
D02*
G37*
G36*
X948730D02*
X947267Y1054090D01*
X945910Y1052733D01*
X945303Y1051270D01*
X948730D01*
Y1054697D01*
D02*
G37*
G36*
X801270D02*
Y1051270D01*
X804697D01*
X804090Y1052733D01*
X802733Y1054090D01*
X801270Y1054697D01*
D02*
G37*
G36*
X798730D02*
X797267Y1054090D01*
X795910Y1052733D01*
X795303Y1051270D01*
X798730D01*
Y1054697D01*
D02*
G37*
G36*
X751270D02*
Y1051270D01*
X754697D01*
X754090Y1052733D01*
X752733Y1054090D01*
X751270Y1054697D01*
D02*
G37*
G36*
X748730D02*
X747267Y1054090D01*
X745910Y1052733D01*
X745303Y1051270D01*
X748730D01*
Y1054697D01*
D02*
G37*
G36*
X701270D02*
Y1051270D01*
X704697D01*
X704090Y1052733D01*
X702733Y1054090D01*
X701270Y1054697D01*
D02*
G37*
G36*
X698730D02*
X697267Y1054090D01*
X695910Y1052733D01*
X695303Y1051270D01*
X698730D01*
Y1054697D01*
D02*
G37*
G36*
X651270D02*
Y1051270D01*
X654697D01*
X654090Y1052733D01*
X652733Y1054090D01*
X651270Y1054697D01*
D02*
G37*
G36*
X648730D02*
X647267Y1054090D01*
X645910Y1052733D01*
X645303Y1051270D01*
X648730D01*
Y1054697D01*
D02*
G37*
G36*
X1026112Y1064648D02*
X1023669D01*
X1021309Y1064016D01*
X1019193Y1062794D01*
X1017466Y1061067D01*
X1016244Y1058951D01*
X1015612Y1056591D01*
Y1054148D01*
X1016244Y1051789D01*
X1017466Y1049673D01*
X1019193Y1047946D01*
X1021309Y1046724D01*
X1023669Y1046092D01*
X1026112D01*
X1028471Y1046724D01*
X1030587Y1047946D01*
X1032314Y1049673D01*
X1033536Y1051789D01*
X1034168Y1054148D01*
Y1056591D01*
X1033536Y1058951D01*
X1032314Y1061067D01*
X1030587Y1062794D01*
X1028471Y1064016D01*
X1026112Y1064648D01*
D02*
G37*
G36*
X1354697Y1048730D02*
X1351270D01*
Y1045303D01*
X1352733Y1045910D01*
X1354091Y1047267D01*
X1354697Y1048730D01*
D02*
G37*
G36*
X1348730D02*
X1345304D01*
X1345910Y1047267D01*
X1347267Y1045910D01*
X1348730Y1045303D01*
Y1048730D01*
D02*
G37*
G36*
X1304697D02*
X1301270D01*
Y1045303D01*
X1302733Y1045910D01*
X1304091Y1047267D01*
X1304697Y1048730D01*
D02*
G37*
G36*
X1298730D02*
X1295304D01*
X1295910Y1047267D01*
X1297267Y1045910D01*
X1298730Y1045303D01*
Y1048730D01*
D02*
G37*
G36*
X1204697D02*
X1201270D01*
Y1045303D01*
X1202733Y1045910D01*
X1204090Y1047267D01*
X1204697Y1048730D01*
D02*
G37*
G36*
X1198730D02*
X1195304D01*
X1195910Y1047267D01*
X1197267Y1045910D01*
X1198730Y1045303D01*
Y1048730D01*
D02*
G37*
G36*
X1054697D02*
X1051270D01*
Y1045303D01*
X1052733Y1045910D01*
X1054090Y1047267D01*
X1054697Y1048730D01*
D02*
G37*
G36*
X1048730D02*
X1045303D01*
X1045910Y1047267D01*
X1047267Y1045910D01*
X1048730Y1045303D01*
Y1048730D01*
D02*
G37*
G36*
X954697D02*
X951270D01*
Y1045303D01*
X952733Y1045910D01*
X954090Y1047267D01*
X954697Y1048730D01*
D02*
G37*
G36*
X948730D02*
X945303D01*
X945910Y1047267D01*
X947267Y1045910D01*
X948730Y1045303D01*
Y1048730D01*
D02*
G37*
G36*
X804697D02*
X801270D01*
Y1045303D01*
X802733Y1045910D01*
X804090Y1047267D01*
X804697Y1048730D01*
D02*
G37*
G36*
X798730D02*
X795303D01*
X795910Y1047267D01*
X797267Y1045910D01*
X798730Y1045303D01*
Y1048730D01*
D02*
G37*
G36*
X754697D02*
X751270D01*
Y1045303D01*
X752733Y1045910D01*
X754090Y1047267D01*
X754697Y1048730D01*
D02*
G37*
G36*
X748730D02*
X745303D01*
X745910Y1047267D01*
X747267Y1045910D01*
X748730Y1045303D01*
Y1048730D01*
D02*
G37*
G36*
X704697D02*
X701270D01*
Y1045303D01*
X702733Y1045910D01*
X704090Y1047267D01*
X704697Y1048730D01*
D02*
G37*
G36*
X698730D02*
X695303D01*
X695910Y1047267D01*
X697267Y1045910D01*
X698730Y1045303D01*
Y1048730D01*
D02*
G37*
G36*
X654697D02*
X651270D01*
Y1045303D01*
X652733Y1045910D01*
X654090Y1047267D01*
X654697Y1048730D01*
D02*
G37*
G36*
X648730D02*
X645303D01*
X645910Y1047267D01*
X647267Y1045910D01*
X648730Y1045303D01*
Y1048730D01*
D02*
G37*
G36*
X896628Y1045515D02*
X896576D01*
Y1036745D01*
X905346D01*
Y1036797D01*
X904662Y1039350D01*
X903340Y1041640D01*
X901471Y1043509D01*
X899181Y1044831D01*
X896628Y1045515D01*
D02*
G37*
G36*
X894036D02*
X893984D01*
X891431Y1044831D01*
X889141Y1043509D01*
X887272Y1041640D01*
X885950Y1039350D01*
X885266Y1036797D01*
Y1036745D01*
X894036D01*
Y1045515D01*
D02*
G37*
G36*
X905346Y1034205D02*
X896576D01*
Y1025435D01*
X896628D01*
X899181Y1026119D01*
X901471Y1027441D01*
X903340Y1029310D01*
X904662Y1031600D01*
X905346Y1034153D01*
Y1034205D01*
D02*
G37*
G36*
X894036D02*
X885266D01*
Y1034153D01*
X885950Y1031600D01*
X887272Y1029310D01*
X889141Y1027441D01*
X891431Y1026119D01*
X893984Y1025435D01*
X894036D01*
Y1034205D01*
D02*
G37*
G36*
X1159510Y1019428D02*
X1158046Y1018821D01*
X1157642Y1018417D01*
X1156335Y1017667D01*
X1155028Y1018417D01*
X1154624Y1018821D01*
X1153160Y1019428D01*
Y1014730D01*
Y1010032D01*
X1154624Y1010639D01*
X1155028Y1011043D01*
X1156335Y1011793D01*
X1157642Y1011043D01*
X1158046Y1010639D01*
X1159510Y1010032D01*
Y1014730D01*
Y1019428D01*
D02*
G37*
G36*
X1162050D02*
Y1016000D01*
X1165478D01*
X1164871Y1017464D01*
X1163514Y1018821D01*
X1162050Y1019428D01*
D02*
G37*
G36*
X1150620D02*
X1149156Y1018821D01*
X1147799Y1017464D01*
X1147192Y1016000D01*
X1150620D01*
Y1019428D01*
D02*
G37*
G36*
X1165478Y1013460D02*
X1162050D01*
Y1010032D01*
X1163514Y1010639D01*
X1164871Y1011996D01*
X1165478Y1013460D01*
D02*
G37*
G36*
X1150620D02*
X1147192D01*
X1147799Y1011996D01*
X1149156Y1010639D01*
X1150620Y1010032D01*
Y1013460D01*
D02*
G37*
G36*
X1247948Y1134364D02*
X1246332D01*
X1244838Y1133745D01*
X1243695Y1132602D01*
X1243076Y1131108D01*
Y1129492D01*
X1243695Y1127998D01*
X1244838Y1126855D01*
X1246332Y1126236D01*
X1247948D01*
X1248460Y1126448D01*
X1305234D01*
X1324857Y1106825D01*
X1324040Y1104825D01*
X1322267Y1104090D01*
X1320910Y1102733D01*
X1320304Y1101270D01*
X1325000D01*
Y1100000D01*
X1326270D01*
Y1095303D01*
X1327733Y1095910D01*
X1329091Y1097267D01*
X1329825Y1099040D01*
X1331825Y1099857D01*
X1407608Y1024074D01*
X1407149Y1023279D01*
X1406312Y1020156D01*
Y1016924D01*
X1407149Y1013801D01*
X1408765Y1011001D01*
X1411051Y1008715D01*
X1413851Y1007099D01*
X1416974Y1006262D01*
X1420206D01*
X1423329Y1007099D01*
X1426129Y1008715D01*
X1428415Y1011001D01*
X1430031Y1013801D01*
X1430868Y1016924D01*
Y1020156D01*
X1430031Y1023279D01*
X1428415Y1026079D01*
X1426129Y1028365D01*
X1423329Y1029981D01*
X1420206Y1030818D01*
X1416974D01*
X1413851Y1029981D01*
X1413056Y1029522D01*
X1309554Y1133024D01*
X1308304Y1133859D01*
X1306830Y1134152D01*
X1306830Y1134152D01*
X1248460D01*
X1247948Y1134364D01*
D02*
G37*
G36*
X1344006Y1030818D02*
X1340774D01*
X1337651Y1029981D01*
X1334851Y1028365D01*
X1332565Y1026079D01*
X1330949Y1023279D01*
X1330112Y1020156D01*
Y1016924D01*
X1330949Y1013801D01*
X1332565Y1011001D01*
X1334851Y1008715D01*
X1337651Y1007099D01*
X1340774Y1006262D01*
X1344006D01*
X1347129Y1007099D01*
X1349929Y1008715D01*
X1352215Y1011001D01*
X1353831Y1013801D01*
X1354668Y1016924D01*
Y1020156D01*
X1353831Y1023279D01*
X1352215Y1026079D01*
X1349929Y1028365D01*
X1347129Y1029981D01*
X1344006Y1030818D01*
D02*
G37*
G36*
X1326270Y1004697D02*
Y1001270D01*
X1329697D01*
X1329091Y1002733D01*
X1327733Y1004090D01*
X1326270Y1004697D01*
D02*
G37*
G36*
X1323730D02*
X1322267Y1004090D01*
X1320910Y1002733D01*
X1320304Y1001270D01*
X1323730D01*
Y1004697D01*
D02*
G37*
G36*
X1126270D02*
Y1001270D01*
X1129697D01*
X1129090Y1002733D01*
X1127733Y1004090D01*
X1126270Y1004697D01*
D02*
G37*
G36*
X1123730D02*
X1122267Y1004090D01*
X1120910Y1002733D01*
X1120304Y1001270D01*
X1123730D01*
Y1004697D01*
D02*
G37*
G36*
X976270D02*
Y1001270D01*
X979697D01*
X979090Y1002733D01*
X977733Y1004090D01*
X976270Y1004697D01*
D02*
G37*
G36*
X973730D02*
X972267Y1004090D01*
X970910Y1002733D01*
X970303Y1001270D01*
X973730D01*
Y1004697D01*
D02*
G37*
G36*
X926270D02*
Y1001270D01*
X929697D01*
X929090Y1002733D01*
X927733Y1004090D01*
X926270Y1004697D01*
D02*
G37*
G36*
X923730D02*
X922267Y1004090D01*
X920910Y1002733D01*
X920303Y1001270D01*
X923730D01*
Y1004697D01*
D02*
G37*
G36*
X876270D02*
Y1001270D01*
X879697D01*
X879090Y1002733D01*
X877733Y1004090D01*
X876270Y1004697D01*
D02*
G37*
G36*
X873730D02*
X872267Y1004090D01*
X870910Y1002733D01*
X870303Y1001270D01*
X873730D01*
Y1004697D01*
D02*
G37*
G36*
X726270D02*
Y1001270D01*
X729697D01*
X729090Y1002733D01*
X727733Y1004090D01*
X726270Y1004697D01*
D02*
G37*
G36*
X723730D02*
X722267Y1004090D01*
X720910Y1002733D01*
X720303Y1001270D01*
X723730D01*
Y1004697D01*
D02*
G37*
G36*
X676270D02*
Y1001270D01*
X679697D01*
X679090Y1002733D01*
X677733Y1004090D01*
X676270Y1004697D01*
D02*
G37*
G36*
X673730D02*
X672267Y1004090D01*
X670910Y1002733D01*
X670303Y1001270D01*
X673730D01*
Y1004697D01*
D02*
G37*
G36*
X626270D02*
Y1001270D01*
X629697D01*
X629090Y1002733D01*
X627733Y1004090D01*
X626270Y1004697D01*
D02*
G37*
G36*
X623730D02*
X622267Y1004090D01*
X620910Y1002733D01*
X620303Y1001270D01*
X623730D01*
Y1004697D01*
D02*
G37*
G36*
X511810Y999108D02*
X510346Y998501D01*
X509270Y997425D01*
X508194Y998501D01*
X506730Y999108D01*
Y994410D01*
Y989712D01*
X508194Y990319D01*
X509270Y991395D01*
X510346Y990319D01*
X511810Y989712D01*
Y994410D01*
Y999108D01*
D02*
G37*
G36*
X1092390Y1000507D02*
Y997079D01*
X1095818D01*
X1095211Y998543D01*
X1093854Y999900D01*
X1092390Y1000507D01*
D02*
G37*
G36*
X1089850D02*
X1088386Y999900D01*
X1087029Y998543D01*
X1086422Y997079D01*
X1089850D01*
Y1000507D01*
D02*
G37*
G36*
X514350Y999108D02*
Y995680D01*
X517778D01*
X517171Y997144D01*
X515814Y998501D01*
X514350Y999108D01*
D02*
G37*
G36*
X504190D02*
X502726Y998501D01*
X501369Y997144D01*
X500762Y995680D01*
X504190D01*
Y999108D01*
D02*
G37*
G36*
X1329697Y998730D02*
X1326270D01*
Y995303D01*
X1327733Y995910D01*
X1329091Y997267D01*
X1329697Y998730D01*
D02*
G37*
G36*
X1323730D02*
X1320304D01*
X1320910Y997267D01*
X1322267Y995910D01*
X1323730Y995303D01*
Y998730D01*
D02*
G37*
G36*
X1129697D02*
X1126270D01*
Y995303D01*
X1127733Y995910D01*
X1129090Y997267D01*
X1129697Y998730D01*
D02*
G37*
G36*
X1123730D02*
X1120304D01*
X1120910Y997267D01*
X1122267Y995910D01*
X1123730Y995303D01*
Y998730D01*
D02*
G37*
G36*
X979697D02*
X976270D01*
Y995303D01*
X977733Y995910D01*
X979090Y997267D01*
X979697Y998730D01*
D02*
G37*
G36*
X973730D02*
X970303D01*
X970910Y997267D01*
X972267Y995910D01*
X973730Y995303D01*
Y998730D01*
D02*
G37*
G36*
X929697D02*
X926270D01*
Y995303D01*
X927733Y995910D01*
X929090Y997267D01*
X929697Y998730D01*
D02*
G37*
G36*
X923730D02*
X920303D01*
X920910Y997267D01*
X922267Y995910D01*
X923730Y995303D01*
Y998730D01*
D02*
G37*
G36*
X879697D02*
X876270D01*
Y995303D01*
X877733Y995910D01*
X879090Y997267D01*
X879697Y998730D01*
D02*
G37*
G36*
X873730D02*
X870303D01*
X870910Y997267D01*
X872267Y995910D01*
X873730Y995303D01*
Y998730D01*
D02*
G37*
G36*
X729697D02*
X726270D01*
Y995303D01*
X727733Y995910D01*
X729090Y997267D01*
X729697Y998730D01*
D02*
G37*
G36*
X723730D02*
X720303D01*
X720910Y997267D01*
X722267Y995910D01*
X723730Y995303D01*
Y998730D01*
D02*
G37*
G36*
X679697D02*
X676270D01*
Y995303D01*
X677733Y995910D01*
X679090Y997267D01*
X679697Y998730D01*
D02*
G37*
G36*
X673730D02*
X670303D01*
X670910Y997267D01*
X672267Y995910D01*
X673730Y995303D01*
Y998730D01*
D02*
G37*
G36*
X629697D02*
X626270D01*
Y995303D01*
X627733Y995910D01*
X629090Y997267D01*
X629697Y998730D01*
D02*
G37*
G36*
X623730D02*
X620303D01*
X620910Y997267D01*
X622267Y995910D01*
X623730Y995303D01*
Y998730D01*
D02*
G37*
G36*
X1062990Y997838D02*
Y994410D01*
X1066418D01*
X1065811Y995874D01*
X1064454Y997231D01*
X1062990Y997838D01*
D02*
G37*
G36*
X1060450D02*
X1058986Y997231D01*
X1057629Y995874D01*
X1057022Y994410D01*
X1060450D01*
Y997838D01*
D02*
G37*
G36*
X1016984Y996568D02*
Y993140D01*
X1020412D01*
X1019805Y994604D01*
X1018448Y995961D01*
X1016984Y996568D01*
D02*
G37*
G36*
X1014444D02*
X1012980Y995961D01*
X1011623Y994604D01*
X1011016Y993140D01*
X1014444D01*
Y996568D01*
D02*
G37*
G36*
X1095818Y994539D02*
X1092390D01*
Y991112D01*
X1093854Y991718D01*
X1095211Y993075D01*
X1095818Y994539D01*
D02*
G37*
G36*
X1089850D02*
X1086422D01*
X1087029Y993075D01*
X1088386Y991718D01*
X1089850Y991112D01*
Y994539D01*
D02*
G37*
G36*
X517778Y993140D02*
X514350D01*
Y989712D01*
X515814Y990319D01*
X517171Y991676D01*
X517778Y993140D01*
D02*
G37*
G36*
X504190D02*
X500762D01*
X501369Y991676D01*
X502726Y990319D01*
X504190Y989712D01*
Y993140D01*
D02*
G37*
G36*
X1066418Y991870D02*
X1062990D01*
Y988442D01*
X1064454Y989049D01*
X1065811Y990406D01*
X1066418Y991870D01*
D02*
G37*
G36*
X1060450D02*
X1057022D01*
X1057629Y990406D01*
X1058986Y989049D01*
X1060450Y988442D01*
Y991870D01*
D02*
G37*
G36*
X1020412Y990600D02*
X1016984D01*
Y987172D01*
X1018448Y987779D01*
X1019805Y989136D01*
X1020412Y990600D01*
D02*
G37*
G36*
X1014444D02*
X1011016D01*
X1011623Y989136D01*
X1012980Y987779D01*
X1014444Y987172D01*
Y990600D01*
D02*
G37*
G36*
X864870Y985138D02*
Y981710D01*
X868298D01*
X867691Y983174D01*
X866334Y984531D01*
X864870Y985138D01*
D02*
G37*
G36*
X862330D02*
X860866Y984531D01*
X859509Y983174D01*
X858902Y981710D01*
X862330D01*
Y985138D01*
D02*
G37*
G36*
X868298Y979170D02*
X864870D01*
Y975742D01*
X866334Y976349D01*
X867691Y977706D01*
X868298Y979170D01*
D02*
G37*
G36*
X862330D02*
X858902D01*
X859509Y977706D01*
X860866Y976349D01*
X862330Y975742D01*
Y979170D01*
D02*
G37*
G36*
X1186180Y962278D02*
Y958850D01*
X1189608D01*
X1189001Y960314D01*
X1187644Y961671D01*
X1186180Y962278D01*
D02*
G37*
G36*
X1183640D02*
X1182176Y961671D01*
X1180819Y960314D01*
X1180212Y958850D01*
X1183640D01*
Y962278D01*
D02*
G37*
G36*
X1202690Y958468D02*
Y955040D01*
X1206118D01*
X1205511Y956504D01*
X1204154Y957861D01*
X1202690Y958468D01*
D02*
G37*
G36*
X1200150D02*
X1198686Y957861D01*
X1197329Y956504D01*
X1196722Y955040D01*
X1200150D01*
Y958468D01*
D02*
G37*
G36*
X1420206Y978748D02*
X1416974D01*
X1413851Y977911D01*
X1411051Y976295D01*
X1408765Y974009D01*
X1407149Y971209D01*
X1406312Y968086D01*
Y964854D01*
X1407149Y961731D01*
X1408765Y958931D01*
X1411051Y956645D01*
X1413851Y955029D01*
X1416974Y954192D01*
X1420206D01*
X1423329Y955029D01*
X1426129Y956645D01*
X1428415Y958931D01*
X1430031Y961731D01*
X1430868Y964854D01*
Y968086D01*
X1430031Y971209D01*
X1428415Y974009D01*
X1426129Y976295D01*
X1423329Y977911D01*
X1420206Y978748D01*
D02*
G37*
G36*
X1189608Y956310D02*
X1186180D01*
Y952882D01*
X1187644Y953489D01*
X1189001Y954846D01*
X1189608Y956310D01*
D02*
G37*
G36*
X1183640D02*
X1180212D01*
X1180819Y954846D01*
X1182176Y953489D01*
X1183640Y952882D01*
Y956310D01*
D02*
G37*
G36*
X1151270Y954697D02*
Y951270D01*
X1154697D01*
X1154090Y952733D01*
X1152733Y954090D01*
X1151270Y954697D01*
D02*
G37*
G36*
X1148730D02*
X1147267Y954090D01*
X1145910Y952733D01*
X1145304Y951270D01*
X1148730D01*
Y954697D01*
D02*
G37*
G36*
X851270D02*
Y951270D01*
X854697D01*
X854090Y952733D01*
X852733Y954090D01*
X851270Y954697D01*
D02*
G37*
G36*
X848730D02*
X847267Y954090D01*
X845910Y952733D01*
X845303Y951270D01*
X848730D01*
Y954697D01*
D02*
G37*
G36*
X801270D02*
Y951270D01*
X804697D01*
X804090Y952733D01*
X802733Y954090D01*
X801270Y954697D01*
D02*
G37*
G36*
X798730D02*
X797267Y954090D01*
X795910Y952733D01*
X795303Y951270D01*
X798730D01*
Y954697D01*
D02*
G37*
G36*
X751270D02*
Y951270D01*
X754697D01*
X754090Y952733D01*
X752733Y954090D01*
X751270Y954697D01*
D02*
G37*
G36*
X748730D02*
X747267Y954090D01*
X745910Y952733D01*
X745303Y951270D01*
X748730D01*
Y954697D01*
D02*
G37*
G36*
X701270D02*
Y951270D01*
X704697D01*
X704090Y952733D01*
X702733Y954090D01*
X701270Y954697D01*
D02*
G37*
G36*
X698730D02*
X697267Y954090D01*
X695910Y952733D01*
X695303Y951270D01*
X698730D01*
Y954697D01*
D02*
G37*
G36*
X651270D02*
Y951270D01*
X654697D01*
X654090Y952733D01*
X652733Y954090D01*
X651270Y954697D01*
D02*
G37*
G36*
X648730D02*
X647267Y954090D01*
X645910Y952733D01*
X645303Y951270D01*
X648730D01*
Y954697D01*
D02*
G37*
G36*
X601270D02*
Y951270D01*
X604697D01*
X604090Y952733D01*
X602733Y954090D01*
X601270Y954697D01*
D02*
G37*
G36*
X598730D02*
X597267Y954090D01*
X595910Y952733D01*
X595303Y951270D01*
X598730D01*
Y954697D01*
D02*
G37*
G36*
X896527Y968553D02*
X894084D01*
X891725Y967921D01*
X889609Y966699D01*
X887882Y964972D01*
X886660Y962856D01*
X886028Y960496D01*
Y958054D01*
X886660Y955694D01*
X887882Y953578D01*
X889609Y951851D01*
X891725Y950629D01*
X894084Y949997D01*
X896527D01*
X898887Y950629D01*
X901003Y951851D01*
X902730Y953578D01*
X903952Y955694D01*
X904584Y958054D01*
Y960496D01*
X903952Y962856D01*
X902730Y964972D01*
X901003Y966699D01*
X898887Y967921D01*
X896527Y968553D01*
D02*
G37*
G36*
X1206118Y952500D02*
X1202690D01*
Y949072D01*
X1204154Y949679D01*
X1205511Y951036D01*
X1206118Y952500D01*
D02*
G37*
G36*
X1200150D02*
X1196722D01*
X1197329Y951036D01*
X1198686Y949679D01*
X1200150Y949072D01*
Y952500D01*
D02*
G37*
G36*
X1154697Y948730D02*
X1151270D01*
Y945303D01*
X1152733Y945910D01*
X1154090Y947267D01*
X1154697Y948730D01*
D02*
G37*
G36*
X1148730D02*
X1145304D01*
X1145910Y947267D01*
X1147267Y945910D01*
X1148730Y945303D01*
Y948730D01*
D02*
G37*
G36*
X854697D02*
X851270D01*
Y945303D01*
X852733Y945910D01*
X854090Y947267D01*
X854697Y948730D01*
D02*
G37*
G36*
X848730D02*
X845303D01*
X845910Y947267D01*
X847267Y945910D01*
X848730Y945303D01*
Y948730D01*
D02*
G37*
G36*
X804697D02*
X801270D01*
Y945303D01*
X802733Y945910D01*
X804090Y947267D01*
X804697Y948730D01*
D02*
G37*
G36*
X798730D02*
X795303D01*
X795910Y947267D01*
X797267Y945910D01*
X798730Y945303D01*
Y948730D01*
D02*
G37*
G36*
X754697D02*
X751270D01*
Y945303D01*
X752733Y945910D01*
X754090Y947267D01*
X754697Y948730D01*
D02*
G37*
G36*
X748730D02*
X745303D01*
X745910Y947267D01*
X747267Y945910D01*
X748730Y945303D01*
Y948730D01*
D02*
G37*
G36*
X704697D02*
X701270D01*
Y945303D01*
X702733Y945910D01*
X704090Y947267D01*
X704697Y948730D01*
D02*
G37*
G36*
X698730D02*
X695303D01*
X695910Y947267D01*
X697267Y945910D01*
X698730Y945303D01*
Y948730D01*
D02*
G37*
G36*
X654697D02*
X651270D01*
Y945303D01*
X652733Y945910D01*
X654090Y947267D01*
X654697Y948730D01*
D02*
G37*
G36*
X648730D02*
X645303D01*
X645910Y947267D01*
X647267Y945910D01*
X648730Y945303D01*
Y948730D01*
D02*
G37*
G36*
X604697D02*
X601270D01*
Y945303D01*
X602733Y945910D01*
X604090Y947267D01*
X604697Y948730D01*
D02*
G37*
G36*
X598730D02*
X595303D01*
X595910Y947267D01*
X597267Y945910D01*
X598730Y945303D01*
Y948730D01*
D02*
G37*
G36*
X1344006Y953348D02*
X1340774D01*
X1337651Y952511D01*
X1334851Y950895D01*
X1332565Y948609D01*
X1330949Y945809D01*
X1330112Y942686D01*
Y939454D01*
X1330949Y936331D01*
X1332565Y933531D01*
X1334851Y931245D01*
X1337651Y929629D01*
X1340774Y928792D01*
X1344006D01*
X1347129Y929629D01*
X1349929Y931245D01*
X1352215Y933531D01*
X1353831Y936331D01*
X1354668Y939454D01*
Y942686D01*
X1353831Y945809D01*
X1352215Y948609D01*
X1349929Y950895D01*
X1347129Y952511D01*
X1344006Y953348D01*
D02*
G37*
G36*
X896527Y943153D02*
X894084D01*
X891725Y942521D01*
X889609Y941299D01*
X887882Y939572D01*
X886660Y937456D01*
X886028Y935096D01*
Y932654D01*
X886660Y930294D01*
X887882Y928178D01*
X889609Y926451D01*
X891725Y925229D01*
X894084Y924597D01*
X896527D01*
X898887Y925229D01*
X901003Y926451D01*
X902730Y928178D01*
X903952Y930294D01*
X904584Y932654D01*
Y935096D01*
X903952Y937456D01*
X902730Y939572D01*
X901003Y941299D01*
X898887Y942521D01*
X896527Y943153D01*
D02*
G37*
G36*
X511810Y921638D02*
X510346Y921031D01*
X509270Y919955D01*
X508194Y921031D01*
X506730Y921638D01*
Y916940D01*
Y912242D01*
X508194Y912849D01*
X509270Y913925D01*
X510346Y912849D01*
X511810Y912242D01*
Y916940D01*
Y921638D01*
D02*
G37*
G36*
X514350D02*
Y918210D01*
X517778D01*
X517171Y919674D01*
X515814Y921031D01*
X514350Y921638D01*
D02*
G37*
G36*
X504190D02*
X502726Y921031D01*
X501369Y919674D01*
X500762Y918210D01*
X504190D01*
Y921638D01*
D02*
G37*
G36*
X1480398Y941118D02*
X1455842D01*
Y916562D01*
X1480398D01*
Y941118D01*
D02*
G37*
G36*
X517778Y915670D02*
X514350D01*
Y912242D01*
X515814Y912849D01*
X517171Y914206D01*
X517778Y915670D01*
D02*
G37*
G36*
X504190D02*
X500762D01*
X501369Y914206D01*
X502726Y912849D01*
X504190Y912242D01*
Y915670D01*
D02*
G37*
G36*
X1326270Y904697D02*
Y901270D01*
X1329697D01*
X1329091Y902733D01*
X1327733Y904090D01*
X1326270Y904697D01*
D02*
G37*
G36*
X1323730D02*
X1322267Y904090D01*
X1320910Y902733D01*
X1320304Y901270D01*
X1323730D01*
Y904697D01*
D02*
G37*
G36*
X1276270D02*
Y901270D01*
X1279697D01*
X1279090Y902733D01*
X1277733Y904090D01*
X1276270Y904697D01*
D02*
G37*
G36*
X1273730D02*
X1272267Y904090D01*
X1270910Y902733D01*
X1270304Y901270D01*
X1273730D01*
Y904697D01*
D02*
G37*
G36*
X1226270D02*
Y901270D01*
X1229697D01*
X1229090Y902733D01*
X1227733Y904090D01*
X1226270Y904697D01*
D02*
G37*
G36*
X1223730D02*
X1222267Y904090D01*
X1220910Y902733D01*
X1220304Y901270D01*
X1223730D01*
Y904697D01*
D02*
G37*
G36*
X1176270D02*
Y901270D01*
X1179697D01*
X1179090Y902733D01*
X1177733Y904090D01*
X1176270Y904697D01*
D02*
G37*
G36*
X1173730D02*
X1172267Y904090D01*
X1170910Y902733D01*
X1170304Y901270D01*
X1173730D01*
Y904697D01*
D02*
G37*
G36*
X1126270D02*
Y901270D01*
X1129697D01*
X1129090Y902733D01*
X1127733Y904090D01*
X1126270Y904697D01*
D02*
G37*
G36*
X1123730D02*
X1122267Y904090D01*
X1120910Y902733D01*
X1120304Y901270D01*
X1123730D01*
Y904697D01*
D02*
G37*
G36*
X1076270D02*
Y901270D01*
X1079697D01*
X1079090Y902733D01*
X1077733Y904090D01*
X1076270Y904697D01*
D02*
G37*
G36*
X1073730D02*
X1072267Y904090D01*
X1070910Y902733D01*
X1070303Y901270D01*
X1073730D01*
Y904697D01*
D02*
G37*
G36*
X1026270D02*
Y901270D01*
X1029697D01*
X1029090Y902733D01*
X1027733Y904090D01*
X1026270Y904697D01*
D02*
G37*
G36*
X1023730D02*
X1022267Y904090D01*
X1020910Y902733D01*
X1020303Y901270D01*
X1023730D01*
Y904697D01*
D02*
G37*
G36*
X876270D02*
Y901270D01*
X879697D01*
X879090Y902733D01*
X877733Y904090D01*
X876270Y904697D01*
D02*
G37*
G36*
X873730D02*
X872267Y904090D01*
X870910Y902733D01*
X870303Y901270D01*
X873730D01*
Y904697D01*
D02*
G37*
G36*
X823730D02*
X822267Y904090D01*
X820910Y902733D01*
X820303Y901270D01*
X823730D01*
Y904697D01*
D02*
G37*
G36*
X726270D02*
Y901270D01*
X729697D01*
X729090Y902733D01*
X727733Y904090D01*
X726270Y904697D01*
D02*
G37*
G36*
X723730D02*
X722267Y904090D01*
X720910Y902733D01*
X720303Y901270D01*
X723730D01*
Y904697D01*
D02*
G37*
G36*
X676270D02*
Y901270D01*
X679697D01*
X679090Y902733D01*
X677733Y904090D01*
X676270Y904697D01*
D02*
G37*
G36*
X673730D02*
X672267Y904090D01*
X670910Y902733D01*
X670303Y901270D01*
X673730D01*
Y904697D01*
D02*
G37*
G36*
X576270D02*
Y901270D01*
X579697D01*
X579090Y902733D01*
X577733Y904090D01*
X576270Y904697D01*
D02*
G37*
G36*
X573730D02*
X572267Y904090D01*
X570910Y902733D01*
X570303Y901270D01*
X573730D01*
Y904697D01*
D02*
G37*
G36*
X823730Y898730D02*
X820303D01*
X820910Y897267D01*
X822267Y895910D01*
X823730Y895303D01*
Y898730D01*
D02*
G37*
G36*
X729697D02*
X726270D01*
Y895303D01*
X727733Y895910D01*
X729090Y897267D01*
X729697Y898730D01*
D02*
G37*
G36*
X723730D02*
X720303D01*
X720910Y897267D01*
X722267Y895910D01*
X723730Y895303D01*
Y898730D01*
D02*
G37*
G36*
X679697D02*
X676270D01*
Y895303D01*
X677733Y895910D01*
X679090Y897267D01*
X679697Y898730D01*
D02*
G37*
G36*
X673730D02*
X670303D01*
X670910Y897267D01*
X672267Y895910D01*
X673730Y895303D01*
Y898730D01*
D02*
G37*
G36*
X579697D02*
X576270D01*
Y895303D01*
X577733Y895910D01*
X579090Y897267D01*
X579697Y898730D01*
D02*
G37*
G36*
X573730D02*
X570303D01*
X570910Y897267D01*
X572267Y895910D01*
X573730Y895303D01*
Y898730D01*
D02*
G37*
G36*
X1329697D02*
X1326270D01*
Y895303D01*
X1327733Y895910D01*
X1329091Y897267D01*
X1329697Y898730D01*
D02*
G37*
G36*
X1323730D02*
X1320304D01*
X1320910Y897267D01*
X1322267Y895910D01*
X1323730Y895303D01*
Y898730D01*
D02*
G37*
G36*
X1279697D02*
X1276270D01*
Y895303D01*
X1277733Y895910D01*
X1279090Y897267D01*
X1279697Y898730D01*
D02*
G37*
G36*
X1273730D02*
X1270304D01*
X1270910Y897267D01*
X1272267Y895910D01*
X1273730Y895303D01*
Y898730D01*
D02*
G37*
G36*
X1229697D02*
X1226270D01*
Y895303D01*
X1227733Y895910D01*
X1229090Y897267D01*
X1229697Y898730D01*
D02*
G37*
G36*
X1223730D02*
X1220304D01*
X1220910Y897267D01*
X1222267Y895910D01*
X1223730Y895303D01*
Y898730D01*
D02*
G37*
G36*
X1179697D02*
X1176270D01*
Y895303D01*
X1177733Y895910D01*
X1179090Y897267D01*
X1179697Y898730D01*
D02*
G37*
G36*
X1173730D02*
X1170304D01*
X1170910Y897267D01*
X1172267Y895910D01*
X1173730Y895303D01*
Y898730D01*
D02*
G37*
G36*
X1129697D02*
X1126270D01*
Y895303D01*
X1127733Y895910D01*
X1129090Y897267D01*
X1129697Y898730D01*
D02*
G37*
G36*
X1123730D02*
X1120304D01*
X1120910Y897267D01*
X1122267Y895910D01*
X1123730Y895303D01*
Y898730D01*
D02*
G37*
G36*
X1079697D02*
X1076270D01*
Y895303D01*
X1077733Y895910D01*
X1079090Y897267D01*
X1079697Y898730D01*
D02*
G37*
G36*
X1073730D02*
X1070303D01*
X1070910Y897267D01*
X1072267Y895910D01*
X1073730Y895303D01*
Y898730D01*
D02*
G37*
G36*
X1029697D02*
X1026270D01*
Y895303D01*
X1027733Y895910D01*
X1029090Y897267D01*
X1029697Y898730D01*
D02*
G37*
G36*
X1023730D02*
X1020303D01*
X1020910Y897267D01*
X1022267Y895910D01*
X1023730Y895303D01*
Y898730D01*
D02*
G37*
G36*
X879697D02*
X876270D01*
Y895303D01*
X877733Y895910D01*
X879090Y897267D01*
X879697Y898730D01*
D02*
G37*
G36*
X873730D02*
X870303D01*
X870910Y897267D01*
X872267Y895910D01*
X873730Y895303D01*
Y898730D01*
D02*
G37*
G36*
X1420206Y902548D02*
X1416974D01*
X1413851Y901711D01*
X1411051Y900095D01*
X1408765Y897809D01*
X1407149Y895009D01*
X1406312Y891886D01*
Y888654D01*
X1407149Y885531D01*
X1408765Y882731D01*
X1411051Y880445D01*
X1413851Y878829D01*
X1416974Y877992D01*
X1420206D01*
X1423329Y878829D01*
X1426129Y880445D01*
X1428415Y882731D01*
X1430031Y885531D01*
X1430868Y888654D01*
Y891886D01*
X1430031Y895009D01*
X1428415Y897809D01*
X1426129Y900095D01*
X1423329Y901711D01*
X1420206Y902548D01*
D02*
G37*
G36*
X1469736Y891118D02*
X1466504D01*
X1463381Y890281D01*
X1460581Y888665D01*
X1458295Y886379D01*
X1456679Y883579D01*
X1455842Y880456D01*
Y877224D01*
X1456679Y874101D01*
X1458295Y871301D01*
X1460581Y869015D01*
X1463381Y867399D01*
X1466504Y866562D01*
X1469736D01*
X1472859Y867399D01*
X1475659Y869015D01*
X1477945Y871301D01*
X1479561Y874101D01*
X1480398Y877224D01*
Y880456D01*
X1479561Y883579D01*
X1477945Y886379D01*
X1475659Y888665D01*
X1472859Y890281D01*
X1469736Y891118D01*
D02*
G37*
G36*
X511810Y858138D02*
X510346Y857531D01*
X509270Y856455D01*
X508194Y857531D01*
X506730Y858138D01*
Y853440D01*
Y848742D01*
X508194Y849349D01*
X509270Y850425D01*
X510346Y849349D01*
X511810Y848742D01*
Y853440D01*
Y858138D01*
D02*
G37*
G36*
X514350D02*
Y854710D01*
X517778D01*
X517171Y856174D01*
X515814Y857531D01*
X514350Y858138D01*
D02*
G37*
G36*
X504190D02*
X502726Y857531D01*
X501369Y856174D01*
X500762Y854710D01*
X504190D01*
Y858138D01*
D02*
G37*
G36*
X1001270Y854697D02*
Y851270D01*
X1004697D01*
X1004090Y852733D01*
X1002733Y854090D01*
X1001270Y854697D01*
D02*
G37*
G36*
X998730D02*
X997267Y854090D01*
X995910Y852733D01*
X995303Y851270D01*
X998730D01*
Y854697D01*
D02*
G37*
G36*
X901270D02*
Y851270D01*
X904697D01*
X904090Y852733D01*
X902733Y854090D01*
X901270Y854697D01*
D02*
G37*
G36*
X898730D02*
X897267Y854090D01*
X895910Y852733D01*
X895303Y851270D01*
X898730D01*
Y854697D01*
D02*
G37*
G36*
X851270D02*
Y851270D01*
X854697D01*
X854090Y852733D01*
X852733Y854090D01*
X851270Y854697D01*
D02*
G37*
G36*
X848730D02*
X847267Y854090D01*
X845910Y852733D01*
X845303Y851270D01*
X848730D01*
Y854697D01*
D02*
G37*
G36*
X751270D02*
Y851270D01*
X754697D01*
X754090Y852733D01*
X752733Y854090D01*
X751270Y854697D01*
D02*
G37*
G36*
X748730D02*
X747267Y854090D01*
X745910Y852733D01*
X745303Y851270D01*
X748730D01*
Y854697D01*
D02*
G37*
G36*
X701270D02*
Y851270D01*
X704697D01*
X704090Y852733D01*
X702733Y854090D01*
X701270Y854697D01*
D02*
G37*
G36*
X698730D02*
X697267Y854090D01*
X695910Y852733D01*
X695303Y851270D01*
X698730D01*
Y854697D01*
D02*
G37*
G36*
X651270D02*
Y851270D01*
X654697D01*
X654090Y852733D01*
X652733Y854090D01*
X651270Y854697D01*
D02*
G37*
G36*
X648730D02*
X647267Y854090D01*
X645910Y852733D01*
X645303Y851270D01*
X648730D01*
Y854697D01*
D02*
G37*
G36*
X517778Y852170D02*
X514350D01*
Y848742D01*
X515814Y849349D01*
X517171Y850706D01*
X517778Y852170D01*
D02*
G37*
G36*
X504190D02*
X500762D01*
X501369Y850706D01*
X502726Y849349D01*
X504190Y848742D01*
Y852170D01*
D02*
G37*
G36*
X1004697Y848730D02*
X1001270D01*
Y845303D01*
X1002733Y845910D01*
X1004090Y847267D01*
X1004697Y848730D01*
D02*
G37*
G36*
X998730D02*
X995303D01*
X995910Y847267D01*
X997267Y845910D01*
X998730Y845303D01*
Y848730D01*
D02*
G37*
G36*
X904697D02*
X901270D01*
Y845303D01*
X902733Y845910D01*
X904090Y847267D01*
X904697Y848730D01*
D02*
G37*
G36*
X898730D02*
X895303D01*
X895910Y847267D01*
X897267Y845910D01*
X898730Y845303D01*
Y848730D01*
D02*
G37*
G36*
X854697D02*
X851270D01*
Y845303D01*
X852733Y845910D01*
X854090Y847267D01*
X854697Y848730D01*
D02*
G37*
G36*
X848730D02*
X845303D01*
X845910Y847267D01*
X847267Y845910D01*
X848730Y845303D01*
Y848730D01*
D02*
G37*
G36*
X754697D02*
X751270D01*
Y845303D01*
X752733Y845910D01*
X754090Y847267D01*
X754697Y848730D01*
D02*
G37*
G36*
X748730D02*
X745303D01*
X745910Y847267D01*
X747267Y845910D01*
X748730Y845303D01*
Y848730D01*
D02*
G37*
G36*
X704697D02*
X701270D01*
Y845303D01*
X702733Y845910D01*
X704090Y847267D01*
X704697Y848730D01*
D02*
G37*
G36*
X698730D02*
X695303D01*
X695910Y847267D01*
X697267Y845910D01*
X698730Y845303D01*
Y848730D01*
D02*
G37*
G36*
X654697D02*
X651270D01*
Y845303D01*
X652733Y845910D01*
X654090Y847267D01*
X654697Y848730D01*
D02*
G37*
G36*
X648730D02*
X645303D01*
X645910Y847267D01*
X647267Y845910D01*
X648730Y845303D01*
Y848730D01*
D02*
G37*
G36*
X727710Y847978D02*
Y844550D01*
X731138D01*
X730531Y846014D01*
X729174Y847371D01*
X727710Y847978D01*
D02*
G37*
G36*
X725170D02*
X723706Y847371D01*
X722349Y846014D01*
X721742Y844550D01*
X725170D01*
Y847978D01*
D02*
G37*
G36*
X1165657Y842890D02*
X1162230D01*
Y839462D01*
X1163693Y840069D01*
X1165051Y841426D01*
X1165657Y842890D01*
D02*
G37*
G36*
X731138Y842010D02*
X727710D01*
Y838582D01*
X729174Y839189D01*
X730531Y840546D01*
X731138Y842010D01*
D02*
G37*
G36*
X725170D02*
X721742D01*
X722349Y840546D01*
X723706Y839189D01*
X725170Y838582D01*
Y842010D01*
D02*
G37*
G36*
X896527Y1019353D02*
X894084D01*
X891725Y1018721D01*
X889609Y1017499D01*
X887882Y1015772D01*
X886660Y1013656D01*
X886028Y1011296D01*
Y1008854D01*
X886660Y1006494D01*
X887882Y1004378D01*
X889609Y1002651D01*
X891725Y1001429D01*
X894084Y1000797D01*
X896527D01*
X898887Y1001429D01*
X900108Y1002134D01*
X956001Y946241D01*
Y834325D01*
X954578Y833374D01*
X953733D01*
X952808Y834300D01*
Y894080D01*
Y906780D01*
Y930021D01*
X952808Y930021D01*
X952591Y931111D01*
X951974Y932035D01*
X951974Y932035D01*
X948545Y935464D01*
X948544Y935464D01*
X903572Y980436D01*
X903952Y981094D01*
X904584Y983454D01*
Y985896D01*
X903952Y988256D01*
X902730Y990372D01*
X901003Y992099D01*
X898887Y993321D01*
X896527Y993953D01*
X894084D01*
X891725Y993321D01*
X889609Y992099D01*
X887882Y990372D01*
X886660Y988256D01*
X886028Y985896D01*
Y983454D01*
X886660Y981094D01*
X887882Y978978D01*
X889609Y977251D01*
X891725Y976029D01*
X894084Y975397D01*
X896527D01*
X898887Y976029D01*
X899545Y976409D01*
X944517Y931436D01*
X944517Y931436D01*
X947112Y928841D01*
Y906780D01*
Y894080D01*
Y833120D01*
X947112Y833120D01*
X947329Y832030D01*
X947946Y831106D01*
X949706Y829347D01*
Y828502D01*
X950325Y827008D01*
X951468Y825865D01*
X952962Y825246D01*
X953402D01*
X954230Y823246D01*
X954135Y823150D01*
X953516Y821656D01*
Y820040D01*
X954135Y818546D01*
X955278Y817403D01*
X956772Y816784D01*
X958388D01*
X959882Y817403D01*
X961025Y818546D01*
X961644Y820040D01*
Y821656D01*
X961525Y821943D01*
X961697Y822805D01*
X961697Y822805D01*
Y947421D01*
X961697Y947421D01*
X961480Y948511D01*
X960863Y949435D01*
X903897Y1006400D01*
X903952Y1006494D01*
X904584Y1008854D01*
Y1011296D01*
X903952Y1013656D01*
X902730Y1015772D01*
X901003Y1017499D01*
X898887Y1018721D01*
X896527Y1019353D01*
D02*
G37*
G36*
X1084356Y835044D02*
X1084255D01*
X1081607Y834334D01*
X1079232Y832963D01*
X1077293Y831024D01*
X1075922Y828650D01*
X1075212Y826001D01*
Y825900D01*
X1084356D01*
Y835044D01*
D02*
G37*
G36*
X1469736Y841118D02*
X1466504D01*
X1463381Y840281D01*
X1460581Y838665D01*
X1458295Y836379D01*
X1456679Y833579D01*
X1455842Y830456D01*
Y827224D01*
X1456679Y824101D01*
X1458295Y821301D01*
X1460581Y819015D01*
X1463381Y817399D01*
X1466504Y816562D01*
X1469736D01*
X1472859Y817399D01*
X1475659Y819015D01*
X1477945Y821301D01*
X1479561Y824101D01*
X1480398Y827224D01*
Y830456D01*
X1479561Y833579D01*
X1477945Y836379D01*
X1475659Y838665D01*
X1472859Y840281D01*
X1469736Y841118D01*
D02*
G37*
G36*
X866140Y812418D02*
Y808990D01*
X869568D01*
X868961Y810454D01*
X867604Y811811D01*
X866140Y812418D01*
D02*
G37*
G36*
X863600D02*
X862136Y811811D01*
X860779Y810454D01*
X860172Y808990D01*
X863600D01*
Y812418D01*
D02*
G37*
G36*
X727710Y811148D02*
Y807720D01*
X731138D01*
X730531Y809184D01*
X729174Y810541D01*
X727710Y811148D01*
D02*
G37*
G36*
X725170D02*
X723706Y810541D01*
X722349Y809184D01*
X721742Y807720D01*
X725170D01*
Y811148D01*
D02*
G37*
G36*
X896979Y809767D02*
Y806340D01*
X900406D01*
X899800Y807803D01*
X898442Y809161D01*
X896979Y809767D01*
D02*
G37*
G36*
X869568Y806450D02*
X866140D01*
Y803022D01*
X867604Y803629D01*
X868961Y804986D01*
X869568Y806450D01*
D02*
G37*
G36*
X863600D02*
X860172D01*
X860779Y804986D01*
X862136Y803629D01*
X863600Y803022D01*
Y806450D01*
D02*
G37*
G36*
X731138Y805180D02*
X727710D01*
Y801752D01*
X729174Y802359D01*
X730531Y803716D01*
X731138Y805180D01*
D02*
G37*
G36*
X725170D02*
X721742D01*
X722349Y803716D01*
X723706Y802359D01*
X725170Y801752D01*
Y805180D01*
D02*
G37*
G36*
X1376270Y804697D02*
Y801270D01*
X1379697D01*
X1379091Y802733D01*
X1377733Y804090D01*
X1376270Y804697D01*
D02*
G37*
G36*
X1373730D02*
X1372267Y804090D01*
X1370910Y802733D01*
X1370304Y801270D01*
X1373730D01*
Y804697D01*
D02*
G37*
G36*
X1276270D02*
Y801270D01*
X1279697D01*
X1279090Y802733D01*
X1277733Y804090D01*
X1276270Y804697D01*
D02*
G37*
G36*
X1273730D02*
X1272267Y804090D01*
X1270910Y802733D01*
X1270304Y801270D01*
X1273730D01*
Y804697D01*
D02*
G37*
G36*
X1176270D02*
Y801270D01*
X1179697D01*
X1179090Y802733D01*
X1177733Y804090D01*
X1176270Y804697D01*
D02*
G37*
G36*
X1173730D02*
X1172267Y804090D01*
X1170910Y802733D01*
X1170304Y801270D01*
X1173730D01*
Y804697D01*
D02*
G37*
G36*
X976270D02*
Y801270D01*
X979697D01*
X979090Y802733D01*
X977733Y804090D01*
X976270Y804697D01*
D02*
G37*
G36*
X973730D02*
X972267Y804090D01*
X970910Y802733D01*
X970303Y801270D01*
X973730D01*
Y804697D01*
D02*
G37*
G36*
X823730D02*
X822267Y804090D01*
X820910Y802733D01*
X820303Y801270D01*
X823730D01*
Y804697D01*
D02*
G37*
G36*
X776270D02*
Y801270D01*
X779697D01*
X779090Y802733D01*
X777733Y804090D01*
X776270Y804697D01*
D02*
G37*
G36*
X773730D02*
X772267Y804090D01*
X770910Y802733D01*
X770303Y801270D01*
X773730D01*
Y804697D01*
D02*
G37*
G36*
X676270D02*
Y801270D01*
X679697D01*
X679090Y802733D01*
X677733Y804090D01*
X676270Y804697D01*
D02*
G37*
G36*
X673730D02*
X672267Y804090D01*
X670910Y802733D01*
X670303Y801270D01*
X673730D01*
Y804697D01*
D02*
G37*
G36*
X1379697Y798730D02*
X1376270D01*
Y795303D01*
X1377733Y795910D01*
X1379091Y797267D01*
X1379697Y798730D01*
D02*
G37*
G36*
X1373730D02*
X1370304D01*
X1370910Y797267D01*
X1372267Y795910D01*
X1373730Y795303D01*
Y798730D01*
D02*
G37*
G36*
X1279697D02*
X1276270D01*
Y795303D01*
X1277733Y795910D01*
X1279090Y797267D01*
X1279697Y798730D01*
D02*
G37*
G36*
X1273730D02*
X1270304D01*
X1270910Y797267D01*
X1272267Y795910D01*
X1273730Y795303D01*
Y798730D01*
D02*
G37*
G36*
X1179697D02*
X1176270D01*
Y795303D01*
X1177733Y795910D01*
X1179090Y797267D01*
X1179697Y798730D01*
D02*
G37*
G36*
X1173730D02*
X1170304D01*
X1170910Y797267D01*
X1172267Y795910D01*
X1173730Y795303D01*
Y798730D01*
D02*
G37*
G36*
X823730D02*
X820303D01*
X820910Y797267D01*
X822267Y795910D01*
X823730Y795303D01*
Y798730D01*
D02*
G37*
G36*
X779697D02*
X776270D01*
Y795303D01*
X777733Y795910D01*
X779090Y797267D01*
X779697Y798730D01*
D02*
G37*
G36*
X773730D02*
X770303D01*
X770910Y797267D01*
X772267Y795910D01*
X773730Y795303D01*
Y798730D01*
D02*
G37*
G36*
X679697D02*
X676270D01*
Y795303D01*
X677733Y795910D01*
X679090Y797267D01*
X679697Y798730D01*
D02*
G37*
G36*
X673730D02*
X670303D01*
X670910Y797267D01*
X672267Y795910D01*
X673730Y795303D01*
Y798730D01*
D02*
G37*
G36*
X850900Y797049D02*
Y793622D01*
X854327D01*
X853721Y795085D01*
X852363Y796443D01*
X850900Y797049D01*
D02*
G37*
G36*
X848360D02*
X846896Y796443D01*
X845538Y795085D01*
X844932Y793622D01*
X848360D01*
Y797049D01*
D02*
G37*
G36*
X1196340Y795908D02*
Y792480D01*
X1199768D01*
X1199161Y793944D01*
X1197804Y795301D01*
X1196340Y795908D01*
D02*
G37*
G36*
X1193800D02*
X1192336Y795301D01*
X1190979Y793944D01*
X1190372Y792480D01*
X1193800D01*
Y795908D01*
D02*
G37*
G36*
X509270Y792098D02*
X507806Y791491D01*
X507365Y791050D01*
X506924Y791491D01*
X505460Y792098D01*
Y787400D01*
Y782702D01*
X506924Y783309D01*
X507365Y783750D01*
X507806Y783309D01*
X509270Y782702D01*
Y787400D01*
Y792098D01*
D02*
G37*
G36*
X1209040D02*
Y788670D01*
X1212468D01*
X1211861Y790134D01*
X1210504Y791491D01*
X1209040Y792098D01*
D02*
G37*
G36*
X1206500D02*
X1205036Y791491D01*
X1203679Y790134D01*
X1203072Y788670D01*
X1206500D01*
Y792098D01*
D02*
G37*
G36*
X511810D02*
Y788670D01*
X515238D01*
X514631Y790134D01*
X513274Y791491D01*
X511810Y792098D01*
D02*
G37*
G36*
X502920D02*
X501456Y791491D01*
X500099Y790134D01*
X499492Y788670D01*
X502920D01*
Y792098D01*
D02*
G37*
G36*
X854327Y791081D02*
X850900D01*
Y787654D01*
X852363Y788260D01*
X853721Y789618D01*
X854327Y791081D01*
D02*
G37*
G36*
X848360D02*
X844932D01*
X845538Y789618D01*
X846896Y788260D01*
X848360Y787654D01*
Y791081D01*
D02*
G37*
G36*
X1199768Y789940D02*
X1196340D01*
Y786512D01*
X1197804Y787119D01*
X1199161Y788476D01*
X1199768Y789940D01*
D02*
G37*
G36*
X1193800D02*
X1190372D01*
X1190979Y788476D01*
X1192336Y787119D01*
X1193800Y786512D01*
Y789940D01*
D02*
G37*
G36*
X1034668Y788670D02*
X1031240D01*
Y785242D01*
X1032704Y785849D01*
X1034061Y787206D01*
X1034668Y788670D01*
D02*
G37*
G36*
X1212468Y786130D02*
X1209040D01*
Y782702D01*
X1210504Y783309D01*
X1211861Y784666D01*
X1212468Y786130D01*
D02*
G37*
G36*
X1206500D02*
X1203072D01*
X1203679Y784666D01*
X1205036Y783309D01*
X1206500Y782702D01*
Y786130D01*
D02*
G37*
G36*
X515238D02*
X511810D01*
Y782702D01*
X513274Y783309D01*
X514631Y784666D01*
X515238Y786130D01*
D02*
G37*
G36*
X502920D02*
X499492D01*
X500099Y784666D01*
X501456Y783309D01*
X502920Y782702D01*
Y786130D01*
D02*
G37*
G36*
X1242868Y962914D02*
X1241252D01*
X1239758Y962295D01*
X1238615Y961152D01*
X1237996Y959658D01*
Y958042D01*
X1238615Y956548D01*
X1239758Y955405D01*
X1241252Y954786D01*
X1242868D01*
X1243116Y954889D01*
X1246924D01*
X1407608Y794204D01*
X1407149Y793409D01*
X1406312Y790286D01*
Y787054D01*
X1407149Y783931D01*
X1408765Y781131D01*
X1411051Y778845D01*
X1413851Y777229D01*
X1416974Y776392D01*
X1420206D01*
X1423329Y777229D01*
X1426129Y778845D01*
X1428415Y781131D01*
X1430031Y783931D01*
X1430868Y787054D01*
Y790286D01*
X1430031Y793409D01*
X1428415Y796209D01*
X1426129Y798495D01*
X1423329Y800111D01*
X1420206Y800948D01*
X1416974D01*
X1413851Y800111D01*
X1413056Y799652D01*
X1251243Y961464D01*
X1249994Y962299D01*
X1248519Y962593D01*
X1248519Y962593D01*
X1243644D01*
X1242868Y962914D01*
D02*
G37*
G36*
X1269026Y870104D02*
X1147784D01*
X1144709Y869699D01*
X1141844Y868512D01*
X1139384Y866624D01*
X1097888Y825128D01*
X1096952Y825516D01*
X1096017Y826086D01*
X1095331Y828650D01*
X1093960Y831024D01*
X1092020Y832963D01*
X1089646Y834334D01*
X1086997Y835044D01*
X1086896D01*
Y824630D01*
X1085626D01*
Y823360D01*
X1075212D01*
Y823259D01*
X1075922Y820610D01*
X1077293Y818235D01*
X1079232Y816297D01*
X1081607Y814926D01*
X1084170Y814239D01*
X1084740Y813305D01*
X1085128Y812368D01*
X1079731Y806972D01*
X1079700Y806953D01*
X1077903Y805156D01*
X1077259Y804042D01*
X1076880Y803548D01*
X1076642Y802973D01*
X1076632Y802955D01*
X1076627Y802935D01*
X1075694Y800683D01*
X1075289Y797608D01*
X1075694Y794534D01*
X1076880Y791669D01*
X1078768Y789208D01*
X1081229Y787320D01*
X1084094Y786134D01*
X1087169Y785729D01*
X1090243Y786134D01*
X1093108Y787320D01*
X1095569Y789208D01*
X1149026Y842666D01*
X1151318Y842129D01*
X1151609Y841426D01*
X1152966Y840069D01*
X1154430Y839462D01*
Y844160D01*
X1156970D01*
Y839462D01*
X1158330Y840026D01*
X1159690Y839462D01*
Y844160D01*
X1160960D01*
Y845430D01*
X1165993D01*
X1166604Y846344D01*
X1264105D01*
X1331450Y779000D01*
X1333910Y777112D01*
X1336775Y775925D01*
X1339850Y775520D01*
X1342925Y775925D01*
X1344135Y776426D01*
X1347129Y777229D01*
X1349929Y778845D01*
X1352215Y781131D01*
X1353831Y783931D01*
X1354668Y787054D01*
Y790286D01*
X1353831Y793409D01*
X1352215Y796209D01*
X1349929Y798495D01*
X1347129Y800111D01*
X1344006Y800948D01*
X1343102D01*
X1277426Y866624D01*
X1274966Y868512D01*
X1272101Y869699D01*
X1269026Y870104D01*
D02*
G37*
G36*
X1043940Y767968D02*
Y764540D01*
X1047368D01*
X1046761Y766004D01*
X1045404Y767361D01*
X1043940Y767968D01*
D02*
G37*
G36*
X1041400D02*
X1039936Y767361D01*
X1038579Y766004D01*
X1037972Y764540D01*
X1041400D01*
Y767968D01*
D02*
G37*
G36*
X1086897Y783482D02*
X1084355D01*
X1081901Y782824D01*
X1079700Y781553D01*
X1077903Y779756D01*
X1076632Y777555D01*
X1075974Y775101D01*
Y772559D01*
X1076632Y770104D01*
X1077903Y767903D01*
X1079700Y766106D01*
X1081901Y764836D01*
X1084355Y764178D01*
X1086897D01*
X1089352Y764836D01*
X1091553Y766106D01*
X1093350Y767903D01*
X1094620Y770104D01*
X1095278Y772559D01*
Y775101D01*
X1094620Y777555D01*
X1093350Y779756D01*
X1091553Y781553D01*
X1089352Y782824D01*
X1086897Y783482D01*
D02*
G37*
G36*
X1047368Y762000D02*
X1043940D01*
Y758572D01*
X1045404Y759179D01*
X1046761Y760536D01*
X1047368Y762000D01*
D02*
G37*
G36*
X1041400D02*
X1037972D01*
X1038579Y760536D01*
X1039936Y759179D01*
X1041400Y758572D01*
Y762000D01*
D02*
G37*
G36*
X1351270Y754697D02*
Y751270D01*
X1354697D01*
X1354091Y752733D01*
X1352733Y754090D01*
X1351270Y754697D01*
D02*
G37*
G36*
X1348730D02*
X1347267Y754090D01*
X1345910Y752733D01*
X1345304Y751270D01*
X1348730D01*
Y754697D01*
D02*
G37*
G36*
X1201270D02*
Y751270D01*
X1204697D01*
X1204090Y752733D01*
X1202733Y754090D01*
X1201270Y754697D01*
D02*
G37*
G36*
X1198730D02*
X1197267Y754090D01*
X1195910Y752733D01*
X1195304Y751270D01*
X1198730D01*
Y754697D01*
D02*
G37*
G36*
X1151270D02*
Y751270D01*
X1154697D01*
X1154090Y752733D01*
X1152733Y754090D01*
X1151270Y754697D01*
D02*
G37*
G36*
X1148730D02*
X1147267Y754090D01*
X1145910Y752733D01*
X1145304Y751270D01*
X1148730D01*
Y754697D01*
D02*
G37*
G36*
X1001270D02*
Y751270D01*
X1004697D01*
X1004090Y752733D01*
X1002733Y754090D01*
X1001270Y754697D01*
D02*
G37*
G36*
X998730D02*
X997267Y754090D01*
X995910Y752733D01*
X995303Y751270D01*
X998730D01*
Y754697D01*
D02*
G37*
G36*
X1354697Y748730D02*
X1351270D01*
Y745303D01*
X1352733Y745910D01*
X1354091Y747267D01*
X1354697Y748730D01*
D02*
G37*
G36*
X1348730D02*
X1345304D01*
X1345910Y747267D01*
X1347267Y745910D01*
X1348730Y745303D01*
Y748730D01*
D02*
G37*
G36*
X1204697D02*
X1201270D01*
Y745303D01*
X1202733Y745910D01*
X1204090Y747267D01*
X1204697Y748730D01*
D02*
G37*
G36*
X1198730D02*
X1195304D01*
X1195910Y747267D01*
X1197267Y745910D01*
X1198730Y745303D01*
Y748730D01*
D02*
G37*
G36*
X1154697D02*
X1151270D01*
Y745303D01*
X1152733Y745910D01*
X1154090Y747267D01*
X1154697Y748730D01*
D02*
G37*
G36*
X1148730D02*
X1145304D01*
X1145910Y747267D01*
X1147267Y745910D01*
X1148730Y745303D01*
Y748730D01*
D02*
G37*
G36*
X1004697D02*
X1001270D01*
Y745303D01*
X1002733Y745910D01*
X1004090Y747267D01*
X1004697Y748730D01*
D02*
G37*
G36*
X998730D02*
X995303D01*
X995910Y747267D01*
X997267Y745910D01*
X998730Y745303D01*
Y748730D01*
D02*
G37*
G36*
X740410Y745108D02*
Y741680D01*
X743838D01*
X743231Y743144D01*
X741874Y744501D01*
X740410Y745108D01*
D02*
G37*
G36*
X737870D02*
X736406Y744501D01*
X735049Y743144D01*
X734442Y741680D01*
X737870D01*
Y745108D01*
D02*
G37*
G36*
X1095278Y758082D02*
X1075974D01*
Y738778D01*
X1095278D01*
Y758082D01*
D02*
G37*
G36*
X509270Y720978D02*
X507806Y720371D01*
X507365Y719930D01*
X506924Y720371D01*
X505460Y720978D01*
Y716280D01*
Y711582D01*
X506924Y712189D01*
X507365Y712630D01*
X507806Y712189D01*
X509270Y711582D01*
Y716280D01*
Y720978D01*
D02*
G37*
G36*
X1420206Y742528D02*
X1416974D01*
X1413851Y741691D01*
X1411051Y740075D01*
X1408765Y737789D01*
X1407149Y734989D01*
X1406312Y731866D01*
Y728634D01*
X1407149Y725511D01*
X1408765Y722711D01*
X1411051Y720425D01*
X1413851Y718809D01*
X1416974Y717972D01*
X1420206D01*
X1423329Y718809D01*
X1426129Y720425D01*
X1428415Y722711D01*
X1430031Y725511D01*
X1430868Y728634D01*
Y731866D01*
X1430031Y734989D01*
X1428415Y737789D01*
X1426129Y740075D01*
X1423329Y741691D01*
X1420206Y742528D01*
D02*
G37*
G36*
X511810Y720978D02*
Y717550D01*
X515238D01*
X514631Y719014D01*
X513274Y720371D01*
X511810Y720978D01*
D02*
G37*
G36*
X502920D02*
X501456Y720371D01*
X500099Y719014D01*
X499492Y717550D01*
X502920D01*
Y720978D01*
D02*
G37*
G36*
X515238Y715010D02*
X511810D01*
Y711582D01*
X513274Y712189D01*
X514631Y713546D01*
X515238Y715010D01*
D02*
G37*
G36*
X502920D02*
X499492D01*
X500099Y713546D01*
X501456Y712189D01*
X502920Y711582D01*
Y715010D01*
D02*
G37*
G36*
X821308Y712470D02*
X817880D01*
Y709042D01*
X819344Y709649D01*
X820701Y711006D01*
X821308Y712470D01*
D02*
G37*
G36*
X815340D02*
X811912D01*
X812519Y711006D01*
X813876Y709649D01*
X815340Y709042D01*
Y712470D01*
D02*
G37*
G36*
X739140Y710819D02*
Y707391D01*
X742567D01*
X741961Y708855D01*
X740603Y710212D01*
X739140Y710819D01*
D02*
G37*
G36*
X736600D02*
X735136Y710212D01*
X733779Y708855D01*
X733172Y707391D01*
X736600D01*
Y710819D01*
D02*
G37*
G36*
X1344006Y717128D02*
X1340774D01*
X1337651Y716291D01*
X1334851Y714675D01*
X1332565Y712389D01*
X1330949Y709589D01*
X1330112Y706466D01*
Y704540D01*
X1328112Y703712D01*
X1327733Y704090D01*
X1326270Y704697D01*
Y700000D01*
Y695303D01*
X1327733Y695910D01*
X1329091Y697267D01*
X1329588Y698468D01*
X1331454Y698816D01*
X1331717Y698780D01*
X1332565Y697311D01*
X1334851Y695025D01*
X1337651Y693409D01*
X1340774Y692572D01*
X1344006D01*
X1347129Y693409D01*
X1349929Y695025D01*
X1352215Y697311D01*
X1353831Y700111D01*
X1354668Y703234D01*
Y706466D01*
X1353831Y709589D01*
X1352215Y712389D01*
X1349929Y714675D01*
X1347129Y716291D01*
X1344006Y717128D01*
D02*
G37*
G36*
X742567Y704851D02*
X739140D01*
Y701423D01*
X740603Y702030D01*
X741961Y703387D01*
X742567Y704851D01*
D02*
G37*
G36*
X736600D02*
X733172D01*
X733779Y703387D01*
X735136Y702030D01*
X736600Y701423D01*
Y704851D01*
D02*
G37*
G36*
X1323730Y704697D02*
X1322267Y704090D01*
X1320910Y702733D01*
X1320304Y701270D01*
X1323730D01*
Y704697D01*
D02*
G37*
G36*
X1226270D02*
Y701270D01*
X1229697D01*
X1229090Y702733D01*
X1227733Y704090D01*
X1226270Y704697D01*
D02*
G37*
G36*
X1223730D02*
X1222267Y704090D01*
X1220910Y702733D01*
X1220304Y701270D01*
X1223730D01*
Y704697D01*
D02*
G37*
G36*
X1026270D02*
Y701270D01*
X1029697D01*
X1029090Y702733D01*
X1027733Y704090D01*
X1026270Y704697D01*
D02*
G37*
G36*
X1023730D02*
X1022267Y704090D01*
X1020910Y702733D01*
X1020303Y701270D01*
X1023730D01*
Y704697D01*
D02*
G37*
G36*
X776270D02*
Y701270D01*
X779697D01*
X779090Y702733D01*
X777733Y704090D01*
X776270Y704697D01*
D02*
G37*
G36*
X773730D02*
X772267Y704090D01*
X770910Y702733D01*
X770303Y701270D01*
X773730D01*
Y704697D01*
D02*
G37*
G36*
X576270D02*
Y701270D01*
X579697D01*
X579090Y702733D01*
X577733Y704090D01*
X576270Y704697D01*
D02*
G37*
G36*
X573730D02*
X572267Y704090D01*
X570910Y702733D01*
X570303Y701270D01*
X573730D01*
Y704697D01*
D02*
G37*
G36*
X1323730Y698730D02*
X1320304D01*
X1320910Y697267D01*
X1322267Y695910D01*
X1323730Y695303D01*
Y698730D01*
D02*
G37*
G36*
X1229697D02*
X1226270D01*
Y695303D01*
X1227733Y695910D01*
X1229090Y697267D01*
X1229697Y698730D01*
D02*
G37*
G36*
X1223730D02*
X1220304D01*
X1220910Y697267D01*
X1222267Y695910D01*
X1223730Y695303D01*
Y698730D01*
D02*
G37*
G36*
X1029697D02*
X1026270D01*
Y695303D01*
X1027733Y695910D01*
X1029090Y697267D01*
X1029697Y698730D01*
D02*
G37*
G36*
X1023730D02*
X1020303D01*
X1020910Y697267D01*
X1022267Y695910D01*
X1023730Y695303D01*
Y698730D01*
D02*
G37*
G36*
X779697D02*
X776270D01*
Y695303D01*
X777733Y695910D01*
X779090Y697267D01*
X779697Y698730D01*
D02*
G37*
G36*
X773730D02*
X770303D01*
X770910Y697267D01*
X772267Y695910D01*
X773730Y695303D01*
Y698730D01*
D02*
G37*
G36*
X579697D02*
X576270D01*
Y695303D01*
X577733Y695910D01*
X579090Y697267D01*
X579697Y698730D01*
D02*
G37*
G36*
X573730D02*
X570303D01*
X570910Y697267D01*
X572267Y695910D01*
X573730Y695303D01*
Y698730D01*
D02*
G37*
G36*
X707580Y704205D02*
X699580D01*
X697550Y703938D01*
X695657Y703154D01*
X694033Y701907D01*
X692786Y700282D01*
X692002Y698390D01*
X691735Y696360D01*
X692002Y694329D01*
X692786Y692437D01*
X694033Y690813D01*
X695657Y689566D01*
X697550Y688782D01*
X699580Y688515D01*
X707580D01*
X709611Y688782D01*
X711503Y689566D01*
X713127Y690813D01*
X714374Y692437D01*
X715158Y694329D01*
X715425Y696360D01*
X715158Y698390D01*
X714374Y700282D01*
X713127Y701907D01*
X711503Y703154D01*
X709611Y703938D01*
X707580Y704205D01*
D02*
G37*
G36*
X1164590Y685418D02*
X1163126Y684811D01*
X1162050Y683735D01*
X1160974Y684811D01*
X1159510Y685418D01*
Y680720D01*
Y676022D01*
X1160974Y676629D01*
X1162050Y677705D01*
X1163126Y676629D01*
X1164590Y676022D01*
Y680720D01*
Y685418D01*
D02*
G37*
G36*
X1480398Y706638D02*
X1455842D01*
Y682082D01*
X1480398D01*
Y706638D01*
D02*
G37*
G36*
X1167130Y685418D02*
Y681990D01*
X1170558D01*
X1169951Y683454D01*
X1168594Y684811D01*
X1167130Y685418D01*
D02*
G37*
G36*
X1156970D02*
X1155506Y684811D01*
X1154149Y683454D01*
X1153542Y681990D01*
X1156970D01*
Y685418D01*
D02*
G37*
G36*
X824230Y681608D02*
Y678180D01*
X827658D01*
X827051Y679644D01*
X825694Y681001D01*
X824230Y681608D01*
D02*
G37*
G36*
X821690D02*
X820226Y681001D01*
X818869Y679644D01*
X818262Y678180D01*
X821690D01*
Y681608D01*
D02*
G37*
G36*
X1170558Y679450D02*
X1167130D01*
Y676022D01*
X1168594Y676629D01*
X1169951Y677986D01*
X1170558Y679450D01*
D02*
G37*
G36*
X1156970D02*
X1153542D01*
X1154149Y677986D01*
X1155506Y676629D01*
X1156970Y676022D01*
Y679450D01*
D02*
G37*
G36*
X827658Y675640D02*
X824230D01*
Y672212D01*
X825694Y672819D01*
X827051Y674176D01*
X827658Y675640D01*
D02*
G37*
G36*
X821690D02*
X818262D01*
X818869Y674176D01*
X820226Y672819D01*
X821690Y672212D01*
Y675640D01*
D02*
G37*
G36*
X1351270Y654697D02*
Y651270D01*
X1354697D01*
X1354091Y652733D01*
X1352733Y654090D01*
X1351270Y654697D01*
D02*
G37*
G36*
X1348730D02*
X1347267Y654090D01*
X1345910Y652733D01*
X1345304Y651270D01*
X1348730D01*
Y654697D01*
D02*
G37*
G36*
X1301270D02*
Y651270D01*
X1304697D01*
X1304091Y652733D01*
X1302733Y654090D01*
X1301270Y654697D01*
D02*
G37*
G36*
X1298730D02*
X1297267Y654090D01*
X1295910Y652733D01*
X1295304Y651270D01*
X1298730D01*
Y654697D01*
D02*
G37*
G36*
X1201270D02*
Y651270D01*
X1204697D01*
X1204090Y652733D01*
X1202733Y654090D01*
X1201270Y654697D01*
D02*
G37*
G36*
X1198730D02*
X1197267Y654090D01*
X1195910Y652733D01*
X1195304Y651270D01*
X1198730D01*
Y654697D01*
D02*
G37*
G36*
X1151270D02*
Y651270D01*
X1154697D01*
X1154090Y652733D01*
X1152733Y654090D01*
X1151270Y654697D01*
D02*
G37*
G36*
X1148730D02*
X1147267Y654090D01*
X1145910Y652733D01*
X1145304Y651270D01*
X1148730D01*
Y654697D01*
D02*
G37*
G36*
X1101270D02*
Y651270D01*
X1104697D01*
X1104090Y652733D01*
X1102733Y654090D01*
X1101270Y654697D01*
D02*
G37*
G36*
X1098730D02*
X1097267Y654090D01*
X1095910Y652733D01*
X1095303Y651270D01*
X1098730D01*
Y654697D01*
D02*
G37*
G36*
X1051270D02*
Y651270D01*
X1054697D01*
X1054090Y652733D01*
X1052733Y654090D01*
X1051270Y654697D01*
D02*
G37*
G36*
X1048730D02*
X1047267Y654090D01*
X1045910Y652733D01*
X1045303Y651270D01*
X1048730D01*
Y654697D01*
D02*
G37*
G36*
X1001270D02*
Y651270D01*
X1004697D01*
X1004090Y652733D01*
X1002733Y654090D01*
X1001270Y654697D01*
D02*
G37*
G36*
X998730D02*
X997267Y654090D01*
X995910Y652733D01*
X995303Y651270D01*
X998730D01*
Y654697D01*
D02*
G37*
G36*
X951270D02*
Y651270D01*
X954697D01*
X954090Y652733D01*
X952733Y654090D01*
X951270Y654697D01*
D02*
G37*
G36*
X948730D02*
X947267Y654090D01*
X945910Y652733D01*
X945303Y651270D01*
X948730D01*
Y654697D01*
D02*
G37*
G36*
X801270D02*
Y651270D01*
X804697D01*
X804090Y652733D01*
X802733Y654090D01*
X801270Y654697D01*
D02*
G37*
G36*
X798730D02*
X797267Y654090D01*
X795910Y652733D01*
X795303Y651270D01*
X798730D01*
Y654697D01*
D02*
G37*
G36*
X751270D02*
Y651270D01*
X754697D01*
X754090Y652733D01*
X752733Y654090D01*
X751270Y654697D01*
D02*
G37*
G36*
X748730D02*
X747267Y654090D01*
X745910Y652733D01*
X745303Y651270D01*
X748730D01*
Y654697D01*
D02*
G37*
G36*
X701270D02*
Y651270D01*
X704697D01*
X704090Y652733D01*
X702733Y654090D01*
X701270Y654697D01*
D02*
G37*
G36*
X698730D02*
X697267Y654090D01*
X695910Y652733D01*
X695303Y651270D01*
X698730D01*
Y654697D01*
D02*
G37*
G36*
X551270D02*
Y651270D01*
X554697D01*
X554090Y652733D01*
X552733Y654090D01*
X551270Y654697D01*
D02*
G37*
G36*
X548730D02*
X547267Y654090D01*
X545910Y652733D01*
X545303Y651270D01*
X548730D01*
Y654697D01*
D02*
G37*
G36*
X501270D02*
Y651270D01*
X504697D01*
X504090Y652733D01*
X502733Y654090D01*
X501270Y654697D01*
D02*
G37*
G36*
X498730D02*
X497267Y654090D01*
X495910Y652733D01*
X495303Y651270D01*
X498730D01*
Y654697D01*
D02*
G37*
G36*
X650873Y654300D02*
Y650873D01*
X654300D01*
X653694Y652336D01*
X652336Y653694D01*
X650873Y654300D01*
D02*
G37*
G36*
X648333D02*
X646870Y653694D01*
X645513Y652336D01*
X644907Y650873D01*
X648333D01*
Y654300D01*
D02*
G37*
G36*
X804697Y648730D02*
X801270D01*
Y645303D01*
X802733Y645910D01*
X804090Y647267D01*
X804697Y648730D01*
D02*
G37*
G36*
X798730D02*
X795303D01*
X795910Y647267D01*
X797267Y645910D01*
X798730Y645303D01*
Y648730D01*
D02*
G37*
G36*
X754697D02*
X751270D01*
Y645303D01*
X752733Y645910D01*
X754090Y647267D01*
X754697Y648730D01*
D02*
G37*
G36*
X748730D02*
X745303D01*
X745910Y647267D01*
X747267Y645910D01*
X748730Y645303D01*
Y648730D01*
D02*
G37*
G36*
X704697D02*
X701270D01*
Y645303D01*
X702733Y645910D01*
X704090Y647267D01*
X704697Y648730D01*
D02*
G37*
G36*
X698730D02*
X695303D01*
X695910Y647267D01*
X697267Y645910D01*
X698730Y645303D01*
Y648730D01*
D02*
G37*
G36*
X554697D02*
X551270D01*
Y645303D01*
X552733Y645910D01*
X554090Y647267D01*
X554697Y648730D01*
D02*
G37*
G36*
X548730D02*
X545303D01*
X545910Y647267D01*
X547267Y645910D01*
X548730Y645303D01*
Y648730D01*
D02*
G37*
G36*
X504697D02*
X501270D01*
Y645303D01*
X502733Y645910D01*
X504090Y647267D01*
X504697Y648730D01*
D02*
G37*
G36*
X498730D02*
X495303D01*
X495910Y647267D01*
X497267Y645910D01*
X498730Y645303D01*
Y648730D01*
D02*
G37*
G36*
X1354697D02*
X1351270D01*
Y645303D01*
X1352733Y645910D01*
X1354091Y647267D01*
X1354697Y648730D01*
D02*
G37*
G36*
X1348730D02*
X1345304D01*
X1345910Y647267D01*
X1347267Y645910D01*
X1348730Y645303D01*
Y648730D01*
D02*
G37*
G36*
X1304697D02*
X1301270D01*
Y645303D01*
X1302733Y645910D01*
X1304091Y647267D01*
X1304697Y648730D01*
D02*
G37*
G36*
X1298730D02*
X1295304D01*
X1295910Y647267D01*
X1297267Y645910D01*
X1298730Y645303D01*
Y648730D01*
D02*
G37*
G36*
X1204697D02*
X1201270D01*
Y645303D01*
X1202733Y645910D01*
X1204090Y647267D01*
X1204697Y648730D01*
D02*
G37*
G36*
X1198730D02*
X1195304D01*
X1195910Y647267D01*
X1197267Y645910D01*
X1198730Y645303D01*
Y648730D01*
D02*
G37*
G36*
X1154697D02*
X1151270D01*
Y645303D01*
X1152733Y645910D01*
X1154090Y647267D01*
X1154697Y648730D01*
D02*
G37*
G36*
X1148730D02*
X1145304D01*
X1145910Y647267D01*
X1147267Y645910D01*
X1148730Y645303D01*
Y648730D01*
D02*
G37*
G36*
X1104697D02*
X1101270D01*
Y645303D01*
X1102733Y645910D01*
X1104090Y647267D01*
X1104697Y648730D01*
D02*
G37*
G36*
X1098730D02*
X1095303D01*
X1095910Y647267D01*
X1097267Y645910D01*
X1098730Y645303D01*
Y648730D01*
D02*
G37*
G36*
X1054697D02*
X1051270D01*
Y645303D01*
X1052733Y645910D01*
X1054090Y647267D01*
X1054697Y648730D01*
D02*
G37*
G36*
X1048730D02*
X1045303D01*
X1045910Y647267D01*
X1047267Y645910D01*
X1048730Y645303D01*
Y648730D01*
D02*
G37*
G36*
X1004697D02*
X1001270D01*
Y645303D01*
X1002733Y645910D01*
X1004090Y647267D01*
X1004697Y648730D01*
D02*
G37*
G36*
X998730D02*
X995303D01*
X995910Y647267D01*
X997267Y645910D01*
X998730Y645303D01*
Y648730D01*
D02*
G37*
G36*
X654300Y648333D02*
X650873D01*
Y644907D01*
X652336Y645513D01*
X653694Y646870D01*
X654300Y648333D01*
D02*
G37*
G36*
X648333D02*
X644907D01*
X645513Y646870D01*
X646870Y645513D01*
X648333Y644907D01*
Y648333D01*
D02*
G37*
G36*
X883920Y647700D02*
X880492D01*
X881099Y646236D01*
X882456Y644879D01*
X883920Y644272D01*
Y647700D01*
D02*
G37*
G36*
X1420206Y666328D02*
X1416974D01*
X1413851Y665491D01*
X1411051Y663875D01*
X1408765Y661589D01*
X1407149Y658789D01*
X1406312Y655666D01*
Y652434D01*
X1407149Y649311D01*
X1408765Y646511D01*
X1411051Y644225D01*
X1413851Y642609D01*
X1416974Y641772D01*
X1420206D01*
X1423329Y642609D01*
X1426129Y644225D01*
X1428415Y646511D01*
X1430031Y649311D01*
X1430868Y652434D01*
Y655666D01*
X1430031Y658789D01*
X1428415Y661589D01*
X1426129Y663875D01*
X1423329Y665491D01*
X1420206Y666328D01*
D02*
G37*
G36*
X1469736Y656638D02*
X1466504D01*
X1463381Y655801D01*
X1460581Y654185D01*
X1458295Y651899D01*
X1456679Y649099D01*
X1455842Y645976D01*
Y642744D01*
X1456679Y639621D01*
X1458295Y636821D01*
X1460581Y634535D01*
X1463381Y632919D01*
X1466504Y632082D01*
X1469736D01*
X1472859Y632919D01*
X1475659Y634535D01*
X1477945Y636821D01*
X1479561Y639621D01*
X1480398Y642744D01*
Y645976D01*
X1479561Y649099D01*
X1477945Y651899D01*
X1475659Y654185D01*
X1472859Y655801D01*
X1469736Y656638D01*
D02*
G37*
G36*
X1192530Y628268D02*
Y624840D01*
X1195958D01*
X1195351Y626304D01*
X1193994Y627661D01*
X1192530Y628268D01*
D02*
G37*
G36*
X1189990D02*
X1188526Y627661D01*
X1187169Y626304D01*
X1186562Y624840D01*
X1189990D01*
Y628268D01*
D02*
G37*
G36*
X1209040Y626998D02*
Y623570D01*
X1212468D01*
X1211861Y625034D01*
X1210504Y626391D01*
X1209040Y626998D01*
D02*
G37*
G36*
X1206500D02*
X1205036Y626391D01*
X1203679Y625034D01*
X1203072Y623570D01*
X1206500D01*
Y626998D01*
D02*
G37*
G36*
X894080D02*
Y623570D01*
X897508D01*
X896901Y625034D01*
X895544Y626391D01*
X894080Y626998D01*
D02*
G37*
G36*
X891540D02*
X890076Y626391D01*
X888719Y625034D01*
X888112Y623570D01*
X891540D01*
Y626998D01*
D02*
G37*
G36*
X955040Y625728D02*
Y622300D01*
X958468D01*
X957861Y623764D01*
X956504Y625121D01*
X955040Y625728D01*
D02*
G37*
G36*
X952500D02*
X951036Y625121D01*
X949679Y623764D01*
X949072Y622300D01*
X952500D01*
Y625728D01*
D02*
G37*
G36*
X1195958Y622300D02*
X1192530D01*
Y618872D01*
X1193994Y619479D01*
X1195351Y620836D01*
X1195958Y622300D01*
D02*
G37*
G36*
X1189990D02*
X1186562D01*
X1187169Y620836D01*
X1188526Y619479D01*
X1189990Y618872D01*
Y622300D01*
D02*
G37*
G36*
X1212468Y621030D02*
X1209040D01*
Y617602D01*
X1210504Y618209D01*
X1211861Y619566D01*
X1212468Y621030D01*
D02*
G37*
G36*
X1206500D02*
X1203072D01*
X1203679Y619566D01*
X1205036Y618209D01*
X1206500Y617602D01*
Y621030D01*
D02*
G37*
G36*
X897508D02*
X894080D01*
Y617602D01*
X895544Y618209D01*
X896901Y619566D01*
X897508Y621030D01*
D02*
G37*
G36*
X891540D02*
X888112D01*
X888719Y619566D01*
X890076Y618209D01*
X891540Y617602D01*
Y621030D01*
D02*
G37*
G36*
X970280Y619760D02*
X966852D01*
X967459Y618296D01*
X968816Y616939D01*
X970280Y616332D01*
Y619760D01*
D02*
G37*
G36*
X958468D02*
X955040D01*
Y616332D01*
X956504Y616939D01*
X957861Y618296D01*
X958468Y619760D01*
D02*
G37*
G36*
X952500D02*
X949072D01*
X949679Y618296D01*
X951036Y616939D01*
X952500Y616332D01*
Y619760D01*
D02*
G37*
G36*
X1326270Y604697D02*
Y601270D01*
X1329697D01*
X1329091Y602733D01*
X1327733Y604090D01*
X1326270Y604697D01*
D02*
G37*
G36*
X1323730D02*
X1322267Y604090D01*
X1320910Y602733D01*
X1320304Y601270D01*
X1323730D01*
Y604697D01*
D02*
G37*
G36*
X1226270D02*
Y601270D01*
X1229697D01*
X1229090Y602733D01*
X1227733Y604090D01*
X1226270Y604697D01*
D02*
G37*
G36*
X1223730D02*
X1222267Y604090D01*
X1220910Y602733D01*
X1220304Y601270D01*
X1223730D01*
Y604697D01*
D02*
G37*
G36*
X1176270D02*
Y601270D01*
X1179697D01*
X1179090Y602733D01*
X1177733Y604090D01*
X1176270Y604697D01*
D02*
G37*
G36*
X1173730D02*
X1172267Y604090D01*
X1170910Y602733D01*
X1170304Y601270D01*
X1173730D01*
Y604697D01*
D02*
G37*
G36*
X1126270D02*
Y601270D01*
X1129697D01*
X1129090Y602733D01*
X1127733Y604090D01*
X1126270Y604697D01*
D02*
G37*
G36*
X1123730D02*
X1122267Y604090D01*
X1120910Y602733D01*
X1120304Y601270D01*
X1123730D01*
Y604697D01*
D02*
G37*
G36*
X1076270D02*
Y601270D01*
X1079697D01*
X1079090Y602733D01*
X1077733Y604090D01*
X1076270Y604697D01*
D02*
G37*
G36*
X1073730D02*
X1072267Y604090D01*
X1070910Y602733D01*
X1070303Y601270D01*
X1073730D01*
Y604697D01*
D02*
G37*
G36*
X976270D02*
Y601270D01*
X979697D01*
X979090Y602733D01*
X977733Y604090D01*
X976270Y604697D01*
D02*
G37*
G36*
X973730D02*
X972267Y604090D01*
X970910Y602733D01*
X970303Y601270D01*
X973730D01*
Y604697D01*
D02*
G37*
G36*
X926270D02*
Y601270D01*
X929697D01*
X929090Y602733D01*
X927733Y604090D01*
X926270Y604697D01*
D02*
G37*
G36*
X923730D02*
X922267Y604090D01*
X920910Y602733D01*
X920303Y601270D01*
X923730D01*
Y604697D01*
D02*
G37*
G36*
X576270D02*
Y601270D01*
X579697D01*
X579090Y602733D01*
X577733Y604090D01*
X576270Y604697D01*
D02*
G37*
G36*
X573730D02*
X572267Y604090D01*
X570910Y602733D01*
X570303Y601270D01*
X573730D01*
Y604697D01*
D02*
G37*
G36*
X526270D02*
Y601270D01*
X529697D01*
X529090Y602733D01*
X527733Y604090D01*
X526270Y604697D01*
D02*
G37*
G36*
X523730D02*
X522267Y604090D01*
X520910Y602733D01*
X520303Y601270D01*
X523730D01*
Y604697D01*
D02*
G37*
G36*
X1329697Y598730D02*
X1326270D01*
Y595303D01*
X1327733Y595910D01*
X1329091Y597267D01*
X1329697Y598730D01*
D02*
G37*
G36*
X1323730D02*
X1320304D01*
X1320910Y597267D01*
X1322267Y595910D01*
X1323730Y595303D01*
Y598730D01*
D02*
G37*
G36*
X1229697D02*
X1226270D01*
Y595303D01*
X1227733Y595910D01*
X1229090Y597267D01*
X1229697Y598730D01*
D02*
G37*
G36*
X1223730D02*
X1220304D01*
X1220910Y597267D01*
X1222267Y595910D01*
X1223730Y595303D01*
Y598730D01*
D02*
G37*
G36*
X1179697D02*
X1176270D01*
Y595303D01*
X1177733Y595910D01*
X1179090Y597267D01*
X1179697Y598730D01*
D02*
G37*
G36*
X1173730D02*
X1170304D01*
X1170910Y597267D01*
X1172267Y595910D01*
X1173730Y595303D01*
Y598730D01*
D02*
G37*
G36*
X1129697D02*
X1126270D01*
Y595303D01*
X1127733Y595910D01*
X1129090Y597267D01*
X1129697Y598730D01*
D02*
G37*
G36*
X1123730D02*
X1120304D01*
X1120910Y597267D01*
X1122267Y595910D01*
X1123730Y595303D01*
Y598730D01*
D02*
G37*
G36*
X1079697D02*
X1076270D01*
Y595303D01*
X1077733Y595910D01*
X1079090Y597267D01*
X1079697Y598730D01*
D02*
G37*
G36*
X1073730D02*
X1070303D01*
X1070910Y597267D01*
X1072267Y595910D01*
X1073730Y595303D01*
Y598730D01*
D02*
G37*
G36*
X979697D02*
X976270D01*
Y595303D01*
X977733Y595910D01*
X979090Y597267D01*
X979697Y598730D01*
D02*
G37*
G36*
X973730D02*
X970303D01*
X970910Y597267D01*
X972267Y595910D01*
X973730Y595303D01*
Y598730D01*
D02*
G37*
G36*
X929697D02*
X926270D01*
Y595303D01*
X927733Y595910D01*
X929090Y597267D01*
X929697Y598730D01*
D02*
G37*
G36*
X923730D02*
X920303D01*
X920910Y597267D01*
X922267Y595910D01*
X923730Y595303D01*
Y598730D01*
D02*
G37*
G36*
X579697D02*
X576270D01*
Y595303D01*
X577733Y595910D01*
X579090Y597267D01*
X579697Y598730D01*
D02*
G37*
G36*
X573730D02*
X570303D01*
X570910Y597267D01*
X572267Y595910D01*
X573730Y595303D01*
Y598730D01*
D02*
G37*
G36*
X529697D02*
X526270D01*
Y595303D01*
X527733Y595910D01*
X529090Y597267D01*
X529697Y598730D01*
D02*
G37*
G36*
X523730D02*
X520303D01*
X520910Y597267D01*
X522267Y595910D01*
X523730Y595303D01*
Y598730D01*
D02*
G37*
G36*
X1469736Y606638D02*
X1466504D01*
X1463381Y605801D01*
X1460581Y604185D01*
X1458295Y601899D01*
X1456679Y599099D01*
X1455842Y595976D01*
Y592744D01*
X1456679Y589621D01*
X1458295Y586821D01*
X1460581Y584535D01*
X1463381Y582919D01*
X1466504Y582082D01*
X1469736D01*
X1472859Y582919D01*
X1475659Y584535D01*
X1477945Y586821D01*
X1479561Y589621D01*
X1480398Y592744D01*
Y595976D01*
X1479561Y599099D01*
X1477945Y601899D01*
X1475659Y604185D01*
X1472859Y605801D01*
X1469736Y606638D01*
D02*
G37*
G36*
X1201270Y554697D02*
Y551270D01*
X1204697D01*
X1204090Y552733D01*
X1202733Y554090D01*
X1201270Y554697D01*
D02*
G37*
G36*
X1198730D02*
X1197267Y554090D01*
X1195910Y552733D01*
X1195304Y551270D01*
X1198730D01*
Y554697D01*
D02*
G37*
G36*
X1151270D02*
Y551270D01*
X1154697D01*
X1154090Y552733D01*
X1152733Y554090D01*
X1151270Y554697D01*
D02*
G37*
G36*
X1148730D02*
X1147267Y554090D01*
X1145910Y552733D01*
X1145304Y551270D01*
X1148730D01*
Y554697D01*
D02*
G37*
G36*
X1051270D02*
Y551270D01*
X1054697D01*
X1054090Y552733D01*
X1052733Y554090D01*
X1051270Y554697D01*
D02*
G37*
G36*
X1048730D02*
X1047267Y554090D01*
X1045910Y552733D01*
X1045303Y551270D01*
X1048730D01*
Y554697D01*
D02*
G37*
G36*
X951270D02*
Y551270D01*
X954697D01*
X954090Y552733D01*
X952733Y554090D01*
X951270Y554697D01*
D02*
G37*
G36*
X948730D02*
X947267Y554090D01*
X945910Y552733D01*
X945303Y551270D01*
X948730D01*
Y554697D01*
D02*
G37*
G36*
X901270D02*
Y551270D01*
X904697D01*
X904090Y552733D01*
X902733Y554090D01*
X901270Y554697D01*
D02*
G37*
G36*
X898730D02*
X897267Y554090D01*
X895910Y552733D01*
X895303Y551270D01*
X898730D01*
Y554697D01*
D02*
G37*
G36*
X601270D02*
Y551270D01*
X604697D01*
X604090Y552733D01*
X602733Y554090D01*
X601270Y554697D01*
D02*
G37*
G36*
X598730D02*
X597267Y554090D01*
X595910Y552733D01*
X595303Y551270D01*
X598730D01*
Y554697D01*
D02*
G37*
G36*
X501270D02*
Y551270D01*
X504697D01*
X504090Y552733D01*
X502733Y554090D01*
X501270Y554697D01*
D02*
G37*
G36*
X498730D02*
X497267Y554090D01*
X495910Y552733D01*
X495303Y551270D01*
X498730D01*
Y554697D01*
D02*
G37*
G36*
X1101220Y554608D02*
Y551180D01*
X1104648D01*
X1104041Y552644D01*
X1102684Y554001D01*
X1101220Y554608D01*
D02*
G37*
G36*
X1098680D02*
X1097216Y554001D01*
X1095859Y552644D01*
X1095253Y551180D01*
X1098680D01*
Y554608D01*
D02*
G37*
G36*
X604697Y548730D02*
X601270D01*
Y545303D01*
X602733Y545910D01*
X604090Y547267D01*
X604697Y548730D01*
D02*
G37*
G36*
X598730D02*
X595303D01*
X595910Y547267D01*
X597267Y545910D01*
X598730Y545303D01*
Y548730D01*
D02*
G37*
G36*
X504697D02*
X501270D01*
Y545303D01*
X502733Y545910D01*
X504090Y547267D01*
X504697Y548730D01*
D02*
G37*
G36*
X498730D02*
X495303D01*
X495910Y547267D01*
X497267Y545910D01*
X498730Y545303D01*
Y548730D01*
D02*
G37*
G36*
X1204697D02*
X1201270D01*
Y545303D01*
X1202733Y545910D01*
X1204090Y547267D01*
X1204697Y548730D01*
D02*
G37*
G36*
X1198730D02*
X1195304D01*
X1195910Y547267D01*
X1197267Y545910D01*
X1198730Y545303D01*
Y548730D01*
D02*
G37*
G36*
X1154697D02*
X1151270D01*
Y545303D01*
X1152733Y545910D01*
X1154090Y547267D01*
X1154697Y548730D01*
D02*
G37*
G36*
X1148730D02*
X1145304D01*
X1145910Y547267D01*
X1147267Y545910D01*
X1148730Y545303D01*
Y548730D01*
D02*
G37*
G36*
X1054697D02*
X1051270D01*
Y545303D01*
X1052733Y545910D01*
X1054090Y547267D01*
X1054697Y548730D01*
D02*
G37*
G36*
X1048730D02*
X1045303D01*
X1045910Y547267D01*
X1047267Y545910D01*
X1048730Y545303D01*
Y548730D01*
D02*
G37*
G36*
X954697D02*
X951270D01*
Y545303D01*
X952733Y545910D01*
X954090Y547267D01*
X954697Y548730D01*
D02*
G37*
G36*
X948730D02*
X945303D01*
X945910Y547267D01*
X947267Y545910D01*
X948730Y545303D01*
Y548730D01*
D02*
G37*
G36*
X904697D02*
X901270D01*
Y545303D01*
X902733Y545910D01*
X904090Y547267D01*
X904697Y548730D01*
D02*
G37*
G36*
X898730D02*
X895303D01*
X895910Y547267D01*
X897267Y545910D01*
X898730Y545303D01*
Y548730D01*
D02*
G37*
G36*
X1104648Y548640D02*
X1101220D01*
Y545212D01*
X1102684Y545819D01*
X1104041Y547176D01*
X1104648Y548640D01*
D02*
G37*
G36*
X1098680D02*
X1095253D01*
X1095859Y547176D01*
X1097216Y545819D01*
X1098680Y545212D01*
Y548640D01*
D02*
G37*
G36*
X1007868Y555995D02*
X1007520D01*
Y544976D01*
X1018540D01*
Y545323D01*
X1017702Y548449D01*
X1016085Y551252D01*
X1013796Y553540D01*
X1010994Y555158D01*
X1007868Y555995D01*
D02*
G37*
G36*
X1004980D02*
X1004632D01*
X1001506Y555158D01*
X998704Y553540D01*
X996416Y551252D01*
X994798Y548449D01*
X993960Y545323D01*
Y544976D01*
X1004980D01*
Y555995D01*
D02*
G37*
G36*
X1251758Y792734D02*
X1250142D01*
X1248648Y792115D01*
X1247505Y790972D01*
X1246886Y789478D01*
Y787862D01*
X1247098Y787350D01*
Y720090D01*
X1247098Y720090D01*
X1247391Y718616D01*
X1248226Y717366D01*
X1407608Y557985D01*
X1407149Y557189D01*
X1406312Y554066D01*
Y550834D01*
X1407149Y547711D01*
X1408765Y544911D01*
X1411051Y542625D01*
X1413851Y541009D01*
X1416974Y540172D01*
X1420206D01*
X1423329Y541009D01*
X1426129Y542625D01*
X1428415Y544911D01*
X1430031Y547711D01*
X1430868Y550834D01*
Y554066D01*
X1430031Y557189D01*
X1428415Y559989D01*
X1426129Y562275D01*
X1423329Y563891D01*
X1420206Y564728D01*
X1416974D01*
X1413851Y563891D01*
X1413056Y563432D01*
X1254802Y721686D01*
Y787350D01*
X1255014Y787862D01*
Y789478D01*
X1254395Y790972D01*
X1253252Y792115D01*
X1251758Y792734D01*
D02*
G37*
G36*
X1344006Y564728D02*
X1340774D01*
X1337651Y563891D01*
X1334851Y562275D01*
X1332565Y559989D01*
X1330949Y557189D01*
X1330112Y554066D01*
Y550834D01*
X1330949Y547711D01*
X1332565Y544911D01*
X1334851Y542625D01*
X1337651Y541009D01*
X1340774Y540172D01*
X1344006D01*
X1347129Y541009D01*
X1349929Y542625D01*
X1352215Y544911D01*
X1353831Y547711D01*
X1354668Y550834D01*
Y554066D01*
X1353831Y557189D01*
X1352215Y559989D01*
X1349929Y562275D01*
X1347129Y563891D01*
X1344006Y564728D01*
D02*
G37*
G36*
X1101090Y539368D02*
Y535940D01*
X1104518D01*
X1103911Y537404D01*
X1102554Y538761D01*
X1101090Y539368D01*
D02*
G37*
G36*
X1098550D02*
X1097086Y538761D01*
X1095729Y537404D01*
X1095122Y535940D01*
X1098550D01*
Y539368D01*
D02*
G37*
G36*
X1018540Y542435D02*
X1007520D01*
Y531415D01*
X1007868D01*
X1010994Y532253D01*
X1013796Y533871D01*
X1016085Y536159D01*
X1017702Y538962D01*
X1018540Y542088D01*
Y542435D01*
D02*
G37*
G36*
X1004980D02*
X993960D01*
Y542088D01*
X994798Y538962D01*
X996416Y536159D01*
X998704Y533871D01*
X1001506Y532253D01*
X1004632Y531415D01*
X1004980D01*
Y542435D01*
D02*
G37*
G36*
X1104518Y533400D02*
X1101090D01*
Y529972D01*
X1102554Y530579D01*
X1103911Y531936D01*
X1104518Y533400D01*
D02*
G37*
G36*
X1098550D02*
X1095122D01*
X1095729Y531936D01*
X1097086Y530579D01*
X1098550Y529972D01*
Y533400D01*
D02*
G37*
G36*
X1094740Y517778D02*
Y514350D01*
X1098168D01*
X1097561Y515814D01*
X1096204Y517171D01*
X1094740Y517778D01*
D02*
G37*
G36*
X1107440Y513308D02*
Y509880D01*
X1110868D01*
X1110261Y511344D01*
X1108904Y512701D01*
X1107440Y513308D01*
D02*
G37*
G36*
X1104900D02*
X1103436Y512701D01*
X1102079Y511344D01*
X1101472Y509880D01*
X1104900D01*
Y513308D01*
D02*
G37*
G36*
X1120140Y512697D02*
Y509269D01*
X1123568D01*
X1122962Y510733D01*
X1121604Y512090D01*
X1120140Y512697D01*
D02*
G37*
G36*
X1117600D02*
X1116137Y512090D01*
X1114779Y510733D01*
X1114173Y509269D01*
X1117600D01*
Y512697D01*
D02*
G37*
G36*
X1110868Y507340D02*
X1107440D01*
Y503913D01*
X1108904Y504519D01*
X1110261Y505876D01*
X1110868Y507340D01*
D02*
G37*
G36*
X1104900D02*
X1101472D01*
X1102079Y505876D01*
X1103436Y504519D01*
X1104900Y503913D01*
Y507340D01*
D02*
G37*
G36*
X1123568Y506729D02*
X1120140D01*
Y503301D01*
X1121604Y503908D01*
X1122962Y505265D01*
X1123568Y506729D01*
D02*
G37*
G36*
X1117600D02*
X1114173D01*
X1114779Y505265D01*
X1116137Y503908D01*
X1117600Y503301D01*
Y506729D01*
D02*
G37*
G36*
X1326270Y504697D02*
Y501270D01*
X1329697D01*
X1329091Y502733D01*
X1327733Y504090D01*
X1326270Y504697D01*
D02*
G37*
G36*
X1323730D02*
X1322267Y504090D01*
X1320910Y502733D01*
X1320304Y501270D01*
X1323730D01*
Y504697D01*
D02*
G37*
G36*
X1226270D02*
Y501270D01*
X1229697D01*
X1229090Y502733D01*
X1227733Y504090D01*
X1226270Y504697D01*
D02*
G37*
G36*
X1223730D02*
X1222267Y504090D01*
X1220910Y502733D01*
X1220304Y501270D01*
X1223730D01*
Y504697D01*
D02*
G37*
G36*
X1176270D02*
Y501270D01*
X1179697D01*
X1179090Y502733D01*
X1177733Y504090D01*
X1176270Y504697D01*
D02*
G37*
G36*
X1173730D02*
X1172267Y504090D01*
X1170910Y502733D01*
X1170304Y501270D01*
X1173730D01*
Y504697D01*
D02*
G37*
G36*
X1026270D02*
Y501270D01*
X1029697D01*
X1029090Y502733D01*
X1027733Y504090D01*
X1026270Y504697D01*
D02*
G37*
G36*
X1023730D02*
X1022267Y504090D01*
X1020910Y502733D01*
X1020303Y501270D01*
X1023730D01*
Y504697D01*
D02*
G37*
G36*
X976270D02*
Y501270D01*
X979697D01*
X979090Y502733D01*
X977733Y504090D01*
X976270Y504697D01*
D02*
G37*
G36*
X973730D02*
X972267Y504090D01*
X970910Y502733D01*
X970303Y501270D01*
X973730D01*
Y504697D01*
D02*
G37*
G36*
X926270D02*
Y501270D01*
X929697D01*
X929090Y502733D01*
X927733Y504090D01*
X926270Y504697D01*
D02*
G37*
G36*
X923730D02*
X922267Y504090D01*
X920910Y502733D01*
X920303Y501270D01*
X923730D01*
Y504697D01*
D02*
G37*
G36*
X876270D02*
Y501270D01*
X879697D01*
X879090Y502733D01*
X877733Y504090D01*
X876270Y504697D01*
D02*
G37*
G36*
X873730D02*
X872267Y504090D01*
X870910Y502733D01*
X870303Y501270D01*
X873730D01*
Y504697D01*
D02*
G37*
G36*
X826270D02*
Y501270D01*
X829697D01*
X829090Y502733D01*
X827733Y504090D01*
X826270Y504697D01*
D02*
G37*
G36*
X823730D02*
X822267Y504090D01*
X820910Y502733D01*
X820303Y501270D01*
X823730D01*
Y504697D01*
D02*
G37*
G36*
X776270D02*
Y501270D01*
X779697D01*
X779090Y502733D01*
X777733Y504090D01*
X776270Y504697D01*
D02*
G37*
G36*
X773730D02*
X772267Y504090D01*
X770910Y502733D01*
X770303Y501270D01*
X773730D01*
Y504697D01*
D02*
G37*
G36*
X726270D02*
Y501270D01*
X729697D01*
X729090Y502733D01*
X727733Y504090D01*
X726270Y504697D01*
D02*
G37*
G36*
X723730D02*
X722267Y504090D01*
X720910Y502733D01*
X720303Y501270D01*
X723730D01*
Y504697D01*
D02*
G37*
G36*
X676270D02*
Y501270D01*
X679697D01*
X679090Y502733D01*
X677733Y504090D01*
X676270Y504697D01*
D02*
G37*
G36*
X673730D02*
X672267Y504090D01*
X670910Y502733D01*
X670303Y501270D01*
X673730D01*
Y504697D01*
D02*
G37*
G36*
X626270D02*
Y501270D01*
X629697D01*
X629090Y502733D01*
X627733Y504090D01*
X626270Y504697D01*
D02*
G37*
G36*
X623730D02*
X622267Y504090D01*
X620910Y502733D01*
X620303Y501270D01*
X623730D01*
Y504697D01*
D02*
G37*
G36*
X576270D02*
Y501270D01*
X579697D01*
X579090Y502733D01*
X577733Y504090D01*
X576270Y504697D01*
D02*
G37*
G36*
X573730D02*
X572267Y504090D01*
X570910Y502733D01*
X570303Y501270D01*
X573730D01*
Y504697D01*
D02*
G37*
G36*
X1098168Y501650D02*
X1094740D01*
Y498222D01*
X1096204Y498829D01*
X1097561Y500186D01*
X1098168Y501650D01*
D02*
G37*
G36*
X1087120D02*
X1083692D01*
X1084299Y500186D01*
X1085656Y498829D01*
X1087120Y498222D01*
Y501650D01*
D02*
G37*
G36*
X1329697Y498730D02*
X1326270D01*
Y495303D01*
X1327733Y495910D01*
X1329091Y497267D01*
X1329697Y498730D01*
D02*
G37*
G36*
X1323730D02*
X1320304D01*
X1320910Y497267D01*
X1322267Y495910D01*
X1323730Y495303D01*
Y498730D01*
D02*
G37*
G36*
X1229697D02*
X1226270D01*
Y495303D01*
X1227733Y495910D01*
X1229090Y497267D01*
X1229697Y498730D01*
D02*
G37*
G36*
X1223730D02*
X1220304D01*
X1220910Y497267D01*
X1222267Y495910D01*
X1223730Y495303D01*
Y498730D01*
D02*
G37*
G36*
X1179697D02*
X1176270D01*
Y495303D01*
X1177733Y495910D01*
X1179090Y497267D01*
X1179697Y498730D01*
D02*
G37*
G36*
X1173730D02*
X1170304D01*
X1170910Y497267D01*
X1172267Y495910D01*
X1173730Y495303D01*
Y498730D01*
D02*
G37*
G36*
X1029697D02*
X1026270D01*
Y495303D01*
X1027733Y495910D01*
X1029090Y497267D01*
X1029697Y498730D01*
D02*
G37*
G36*
X1023730D02*
X1020303D01*
X1020910Y497267D01*
X1022267Y495910D01*
X1023730Y495303D01*
Y498730D01*
D02*
G37*
G36*
X979697D02*
X976270D01*
Y495303D01*
X977733Y495910D01*
X979090Y497267D01*
X979697Y498730D01*
D02*
G37*
G36*
X973730D02*
X970303D01*
X970910Y497267D01*
X972267Y495910D01*
X973730Y495303D01*
Y498730D01*
D02*
G37*
G36*
X929697D02*
X926270D01*
Y495303D01*
X927733Y495910D01*
X929090Y497267D01*
X929697Y498730D01*
D02*
G37*
G36*
X923730D02*
X920303D01*
X920910Y497267D01*
X922267Y495910D01*
X923730Y495303D01*
Y498730D01*
D02*
G37*
G36*
X879697D02*
X876270D01*
Y495303D01*
X877733Y495910D01*
X879090Y497267D01*
X879697Y498730D01*
D02*
G37*
G36*
X873730D02*
X870303D01*
X870910Y497267D01*
X872267Y495910D01*
X873730Y495303D01*
Y498730D01*
D02*
G37*
G36*
X829697D02*
X826270D01*
Y495303D01*
X827733Y495910D01*
X829090Y497267D01*
X829697Y498730D01*
D02*
G37*
G36*
X823730D02*
X820303D01*
X820910Y497267D01*
X822267Y495910D01*
X823730Y495303D01*
Y498730D01*
D02*
G37*
G36*
X779697D02*
X776270D01*
Y495303D01*
X777733Y495910D01*
X779090Y497267D01*
X779697Y498730D01*
D02*
G37*
G36*
X773730D02*
X770303D01*
X770910Y497267D01*
X772267Y495910D01*
X773730Y495303D01*
Y498730D01*
D02*
G37*
G36*
X729697D02*
X726270D01*
Y495303D01*
X727733Y495910D01*
X729090Y497267D01*
X729697Y498730D01*
D02*
G37*
G36*
X723730D02*
X720303D01*
X720910Y497267D01*
X722267Y495910D01*
X723730Y495303D01*
Y498730D01*
D02*
G37*
G36*
X679697D02*
X676270D01*
Y495303D01*
X677733Y495910D01*
X679090Y497267D01*
X679697Y498730D01*
D02*
G37*
G36*
X673730D02*
X670303D01*
X670910Y497267D01*
X672267Y495910D01*
X673730Y495303D01*
Y498730D01*
D02*
G37*
G36*
X629697D02*
X626270D01*
Y495303D01*
X627733Y495910D01*
X629090Y497267D01*
X629697Y498730D01*
D02*
G37*
G36*
X623730D02*
X620303D01*
X620910Y497267D01*
X622267Y495910D01*
X623730Y495303D01*
Y498730D01*
D02*
G37*
G36*
X579697D02*
X576270D01*
Y495303D01*
X577733Y495910D01*
X579090Y497267D01*
X579697Y498730D01*
D02*
G37*
G36*
X573730D02*
X570303D01*
X570910Y497267D01*
X572267Y495910D01*
X573730Y495303D01*
Y498730D01*
D02*
G37*
G36*
X1417667Y498688D02*
X1414434D01*
X1411311Y497851D01*
X1408511Y496235D01*
X1406225Y493949D01*
X1404609Y491149D01*
X1403772Y488026D01*
Y484794D01*
X1404609Y481671D01*
X1406225Y478871D01*
X1408511Y476585D01*
X1411311Y474969D01*
X1414434Y474132D01*
X1417667D01*
X1420789Y474969D01*
X1423589Y476585D01*
X1425875Y478871D01*
X1427491Y481671D01*
X1428328Y484794D01*
Y488026D01*
X1427491Y491149D01*
X1425875Y493949D01*
X1423589Y496235D01*
X1420789Y497851D01*
X1417667Y498688D01*
D02*
G37*
G36*
X1101090Y477138D02*
Y473710D01*
X1104518D01*
X1103911Y475174D01*
X1102554Y476531D01*
X1101090Y477138D01*
D02*
G37*
G36*
X1098550D02*
X1097086Y476531D01*
X1095729Y475174D01*
X1095122Y473710D01*
X1098550D01*
Y477138D01*
D02*
G37*
G36*
X519776Y497088D02*
X516544D01*
X513421Y496251D01*
X510621Y494635D01*
X508335Y492349D01*
X506719Y489549D01*
X505882Y486426D01*
Y483194D01*
X506719Y480071D01*
X508335Y477271D01*
X510621Y474985D01*
X513421Y473369D01*
X516544Y472532D01*
X519776D01*
X522899Y473369D01*
X525699Y474985D01*
X527985Y477271D01*
X529601Y480071D01*
X530438Y483194D01*
Y486426D01*
X529601Y489549D01*
X527985Y492349D01*
X525699Y494635D01*
X522899Y496251D01*
X519776Y497088D01*
D02*
G37*
G36*
X1104518Y471170D02*
X1101090D01*
Y467742D01*
X1102554Y468349D01*
X1103911Y469706D01*
X1104518Y471170D01*
D02*
G37*
G36*
X1098550D02*
X1095122D01*
X1095729Y469706D01*
X1097086Y468349D01*
X1098550Y467742D01*
Y471170D01*
D02*
G37*
G36*
X592778Y481233D02*
X569722D01*
Y458177D01*
X592778D01*
Y481233D01*
D02*
G37*
G36*
X1111250Y455548D02*
Y452120D01*
X1114678D01*
X1114071Y453584D01*
X1112714Y454941D01*
X1111250Y455548D01*
D02*
G37*
G36*
X1108710D02*
X1107246Y454941D01*
X1105889Y453584D01*
X1105282Y452120D01*
X1108710D01*
Y455548D01*
D02*
G37*
G36*
X1301270Y454697D02*
Y451270D01*
X1304697D01*
X1304091Y452733D01*
X1302733Y454090D01*
X1301270Y454697D01*
D02*
G37*
G36*
X1298730D02*
X1297267Y454090D01*
X1295910Y452733D01*
X1295304Y451270D01*
X1298730D01*
Y454697D01*
D02*
G37*
G36*
X1251270D02*
Y451270D01*
X1254697D01*
X1254090Y452733D01*
X1252733Y454090D01*
X1251270Y454697D01*
D02*
G37*
G36*
X1248730D02*
X1247267Y454090D01*
X1245910Y452733D01*
X1245304Y451270D01*
X1248730D01*
Y454697D01*
D02*
G37*
G36*
X1201270D02*
Y451270D01*
X1204697D01*
X1204090Y452733D01*
X1202733Y454090D01*
X1201270Y454697D01*
D02*
G37*
G36*
X1198730D02*
X1197267Y454090D01*
X1195910Y452733D01*
X1195304Y451270D01*
X1198730D01*
Y454697D01*
D02*
G37*
G36*
X1051270D02*
Y451270D01*
X1054697D01*
X1054090Y452733D01*
X1052733Y454090D01*
X1051270Y454697D01*
D02*
G37*
G36*
X1048730D02*
X1047267Y454090D01*
X1045910Y452733D01*
X1045303Y451270D01*
X1048730D01*
Y454697D01*
D02*
G37*
G36*
X1001270D02*
Y451270D01*
X1004697D01*
X1004090Y452733D01*
X1002733Y454090D01*
X1001270Y454697D01*
D02*
G37*
G36*
X998730D02*
X997267Y454090D01*
X995910Y452733D01*
X995303Y451270D01*
X998730D01*
Y454697D01*
D02*
G37*
G36*
X951270D02*
Y451270D01*
X954697D01*
X954090Y452733D01*
X952733Y454090D01*
X951270Y454697D01*
D02*
G37*
G36*
X948730D02*
X947267Y454090D01*
X945910Y452733D01*
X945303Y451270D01*
X948730D01*
Y454697D01*
D02*
G37*
G36*
X901270D02*
Y451270D01*
X904697D01*
X904090Y452733D01*
X902733Y454090D01*
X901270Y454697D01*
D02*
G37*
G36*
X898730D02*
X897267Y454090D01*
X895910Y452733D01*
X895303Y451270D01*
X898730D01*
Y454697D01*
D02*
G37*
G36*
X851270D02*
Y451270D01*
X854697D01*
X854090Y452733D01*
X852733Y454090D01*
X851270Y454697D01*
D02*
G37*
G36*
X848730D02*
X847267Y454090D01*
X845910Y452733D01*
X845303Y451270D01*
X848730D01*
Y454697D01*
D02*
G37*
G36*
X801270D02*
Y451270D01*
X804697D01*
X804090Y452733D01*
X802733Y454090D01*
X801270Y454697D01*
D02*
G37*
G36*
X798730D02*
X797267Y454090D01*
X795910Y452733D01*
X795303Y451270D01*
X798730D01*
Y454697D01*
D02*
G37*
G36*
X751270D02*
Y451270D01*
X754697D01*
X754090Y452733D01*
X752733Y454090D01*
X751270Y454697D01*
D02*
G37*
G36*
X748730D02*
X747267Y454090D01*
X745910Y452733D01*
X745303Y451270D01*
X748730D01*
Y454697D01*
D02*
G37*
G36*
X701270D02*
Y451270D01*
X704697D01*
X704090Y452733D01*
X702733Y454090D01*
X701270Y454697D01*
D02*
G37*
G36*
X698730D02*
X697267Y454090D01*
X695910Y452733D01*
X695303Y451270D01*
X698730D01*
Y454697D01*
D02*
G37*
G36*
X651270D02*
Y451270D01*
X654697D01*
X654090Y452733D01*
X652733Y454090D01*
X651270Y454697D01*
D02*
G37*
G36*
X648730D02*
X647267Y454090D01*
X645910Y452733D01*
X645303Y451270D01*
X648730D01*
Y454697D01*
D02*
G37*
G36*
X601270D02*
Y451270D01*
X604697D01*
X604090Y452733D01*
X602733Y454090D01*
X601270Y454697D01*
D02*
G37*
G36*
X598730D02*
X597267Y454090D01*
X595910Y452733D01*
X595303Y451270D01*
X598730D01*
Y454697D01*
D02*
G37*
G36*
X551270D02*
Y451270D01*
X554697D01*
X554090Y452733D01*
X552733Y454090D01*
X551270Y454697D01*
D02*
G37*
G36*
X548730D02*
X547267Y454090D01*
X545910Y452733D01*
X545303Y451270D01*
X548730D01*
Y454697D01*
D02*
G37*
G36*
X501270D02*
Y451270D01*
X504697D01*
X504090Y452733D01*
X502733Y454090D01*
X501270Y454697D01*
D02*
G37*
G36*
X498730D02*
X497267Y454090D01*
X495910Y452733D01*
X495303Y451270D01*
X498730D01*
Y454697D01*
D02*
G37*
G36*
X1341467Y473288D02*
X1338234D01*
X1335111Y472451D01*
X1332311Y470835D01*
X1330025Y468549D01*
X1328409Y465749D01*
X1327572Y462626D01*
Y459394D01*
X1328409Y456271D01*
X1330025Y453471D01*
X1332311Y451185D01*
X1335111Y449569D01*
X1338234Y448732D01*
X1341467D01*
X1344589Y449569D01*
X1347389Y451185D01*
X1349675Y453471D01*
X1351291Y456271D01*
X1352128Y459394D01*
Y462626D01*
X1351291Y465749D01*
X1349675Y468549D01*
X1347389Y470835D01*
X1344589Y472451D01*
X1341467Y473288D01*
D02*
G37*
G36*
X1114678Y449580D02*
X1111250D01*
Y446152D01*
X1112714Y446759D01*
X1114071Y448116D01*
X1114678Y449580D01*
D02*
G37*
G36*
X1108710D02*
X1105282D01*
X1105889Y448116D01*
X1107246Y446759D01*
X1108710Y446152D01*
Y449580D01*
D02*
G37*
G36*
X1304697Y448730D02*
X1301270D01*
Y445303D01*
X1302733Y445910D01*
X1304091Y447267D01*
X1304697Y448730D01*
D02*
G37*
G36*
X1298730D02*
X1295304D01*
X1295910Y447267D01*
X1297267Y445910D01*
X1298730Y445303D01*
Y448730D01*
D02*
G37*
G36*
X1254697D02*
X1251270D01*
Y445303D01*
X1252733Y445910D01*
X1254090Y447267D01*
X1254697Y448730D01*
D02*
G37*
G36*
X1248730D02*
X1245304D01*
X1245910Y447267D01*
X1247267Y445910D01*
X1248730Y445303D01*
Y448730D01*
D02*
G37*
G36*
X1204697D02*
X1201270D01*
Y445303D01*
X1202733Y445910D01*
X1204090Y447267D01*
X1204697Y448730D01*
D02*
G37*
G36*
X1198730D02*
X1195304D01*
X1195910Y447267D01*
X1197267Y445910D01*
X1198730Y445303D01*
Y448730D01*
D02*
G37*
G36*
X1054697D02*
X1051270D01*
Y445303D01*
X1052733Y445910D01*
X1054090Y447267D01*
X1054697Y448730D01*
D02*
G37*
G36*
X1048730D02*
X1045303D01*
X1045910Y447267D01*
X1047267Y445910D01*
X1048730Y445303D01*
Y448730D01*
D02*
G37*
G36*
X1004697D02*
X1001270D01*
Y445303D01*
X1002733Y445910D01*
X1004090Y447267D01*
X1004697Y448730D01*
D02*
G37*
G36*
X998730D02*
X995303D01*
X995910Y447267D01*
X997267Y445910D01*
X998730Y445303D01*
Y448730D01*
D02*
G37*
G36*
X954697D02*
X951270D01*
Y445303D01*
X952733Y445910D01*
X954090Y447267D01*
X954697Y448730D01*
D02*
G37*
G36*
X948730D02*
X945303D01*
X945910Y447267D01*
X947267Y445910D01*
X948730Y445303D01*
Y448730D01*
D02*
G37*
G36*
X904697D02*
X901270D01*
Y445303D01*
X902733Y445910D01*
X904090Y447267D01*
X904697Y448730D01*
D02*
G37*
G36*
X898730D02*
X895303D01*
X895910Y447267D01*
X897267Y445910D01*
X898730Y445303D01*
Y448730D01*
D02*
G37*
G36*
X854697D02*
X851270D01*
Y445303D01*
X852733Y445910D01*
X854090Y447267D01*
X854697Y448730D01*
D02*
G37*
G36*
X848730D02*
X845303D01*
X845910Y447267D01*
X847267Y445910D01*
X848730Y445303D01*
Y448730D01*
D02*
G37*
G36*
X804697D02*
X801270D01*
Y445303D01*
X802733Y445910D01*
X804090Y447267D01*
X804697Y448730D01*
D02*
G37*
G36*
X798730D02*
X795303D01*
X795910Y447267D01*
X797267Y445910D01*
X798730Y445303D01*
Y448730D01*
D02*
G37*
G36*
X754697D02*
X751270D01*
Y445303D01*
X752733Y445910D01*
X754090Y447267D01*
X754697Y448730D01*
D02*
G37*
G36*
X748730D02*
X745303D01*
X745910Y447267D01*
X747267Y445910D01*
X748730Y445303D01*
Y448730D01*
D02*
G37*
G36*
X704697D02*
X701270D01*
Y445303D01*
X702733Y445910D01*
X704090Y447267D01*
X704697Y448730D01*
D02*
G37*
G36*
X698730D02*
X695303D01*
X695910Y447267D01*
X697267Y445910D01*
X698730Y445303D01*
Y448730D01*
D02*
G37*
G36*
X654697D02*
X651270D01*
Y445303D01*
X652733Y445910D01*
X654090Y447267D01*
X654697Y448730D01*
D02*
G37*
G36*
X648730D02*
X645303D01*
X645910Y447267D01*
X647267Y445910D01*
X648730Y445303D01*
Y448730D01*
D02*
G37*
G36*
X604697D02*
X601270D01*
Y445303D01*
X602733Y445910D01*
X604090Y447267D01*
X604697Y448730D01*
D02*
G37*
G36*
X598730D02*
X595303D01*
X595910Y447267D01*
X597267Y445910D01*
X598730Y445303D01*
Y448730D01*
D02*
G37*
G36*
X554697D02*
X551270D01*
Y445303D01*
X552733Y445910D01*
X554090Y447267D01*
X554697Y448730D01*
D02*
G37*
G36*
X548730D02*
X545303D01*
X545910Y447267D01*
X547267Y445910D01*
X548730Y445303D01*
Y448730D01*
D02*
G37*
G36*
X504697D02*
X501270D01*
Y445303D01*
X502733Y445910D01*
X504090Y447267D01*
X504697Y448730D01*
D02*
G37*
G36*
X498730D02*
X495303D01*
X495910Y447267D01*
X497267Y445910D01*
X498730Y445303D01*
Y448730D01*
D02*
G37*
G36*
X519776Y447088D02*
X516544D01*
X513421Y446251D01*
X510621Y444635D01*
X508335Y442349D01*
X506719Y439549D01*
X505882Y436426D01*
Y433194D01*
X506719Y430071D01*
X508335Y427271D01*
X510621Y424985D01*
X513421Y423369D01*
X516544Y422532D01*
X519776D01*
X522899Y423369D01*
X525699Y424985D01*
X527985Y427271D01*
X529601Y430071D01*
X530438Y433194D01*
Y436426D01*
X529601Y439549D01*
X527985Y442349D01*
X525699Y444635D01*
X522899Y446251D01*
X519776Y447088D01*
D02*
G37*
G36*
X1489288Y444548D02*
X1464732D01*
Y419992D01*
X1489288D01*
Y444548D01*
D02*
G37*
G36*
X1226270Y404697D02*
Y401270D01*
X1229697D01*
X1229090Y402733D01*
X1227733Y404090D01*
X1226270Y404697D01*
D02*
G37*
G36*
X1223730D02*
X1222267Y404090D01*
X1220910Y402733D01*
X1220304Y401270D01*
X1223730D01*
Y404697D01*
D02*
G37*
G36*
X1176270D02*
Y401270D01*
X1179697D01*
X1179090Y402733D01*
X1177733Y404090D01*
X1176270Y404697D01*
D02*
G37*
G36*
X1173730D02*
X1172267Y404090D01*
X1170910Y402733D01*
X1170304Y401270D01*
X1173730D01*
Y404697D01*
D02*
G37*
G36*
X1026270D02*
Y401270D01*
X1029697D01*
X1029090Y402733D01*
X1027733Y404090D01*
X1026270Y404697D01*
D02*
G37*
G36*
X1023730D02*
X1022267Y404090D01*
X1020910Y402733D01*
X1020303Y401270D01*
X1023730D01*
Y404697D01*
D02*
G37*
G36*
X976270D02*
Y401270D01*
X979697D01*
X979090Y402733D01*
X977733Y404090D01*
X976270Y404697D01*
D02*
G37*
G36*
X973730D02*
X972267Y404090D01*
X970910Y402733D01*
X970303Y401270D01*
X973730D01*
Y404697D01*
D02*
G37*
G36*
X926270D02*
Y401270D01*
X929697D01*
X929090Y402733D01*
X927733Y404090D01*
X926270Y404697D01*
D02*
G37*
G36*
X923730D02*
X922267Y404090D01*
X920910Y402733D01*
X920303Y401270D01*
X923730D01*
Y404697D01*
D02*
G37*
G36*
X876270D02*
Y401270D01*
X879697D01*
X879090Y402733D01*
X877733Y404090D01*
X876270Y404697D01*
D02*
G37*
G36*
X873730D02*
X872267Y404090D01*
X870910Y402733D01*
X870303Y401270D01*
X873730D01*
Y404697D01*
D02*
G37*
G36*
X826270D02*
Y401270D01*
X829697D01*
X829090Y402733D01*
X827733Y404090D01*
X826270Y404697D01*
D02*
G37*
G36*
X823730D02*
X822267Y404090D01*
X820910Y402733D01*
X820303Y401270D01*
X823730D01*
Y404697D01*
D02*
G37*
G36*
X776270D02*
Y401270D01*
X779697D01*
X779090Y402733D01*
X777733Y404090D01*
X776270Y404697D01*
D02*
G37*
G36*
X773730D02*
X772267Y404090D01*
X770910Y402733D01*
X770303Y401270D01*
X773730D01*
Y404697D01*
D02*
G37*
G36*
X726270D02*
Y401270D01*
X729697D01*
X729090Y402733D01*
X727733Y404090D01*
X726270Y404697D01*
D02*
G37*
G36*
X723730D02*
X722267Y404090D01*
X720910Y402733D01*
X720303Y401270D01*
X723730D01*
Y404697D01*
D02*
G37*
G36*
X676270D02*
Y401270D01*
X679697D01*
X679090Y402733D01*
X677733Y404090D01*
X676270Y404697D01*
D02*
G37*
G36*
X673730D02*
X672267Y404090D01*
X670910Y402733D01*
X670303Y401270D01*
X673730D01*
Y404697D01*
D02*
G37*
G36*
X626270D02*
Y401270D01*
X629697D01*
X629090Y402733D01*
X627733Y404090D01*
X626270Y404697D01*
D02*
G37*
G36*
X623730D02*
X622267Y404090D01*
X620910Y402733D01*
X620303Y401270D01*
X623730D01*
Y404697D01*
D02*
G37*
G36*
X1417667Y422488D02*
X1414434D01*
X1411311Y421651D01*
X1408511Y420035D01*
X1406225Y417749D01*
X1404609Y414949D01*
X1403772Y411826D01*
Y408594D01*
X1404609Y405471D01*
X1406225Y402671D01*
X1408511Y400385D01*
X1411311Y398769D01*
X1414434Y397932D01*
X1417667D01*
X1420789Y398769D01*
X1423589Y400385D01*
X1425875Y402671D01*
X1427491Y405471D01*
X1428328Y408594D01*
Y411826D01*
X1427491Y414949D01*
X1425875Y417749D01*
X1423589Y420035D01*
X1420789Y421651D01*
X1417667Y422488D01*
D02*
G37*
G36*
X1118630Y399668D02*
Y396240D01*
X1122058D01*
X1121451Y397704D01*
X1120094Y399061D01*
X1118630Y399668D01*
D02*
G37*
G36*
X1116090D02*
X1114626Y399061D01*
X1113269Y397704D01*
X1112663Y396240D01*
X1116090D01*
Y399668D01*
D02*
G37*
G36*
X1229697Y398730D02*
X1226270D01*
Y395303D01*
X1227733Y395910D01*
X1229090Y397267D01*
X1229697Y398730D01*
D02*
G37*
G36*
X1223730D02*
X1220304D01*
X1220910Y397267D01*
X1222267Y395910D01*
X1223730Y395303D01*
Y398730D01*
D02*
G37*
G36*
X1179697D02*
X1176270D01*
Y395303D01*
X1177733Y395910D01*
X1179090Y397267D01*
X1179697Y398730D01*
D02*
G37*
G36*
X1173730D02*
X1170304D01*
X1170910Y397267D01*
X1172267Y395910D01*
X1173730Y395303D01*
Y398730D01*
D02*
G37*
G36*
X1029697D02*
X1026270D01*
Y395303D01*
X1027733Y395910D01*
X1029090Y397267D01*
X1029697Y398730D01*
D02*
G37*
G36*
X1023730D02*
X1020303D01*
X1020910Y397267D01*
X1022267Y395910D01*
X1023730Y395303D01*
Y398730D01*
D02*
G37*
G36*
X979697D02*
X976270D01*
Y395303D01*
X977733Y395910D01*
X979090Y397267D01*
X979697Y398730D01*
D02*
G37*
G36*
X973730D02*
X970303D01*
X970910Y397267D01*
X972267Y395910D01*
X973730Y395303D01*
Y398730D01*
D02*
G37*
G36*
X929697D02*
X926270D01*
Y395303D01*
X927733Y395910D01*
X929090Y397267D01*
X929697Y398730D01*
D02*
G37*
G36*
X923730D02*
X920303D01*
X920910Y397267D01*
X922267Y395910D01*
X923730Y395303D01*
Y398730D01*
D02*
G37*
G36*
X879697D02*
X876270D01*
Y395303D01*
X877733Y395910D01*
X879090Y397267D01*
X879697Y398730D01*
D02*
G37*
G36*
X873730D02*
X870303D01*
X870910Y397267D01*
X872267Y395910D01*
X873730Y395303D01*
Y398730D01*
D02*
G37*
G36*
X829697D02*
X826270D01*
Y395303D01*
X827733Y395910D01*
X829090Y397267D01*
X829697Y398730D01*
D02*
G37*
G36*
X823730D02*
X820303D01*
X820910Y397267D01*
X822267Y395910D01*
X823730Y395303D01*
Y398730D01*
D02*
G37*
G36*
X779697D02*
X776270D01*
Y395303D01*
X777733Y395910D01*
X779090Y397267D01*
X779697Y398730D01*
D02*
G37*
G36*
X773730D02*
X770303D01*
X770910Y397267D01*
X772267Y395910D01*
X773730Y395303D01*
Y398730D01*
D02*
G37*
G36*
X729697D02*
X726270D01*
Y395303D01*
X727733Y395910D01*
X729090Y397267D01*
X729697Y398730D01*
D02*
G37*
G36*
X723730D02*
X720303D01*
X720910Y397267D01*
X722267Y395910D01*
X723730Y395303D01*
Y398730D01*
D02*
G37*
G36*
X679697D02*
X676270D01*
Y395303D01*
X677733Y395910D01*
X679090Y397267D01*
X679697Y398730D01*
D02*
G37*
G36*
X673730D02*
X670303D01*
X670910Y397267D01*
X672267Y395910D01*
X673730Y395303D01*
Y398730D01*
D02*
G37*
G36*
X629697D02*
X626270D01*
Y395303D01*
X627733Y395910D01*
X629090Y397267D01*
X629697Y398730D01*
D02*
G37*
G36*
X623730D02*
X620303D01*
X620910Y397267D01*
X622267Y395910D01*
X623730Y395303D01*
Y398730D01*
D02*
G37*
G36*
X1122058Y393700D02*
X1118630D01*
Y390272D01*
X1120094Y390879D01*
X1121451Y392236D01*
X1122058Y393700D01*
D02*
G37*
G36*
X1116090D02*
X1112663D01*
X1113269Y392236D01*
X1114626Y390879D01*
X1116090Y390272D01*
Y393700D01*
D02*
G37*
G36*
X582768Y403233D02*
X579732D01*
X576800Y402448D01*
X574172Y400930D01*
X572025Y398784D01*
X570508Y396155D01*
X569722Y393223D01*
Y390188D01*
X570508Y387256D01*
X572025Y384627D01*
X574172Y382481D01*
X576800Y380963D01*
X579732Y380177D01*
X582768D01*
X585700Y380963D01*
X588328Y382481D01*
X590475Y384627D01*
X591992Y387256D01*
X592778Y390188D01*
Y393223D01*
X591992Y396155D01*
X590475Y398784D01*
X588328Y400930D01*
X585700Y402448D01*
X582768Y403233D01*
D02*
G37*
G36*
X530438Y397088D02*
X505882D01*
Y372532D01*
X530438D01*
Y397088D01*
D02*
G37*
G36*
X1478626Y394548D02*
X1475394D01*
X1472271Y393711D01*
X1469471Y392095D01*
X1467185Y389809D01*
X1465569Y387009D01*
X1464732Y383886D01*
Y380654D01*
X1465569Y377531D01*
X1467185Y374731D01*
X1469471Y372445D01*
X1472271Y370829D01*
X1475394Y369992D01*
X1478626D01*
X1481749Y370829D01*
X1484549Y372445D01*
X1486835Y374731D01*
X1488451Y377531D01*
X1489288Y380654D01*
Y383886D01*
X1488451Y387009D01*
X1486835Y389809D01*
X1484549Y392095D01*
X1481749Y393711D01*
X1478626Y394548D01*
D02*
G37*
G36*
X1064260Y364108D02*
X1062796Y363501D01*
X1061439Y362144D01*
X1060832Y360680D01*
X1064260D01*
Y364108D01*
D02*
G37*
G36*
X1076960Y361568D02*
Y358140D01*
X1080388D01*
X1079781Y359604D01*
X1078424Y360961D01*
X1076960Y361568D01*
D02*
G37*
G36*
X1064260Y358140D02*
X1060832D01*
X1061439Y356676D01*
X1062796Y355319D01*
X1064260Y354712D01*
Y358140D01*
D02*
G37*
G36*
X1080388Y355600D02*
X1076960D01*
Y352172D01*
X1078424Y352779D01*
X1079781Y354136D01*
X1080388Y355600D01*
D02*
G37*
G36*
X1066800Y364108D02*
Y359410D01*
Y354712D01*
X1068264Y355319D01*
X1068864Y355919D01*
X1069479Y355916D01*
X1071084Y355379D01*
X1071599Y354136D01*
X1072956Y352779D01*
X1074420Y352172D01*
Y356870D01*
Y361568D01*
X1072956Y360961D01*
X1072356Y360361D01*
X1071741Y360364D01*
X1070136Y360901D01*
X1069621Y362144D01*
X1068264Y363501D01*
X1066800Y364108D01*
D02*
G37*
G36*
X1351270Y354697D02*
Y351270D01*
X1354697D01*
X1354091Y352733D01*
X1352733Y354090D01*
X1351270Y354697D01*
D02*
G37*
G36*
X1348730D02*
X1347267Y354090D01*
X1345910Y352733D01*
X1345304Y351270D01*
X1348730D01*
Y354697D01*
D02*
G37*
G36*
X1301270D02*
Y351270D01*
X1304697D01*
X1304091Y352733D01*
X1302733Y354090D01*
X1301270Y354697D01*
D02*
G37*
G36*
X1298730D02*
X1297267Y354090D01*
X1295910Y352733D01*
X1295304Y351270D01*
X1298730D01*
Y354697D01*
D02*
G37*
G36*
X1251270D02*
Y351270D01*
X1254697D01*
X1254090Y352733D01*
X1252733Y354090D01*
X1251270Y354697D01*
D02*
G37*
G36*
X1248730D02*
X1247267Y354090D01*
X1245910Y352733D01*
X1245304Y351270D01*
X1248730D01*
Y354697D01*
D02*
G37*
G36*
X1201270D02*
Y351270D01*
X1204697D01*
X1204090Y352733D01*
X1202733Y354090D01*
X1201270Y354697D01*
D02*
G37*
G36*
X1198730D02*
X1197267Y354090D01*
X1195910Y352733D01*
X1195304Y351270D01*
X1198730D01*
Y354697D01*
D02*
G37*
G36*
X1001270D02*
Y351270D01*
X1004697D01*
X1004090Y352733D01*
X1002733Y354090D01*
X1001270Y354697D01*
D02*
G37*
G36*
X998730D02*
X997267Y354090D01*
X995910Y352733D01*
X995303Y351270D01*
X998730D01*
Y354697D01*
D02*
G37*
G36*
X951270D02*
Y351270D01*
X954697D01*
X954090Y352733D01*
X952733Y354090D01*
X951270Y354697D01*
D02*
G37*
G36*
X948730D02*
X947267Y354090D01*
X945910Y352733D01*
X945303Y351270D01*
X948730D01*
Y354697D01*
D02*
G37*
G36*
X901270D02*
Y351270D01*
X904697D01*
X904090Y352733D01*
X902733Y354090D01*
X901270Y354697D01*
D02*
G37*
G36*
X898730D02*
X897267Y354090D01*
X895910Y352733D01*
X895303Y351270D01*
X898730D01*
Y354697D01*
D02*
G37*
G36*
X851270D02*
Y351270D01*
X854697D01*
X854090Y352733D01*
X852733Y354090D01*
X851270Y354697D01*
D02*
G37*
G36*
X848730D02*
X847267Y354090D01*
X845910Y352733D01*
X845303Y351270D01*
X848730D01*
Y354697D01*
D02*
G37*
G36*
X801270D02*
Y351270D01*
X804697D01*
X804090Y352733D01*
X802733Y354090D01*
X801270Y354697D01*
D02*
G37*
G36*
X798730D02*
X797267Y354090D01*
X795910Y352733D01*
X795303Y351270D01*
X798730D01*
Y354697D01*
D02*
G37*
G36*
X751270D02*
Y351270D01*
X754697D01*
X754090Y352733D01*
X752733Y354090D01*
X751270Y354697D01*
D02*
G37*
G36*
X748730D02*
X747267Y354090D01*
X745910Y352733D01*
X745303Y351270D01*
X748730D01*
Y354697D01*
D02*
G37*
G36*
X701270D02*
Y351270D01*
X704697D01*
X704090Y352733D01*
X702733Y354090D01*
X701270Y354697D01*
D02*
G37*
G36*
X698730D02*
X697267Y354090D01*
X695910Y352733D01*
X695303Y351270D01*
X698730D01*
Y354697D01*
D02*
G37*
G36*
X651270D02*
Y351270D01*
X654697D01*
X654090Y352733D01*
X652733Y354090D01*
X651270Y354697D01*
D02*
G37*
G36*
X648730D02*
X647267Y354090D01*
X645910Y352733D01*
X645303Y351270D01*
X648730D01*
Y354697D01*
D02*
G37*
G36*
X601270D02*
Y351270D01*
X604697D01*
X604090Y352733D01*
X602733Y354090D01*
X601270Y354697D01*
D02*
G37*
G36*
X598730D02*
X597267Y354090D01*
X595910Y352733D01*
X595303Y351270D01*
X598730D01*
Y354697D01*
D02*
G37*
G36*
X551270D02*
Y351270D01*
X554697D01*
X554090Y352733D01*
X552733Y354090D01*
X551270Y354697D01*
D02*
G37*
G36*
X548730D02*
X547267Y354090D01*
X545910Y352733D01*
X545303Y351270D01*
X548730D01*
Y354697D01*
D02*
G37*
G36*
X1354697Y348730D02*
X1351270D01*
Y345303D01*
X1352733Y345910D01*
X1354091Y347267D01*
X1354697Y348730D01*
D02*
G37*
G36*
X1348730D02*
X1345304D01*
X1345910Y347267D01*
X1347267Y345910D01*
X1348730Y345303D01*
Y348730D01*
D02*
G37*
G36*
X1304697D02*
X1301270D01*
Y345303D01*
X1302733Y345910D01*
X1304091Y347267D01*
X1304697Y348730D01*
D02*
G37*
G36*
X1298730D02*
X1295304D01*
X1295910Y347267D01*
X1297267Y345910D01*
X1298730Y345303D01*
Y348730D01*
D02*
G37*
G36*
X1254697D02*
X1251270D01*
Y345303D01*
X1252733Y345910D01*
X1254090Y347267D01*
X1254697Y348730D01*
D02*
G37*
G36*
X1248730D02*
X1245304D01*
X1245910Y347267D01*
X1247267Y345910D01*
X1248730Y345303D01*
Y348730D01*
D02*
G37*
G36*
X1204697D02*
X1201270D01*
Y345303D01*
X1202733Y345910D01*
X1204090Y347267D01*
X1204697Y348730D01*
D02*
G37*
G36*
X1198730D02*
X1195304D01*
X1195910Y347267D01*
X1197267Y345910D01*
X1198730Y345303D01*
Y348730D01*
D02*
G37*
G36*
X1004697D02*
X1001270D01*
Y345303D01*
X1002733Y345910D01*
X1004090Y347267D01*
X1004697Y348730D01*
D02*
G37*
G36*
X998730D02*
X995303D01*
X995910Y347267D01*
X997267Y345910D01*
X998730Y345303D01*
Y348730D01*
D02*
G37*
G36*
X954697D02*
X951270D01*
Y345303D01*
X952733Y345910D01*
X954090Y347267D01*
X954697Y348730D01*
D02*
G37*
G36*
X948730D02*
X945303D01*
X945910Y347267D01*
X947267Y345910D01*
X948730Y345303D01*
Y348730D01*
D02*
G37*
G36*
X904697D02*
X901270D01*
Y345303D01*
X902733Y345910D01*
X904090Y347267D01*
X904697Y348730D01*
D02*
G37*
G36*
X898730D02*
X895303D01*
X895910Y347267D01*
X897267Y345910D01*
X898730Y345303D01*
Y348730D01*
D02*
G37*
G36*
X854697D02*
X851270D01*
Y345303D01*
X852733Y345910D01*
X854090Y347267D01*
X854697Y348730D01*
D02*
G37*
G36*
X848730D02*
X845303D01*
X845910Y347267D01*
X847267Y345910D01*
X848730Y345303D01*
Y348730D01*
D02*
G37*
G36*
X804697D02*
X801270D01*
Y345303D01*
X802733Y345910D01*
X804090Y347267D01*
X804697Y348730D01*
D02*
G37*
G36*
X798730D02*
X795303D01*
X795910Y347267D01*
X797267Y345910D01*
X798730Y345303D01*
Y348730D01*
D02*
G37*
G36*
X754697D02*
X751270D01*
Y345303D01*
X752733Y345910D01*
X754090Y347267D01*
X754697Y348730D01*
D02*
G37*
G36*
X748730D02*
X745303D01*
X745910Y347267D01*
X747267Y345910D01*
X748730Y345303D01*
Y348730D01*
D02*
G37*
G36*
X704697D02*
X701270D01*
Y345303D01*
X702733Y345910D01*
X704090Y347267D01*
X704697Y348730D01*
D02*
G37*
G36*
X698730D02*
X695303D01*
X695910Y347267D01*
X697267Y345910D01*
X698730Y345303D01*
Y348730D01*
D02*
G37*
G36*
X654697D02*
X651270D01*
Y345303D01*
X652733Y345910D01*
X654090Y347267D01*
X654697Y348730D01*
D02*
G37*
G36*
X648730D02*
X645303D01*
X645910Y347267D01*
X647267Y345910D01*
X648730Y345303D01*
Y348730D01*
D02*
G37*
G36*
X604697D02*
X601270D01*
Y345303D01*
X602733Y345910D01*
X604090Y347267D01*
X604697Y348730D01*
D02*
G37*
G36*
X598730D02*
X595303D01*
X595910Y347267D01*
X597267Y345910D01*
X598730Y345303D01*
Y348730D01*
D02*
G37*
G36*
X554697D02*
X551270D01*
Y345303D01*
X552733Y345910D01*
X554090Y347267D01*
X554697Y348730D01*
D02*
G37*
G36*
X548730D02*
X545303D01*
X545910Y347267D01*
X547267Y345910D01*
X548730Y345303D01*
Y348730D01*
D02*
G37*
G36*
X1478626Y344548D02*
X1475394D01*
X1472271Y343711D01*
X1469471Y342095D01*
X1467185Y339809D01*
X1465569Y337009D01*
X1464732Y333886D01*
Y330654D01*
X1465569Y327531D01*
X1467185Y324731D01*
X1469471Y322445D01*
X1472271Y320829D01*
X1475394Y319992D01*
X1478626D01*
X1481749Y320829D01*
X1484549Y322445D01*
X1486835Y324731D01*
X1488451Y327531D01*
X1489288Y330654D01*
Y333886D01*
X1488451Y337009D01*
X1486835Y339809D01*
X1484549Y342095D01*
X1481749Y343711D01*
X1478626Y344548D01*
D02*
G37*
G36*
X1007768Y329234D02*
X1004732D01*
X1001800Y328448D01*
X999172Y326930D01*
X997025Y324784D01*
X995508Y322155D01*
X994722Y319223D01*
Y316188D01*
X995508Y313256D01*
X997025Y310627D01*
X999172Y308481D01*
X1001800Y306963D01*
X1004732Y306178D01*
X1007768D01*
X1010700Y306963D01*
X1013328Y308481D01*
X1015475Y310627D01*
X1016992Y313256D01*
X1017778Y316188D01*
Y319223D01*
X1016992Y322155D01*
X1015475Y324784D01*
X1013328Y326930D01*
X1010700Y328448D01*
X1007768Y329234D01*
D02*
G37*
G36*
X1250488Y626364D02*
X1248872D01*
X1247378Y625745D01*
X1246235Y624602D01*
X1245616Y623108D01*
Y621492D01*
X1245828Y620980D01*
Y474980D01*
X1245828Y474980D01*
X1246121Y473506D01*
X1246956Y472256D01*
X1405068Y314144D01*
X1404609Y313349D01*
X1403772Y310226D01*
Y306994D01*
X1404609Y303871D01*
X1406225Y301071D01*
X1408511Y298785D01*
X1411311Y297169D01*
X1414434Y296332D01*
X1417667D01*
X1420789Y297169D01*
X1423589Y298785D01*
X1425875Y301071D01*
X1427491Y303871D01*
X1428328Y306994D01*
Y310226D01*
X1427491Y313349D01*
X1425875Y316149D01*
X1423589Y318435D01*
X1420789Y320051D01*
X1417667Y320888D01*
X1414434D01*
X1411311Y320051D01*
X1410516Y319592D01*
X1253532Y476576D01*
Y620980D01*
X1253744Y621492D01*
Y623108D01*
X1253125Y624602D01*
X1251982Y625745D01*
X1250488Y626364D01*
D02*
G37*
G36*
X1341467Y320888D02*
X1338234D01*
X1335111Y320051D01*
X1332311Y318435D01*
X1330025Y316149D01*
X1328409Y313349D01*
X1327572Y310226D01*
Y306994D01*
X1328409Y303871D01*
X1330025Y301071D01*
X1332311Y298785D01*
X1335111Y297169D01*
X1338234Y296332D01*
X1341467D01*
X1344589Y297169D01*
X1347389Y298785D01*
X1349675Y301071D01*
X1351291Y303871D01*
X1352128Y306994D01*
Y310226D01*
X1351291Y313349D01*
X1349675Y316149D01*
X1347389Y318435D01*
X1344589Y320051D01*
X1341467Y320888D01*
D02*
G37*
G36*
X1092200Y284098D02*
Y280670D01*
X1095628D01*
X1095021Y282134D01*
X1093664Y283491D01*
X1092200Y284098D01*
D02*
G37*
G36*
X1089660D02*
X1088196Y283491D01*
X1086839Y282134D01*
X1086232Y280670D01*
X1089660D01*
Y284098D01*
D02*
G37*
G36*
X1095628Y278130D02*
X1092200D01*
Y274702D01*
X1093664Y275309D01*
X1095021Y276666D01*
X1095628Y278130D01*
D02*
G37*
G36*
X1089660D02*
X1086232D01*
X1086839Y276666D01*
X1088196Y275309D01*
X1089660Y274702D01*
Y278130D01*
D02*
G37*
G36*
X470798Y286620D02*
X469900D01*
Y260350D01*
X496170D01*
Y261248D01*
X495492Y265529D01*
X494152Y269652D01*
X492184Y273514D01*
X489636Y277021D01*
X486571Y280086D01*
X483064Y282634D01*
X479202Y284602D01*
X475079Y285942D01*
X470798Y286620D01*
D02*
G37*
G36*
X467360D02*
X466463D01*
X462181Y285942D01*
X458058Y284602D01*
X454196Y282634D01*
X450689Y280086D01*
X447624Y277021D01*
X445076Y273514D01*
X443108Y269652D01*
X441768Y265529D01*
X441090Y261248D01*
Y260350D01*
X467360D01*
Y286620D01*
D02*
G37*
G36*
X1509657Y282810D02*
X1508760D01*
Y256540D01*
X1535030D01*
Y257437D01*
X1534352Y261719D01*
X1533012Y265842D01*
X1531044Y269704D01*
X1528496Y273211D01*
X1525431Y276276D01*
X1521924Y278824D01*
X1518062Y280792D01*
X1513939Y282132D01*
X1509657Y282810D01*
D02*
G37*
G36*
X1506220D02*
X1505323D01*
X1501041Y282132D01*
X1496918Y280792D01*
X1493056Y278824D01*
X1489549Y276276D01*
X1486484Y273211D01*
X1483936Y269704D01*
X1481968Y265842D01*
X1480628Y261719D01*
X1479950Y257437D01*
Y256540D01*
X1506220D01*
Y282810D01*
D02*
G37*
G36*
X496170Y257810D02*
X469900D01*
Y231540D01*
X470798D01*
X475079Y232218D01*
X479202Y233558D01*
X483064Y235526D01*
X486571Y238074D01*
X489636Y241139D01*
X492184Y244646D01*
X494152Y248508D01*
X495492Y252631D01*
X496170Y256912D01*
Y257810D01*
D02*
G37*
G36*
X467360D02*
X441090D01*
Y256912D01*
X441768Y252631D01*
X443108Y248508D01*
X445076Y244646D01*
X447624Y241139D01*
X450689Y238074D01*
X454196Y235526D01*
X458058Y233558D01*
X462181Y232218D01*
X466463Y231540D01*
X467360D01*
Y257810D01*
D02*
G37*
G36*
X1535030Y254000D02*
X1508760D01*
Y227730D01*
X1509657D01*
X1513939Y228408D01*
X1518062Y229748D01*
X1521924Y231716D01*
X1525431Y234264D01*
X1528496Y237329D01*
X1531044Y240836D01*
X1533012Y244698D01*
X1534352Y248821D01*
X1535030Y253102D01*
Y254000D01*
D02*
G37*
G36*
X1506220D02*
X1479950D01*
Y253102D01*
X1480628Y248821D01*
X1481968Y244698D01*
X1483936Y240836D01*
X1486484Y237329D01*
X1489549Y234264D01*
X1493056Y231716D01*
X1496918Y229748D01*
X1501041Y228408D01*
X1505323Y227730D01*
X1506220D01*
Y254000D01*
D02*
G37*
%LPD*%
D13*
X336550Y1240790D02*
X364090D01*
X336550D02*
Y1268330D01*
X309010Y1240790D02*
X336550D01*
Y1213250D02*
Y1240790D01*
X320040Y1000760D02*
Y1011550D01*
X309250Y1000760D02*
X320040D01*
X330830D01*
X320040Y989970D02*
Y1000760D01*
X334010Y632460D02*
Y660000D01*
Y632460D02*
X361550D01*
X334010Y604920D02*
Y632460D01*
X321310Y756920D02*
X332100D01*
X321310D02*
Y767710D01*
X310520Y756920D02*
X321310D01*
X306470Y632460D02*
X334010D01*
X321310Y746130D02*
Y756920D01*
D79*
X661631Y734099D02*
X822960D01*
X664250Y729020D02*
X665480Y730250D01*
X640080Y755650D02*
Y763270D01*
X641350Y730250D02*
X665480D01*
X664250Y729020D02*
X814070D01*
X949960Y833120D02*
Y894080D01*
Y906780D01*
Y930021D01*
X946531Y933450D02*
X949960Y930021D01*
X895306Y984675D02*
X946531Y933450D01*
X949960Y833120D02*
X953770Y829310D01*
X892461Y1013809D02*
X958849Y947421D01*
Y822805D02*
Y947421D01*
X957580Y821536D02*
X958849Y822805D01*
X925830Y1206500D02*
X955040Y1235710D01*
X925830Y1177290D02*
Y1206500D01*
X985520Y1211580D02*
Y1235710D01*
X951230Y1177290D02*
X985520Y1211580D01*
X957580Y820848D02*
Y821536D01*
X675359Y718820D02*
X838200D01*
X639701Y708562D02*
X655039Y723900D01*
X638305Y681766D02*
X675359Y718820D01*
X655039Y723900D02*
X800100D01*
X640080Y755650D02*
X661631Y734099D01*
D81*
X1040937Y909495D02*
X1088390Y956948D01*
X1040937Y816277D02*
Y909495D01*
X1014600Y789940D02*
X1040937Y816277D01*
X1014600Y734630D02*
Y789940D01*
X898020D02*
X1014600D01*
X971550Y691580D02*
X1014600Y734630D01*
X1084450Y536070D02*
Y549910D01*
X980614Y627206D02*
X1007154D01*
X971550Y636270D02*
X980614Y627206D01*
X1007154D02*
X1084450Y549910D01*
Y536070D02*
X1084580Y535940D01*
Y526521D02*
Y535940D01*
X1076170Y518110D02*
X1084580Y526521D01*
X971550Y636270D02*
Y691580D01*
X897890Y642750D02*
Y658034D01*
X923838D02*
X945602Y636270D01*
X897890Y658034D02*
X923838D01*
X945602Y636270D02*
X971550D01*
X880240Y807720D02*
X898020Y789940D01*
X892810Y637670D02*
X897890Y642750D01*
X822406Y658034D02*
X897890D01*
X802640Y677800D02*
X822406Y658034D01*
D82*
X1269026Y858224D02*
X1339850Y787400D01*
X1147784Y858224D02*
X1269026D01*
X1087169Y797608D02*
X1147784Y858224D01*
D83*
X993140Y1049020D02*
X1024890Y1080770D01*
X993140Y978328D02*
X1009650Y961818D01*
X993140Y978328D02*
Y1049020D01*
X1088126Y980759D02*
X1088390Y981023D01*
X1062835Y960658D02*
X1062990Y960812D01*
X1063145Y960658D01*
X896360Y1112453D02*
X985587D01*
X1016635Y1081405D01*
X1009914Y961818D02*
X1061565D01*
X1306830Y1130300D02*
X1418590Y1018540D01*
X1247140Y1130300D02*
X1306830D01*
X1248519Y958741D02*
X1418590Y788670D01*
X1242169Y958741D02*
X1248519D01*
X1242060Y958850D02*
X1242169Y958741D01*
X1250950Y720090D02*
Y788670D01*
Y720090D02*
X1418590Y552450D01*
X1249680Y474980D02*
Y622300D01*
Y474980D02*
X1416050Y308610D01*
X1084567Y980759D02*
X1088126D01*
X1088390Y981023D02*
Y981132D01*
X831850Y739099D02*
Y1047943D01*
X896360Y1112453D01*
X1088390Y980713D02*
Y980868D01*
Y980713D02*
X1089660Y979443D01*
Y969438D02*
Y979443D01*
X1066704Y962896D02*
X1084567Y980759D01*
X1065492Y962896D02*
X1066704D01*
X1063254Y960658D02*
X1065492Y962896D01*
X1063145Y960658D02*
X1063254D01*
X1062726D02*
X1062835D01*
X1061565Y961818D02*
X1062726Y960658D01*
D85*
X321310Y756920D02*
D03*
Y791920D02*
D03*
Y826920D02*
D03*
Y861920D02*
D03*
X320040Y1070760D02*
D03*
Y1035760D02*
D03*
Y1000760D02*
D03*
Y965760D02*
D03*
D86*
X1024890Y1055370D02*
D03*
Y1080770D02*
D03*
Y1106170D02*
D03*
Y1131570D02*
D03*
Y1156970D02*
D03*
X895306Y933875D02*
D03*
Y959275D02*
D03*
Y984675D02*
D03*
Y1010075D02*
D03*
Y1035475D02*
D03*
X925830Y1177290D02*
D03*
X716280Y1151890D02*
D03*
X819150Y1155700D02*
D03*
D87*
X1024890Y1182370D02*
D03*
X895306Y1060875D02*
D03*
D88*
X1085626Y824630D02*
D03*
Y773830D02*
D03*
Y799230D02*
D03*
X639701Y683162D02*
D03*
Y733962D02*
D03*
Y708562D02*
D03*
D89*
X1085626Y748430D02*
D03*
X639701Y759362D02*
D03*
D90*
X844550Y1155700D02*
D03*
X951230Y1177290D02*
D03*
X741680Y1151890D02*
D03*
D91*
X1006250Y543705D02*
D03*
X581250Y391706D02*
D03*
X1006250Y317705D02*
D03*
D92*
X1416050Y410210D02*
D03*
Y486410D02*
D03*
X1339850Y461010D02*
D03*
X1416050Y308610D02*
D03*
X1339850D02*
D03*
X518160Y434810D02*
D03*
Y484810D02*
D03*
X1468120Y878840D02*
D03*
Y828840D02*
D03*
X1418590Y890270D02*
D03*
X1342390Y941070D02*
D03*
X1418590Y966470D02*
D03*
X1342390Y1018540D02*
D03*
Y788670D02*
D03*
Y552450D02*
D03*
X1477010Y332270D02*
D03*
Y382270D02*
D03*
X1469390Y1083310D02*
D03*
Y1133310D02*
D03*
X1418590Y788670D02*
D03*
X1468120Y594360D02*
D03*
Y644360D02*
D03*
X1342390Y1170940D02*
D03*
X1418590Y1196340D02*
D03*
Y1120140D02*
D03*
Y1018540D02*
D03*
X1342390Y704850D02*
D03*
X1418590Y730250D02*
D03*
Y654050D02*
D03*
Y552450D02*
D03*
D93*
X581250Y469706D02*
D03*
D94*
X518160Y384810D02*
D03*
X1468120Y928840D02*
D03*
X1477010Y432270D02*
D03*
X1469390Y1183310D02*
D03*
X1468120Y694360D02*
D03*
D96*
X649603Y649603D02*
D03*
X700000Y650000D02*
D03*
X800000D02*
D03*
X750000D02*
D03*
X925000Y1000000D02*
D03*
X575000Y700000D02*
D03*
X1350000Y1150000D02*
D03*
Y1050000D02*
D03*
X1375000Y800000D02*
D03*
X1350000Y750000D02*
D03*
Y650000D02*
D03*
Y350000D02*
D03*
X1325000Y1200000D02*
D03*
X1300000Y1150000D02*
D03*
X1325000Y1100000D02*
D03*
X1300000Y1050000D02*
D03*
X1325000Y1000000D02*
D03*
Y900000D02*
D03*
Y700000D02*
D03*
X1300000Y650000D02*
D03*
X1325000Y600000D02*
D03*
Y500000D02*
D03*
X1300000Y450000D02*
D03*
Y350000D02*
D03*
X1250000Y1150000D02*
D03*
X1275000Y1100000D02*
D03*
Y900000D02*
D03*
Y800000D02*
D03*
X1250000Y450000D02*
D03*
Y350000D02*
D03*
X1225000Y1200000D02*
D03*
Y1100000D02*
D03*
X1200000Y1050000D02*
D03*
X1225000Y900000D02*
D03*
X1200000Y750000D02*
D03*
X1225000Y700000D02*
D03*
X1200000Y650000D02*
D03*
X1225000Y600000D02*
D03*
X1200000Y550000D02*
D03*
X1225000Y500000D02*
D03*
X1200000Y450000D02*
D03*
X1225000Y400000D02*
D03*
X1200000Y350000D02*
D03*
X1150000Y1150000D02*
D03*
X1175000Y1100000D02*
D03*
X1150000Y950000D02*
D03*
X1175000Y900000D02*
D03*
Y800000D02*
D03*
X1150000Y750000D02*
D03*
Y650000D02*
D03*
X1175000Y600000D02*
D03*
X1150000Y550000D02*
D03*
X1175000Y500000D02*
D03*
Y400000D02*
D03*
X1125000Y1100000D02*
D03*
Y1000000D02*
D03*
Y900000D02*
D03*
X1100000Y650000D02*
D03*
X1125000Y600000D02*
D03*
X1075000Y1200000D02*
D03*
X1050000Y1150000D02*
D03*
X1075000Y1100000D02*
D03*
X1050000Y1050000D02*
D03*
X1075000Y900000D02*
D03*
X1050000Y650000D02*
D03*
X1075000Y600000D02*
D03*
X1050000Y550000D02*
D03*
Y450000D02*
D03*
X1025000Y1200000D02*
D03*
Y900000D02*
D03*
X1000000Y850000D02*
D03*
Y750000D02*
D03*
X1025000Y700000D02*
D03*
X1000000Y650000D02*
D03*
X1025000Y500000D02*
D03*
X1000000Y450000D02*
D03*
X1025000Y400000D02*
D03*
X1000000Y350000D02*
D03*
X950000Y1150000D02*
D03*
X975000Y1100000D02*
D03*
X950000Y1050000D02*
D03*
X975000Y1000000D02*
D03*
Y800000D02*
D03*
X950000Y650000D02*
D03*
X975000Y600000D02*
D03*
X950000Y550000D02*
D03*
X975000Y500000D02*
D03*
X950000Y450000D02*
D03*
X975000Y400000D02*
D03*
X950000Y350000D02*
D03*
X900000Y1150000D02*
D03*
X925000Y1100000D02*
D03*
X900000Y850000D02*
D03*
X925000Y600000D02*
D03*
X900000Y550000D02*
D03*
X925000Y500000D02*
D03*
X900000Y450000D02*
D03*
X925000Y400000D02*
D03*
X900000Y350000D02*
D03*
X875000Y1100000D02*
D03*
Y1000000D02*
D03*
X850000Y950000D02*
D03*
X875000Y900000D02*
D03*
X850000Y850000D02*
D03*
X875000Y500000D02*
D03*
X850000Y450000D02*
D03*
X875000Y400000D02*
D03*
X850000Y350000D02*
D03*
X800000Y1150000D02*
D03*
X825000Y1100000D02*
D03*
X800000Y1050000D02*
D03*
Y950000D02*
D03*
X825000Y900000D02*
D03*
Y800000D02*
D03*
Y500000D02*
D03*
X800000Y450000D02*
D03*
X825000Y400000D02*
D03*
X800000Y350000D02*
D03*
X775000Y1100000D02*
D03*
X750000Y1050000D02*
D03*
Y950000D02*
D03*
Y850000D02*
D03*
X775000Y800000D02*
D03*
Y700000D02*
D03*
Y500000D02*
D03*
X750000Y450000D02*
D03*
X775000Y400000D02*
D03*
X750000Y350000D02*
D03*
X725000Y1100000D02*
D03*
X700000Y1050000D02*
D03*
X725000Y1000000D02*
D03*
X700000Y950000D02*
D03*
X725000Y900000D02*
D03*
X700000Y850000D02*
D03*
X725000Y500000D02*
D03*
X700000Y450000D02*
D03*
X725000Y400000D02*
D03*
X700000Y350000D02*
D03*
X650000Y1150000D02*
D03*
X675000Y1100000D02*
D03*
X650000Y1050000D02*
D03*
X675000Y1000000D02*
D03*
X650000Y950000D02*
D03*
X675000Y900000D02*
D03*
X650000Y850000D02*
D03*
X675000Y800000D02*
D03*
Y500000D02*
D03*
X650000Y450000D02*
D03*
X675000Y400000D02*
D03*
X650000Y350000D02*
D03*
X625000Y1200000D02*
D03*
Y1100000D02*
D03*
Y1000000D02*
D03*
X600000Y950000D02*
D03*
Y550000D02*
D03*
X625000Y500000D02*
D03*
X600000Y450000D02*
D03*
X625000Y400000D02*
D03*
X600000Y350000D02*
D03*
X575000Y1200000D02*
D03*
X550000Y1150000D02*
D03*
X575000Y900000D02*
D03*
X550000Y650000D02*
D03*
X575000Y600000D02*
D03*
Y500000D02*
D03*
X550000Y450000D02*
D03*
Y350000D02*
D03*
X525000Y1200000D02*
D03*
X500000Y1150000D02*
D03*
X525000Y1100000D02*
D03*
X500000Y650000D02*
D03*
X525000Y600000D02*
D03*
X500000Y550000D02*
D03*
Y450000D02*
D03*
X1088390Y956948D02*
D03*
X1014600Y789940D02*
D03*
X1084450Y549910D02*
D03*
X1084580Y535940D02*
D03*
X971550Y636270D02*
D03*
X880240Y807720D02*
D03*
X892810Y637670D02*
D03*
X802640Y677800D02*
D03*
D97*
X739140Y740410D02*
D03*
X1076480Y518210D02*
D03*
X1015714Y991870D02*
D03*
X955040Y1235710D02*
D03*
X985520D02*
D03*
X646430Y1207770D02*
D03*
X676910Y1244600D02*
D03*
X1061720Y993140D02*
D03*
X957580Y820848D02*
D03*
X895709Y805070D02*
D03*
X1155700Y844160D02*
D03*
X1160960D02*
D03*
X1195070Y791210D02*
D03*
X1207770Y787400D02*
D03*
X1117360Y394970D02*
D03*
X1090930Y279400D02*
D03*
X1075690Y356870D02*
D03*
X892810Y622300D02*
D03*
X953770Y621030D02*
D03*
X971550D02*
D03*
X822960Y676910D02*
D03*
X737870Y706121D02*
D03*
X849630Y792352D02*
D03*
X864870Y807720D02*
D03*
X1042670Y763270D02*
D03*
X1029970Y789940D02*
D03*
X1156970Y1186180D02*
D03*
X1188720Y1130300D02*
D03*
X1205230Y1127760D02*
D03*
X1091120Y995809D02*
D03*
X1184910Y957580D02*
D03*
X1201420Y953770D02*
D03*
X1191260Y623570D02*
D03*
X1207770Y622300D02*
D03*
X1099820Y472440D02*
D03*
X1093470Y513080D02*
D03*
X1088390Y502920D02*
D03*
X1118870Y507999D02*
D03*
X1099820Y534670D02*
D03*
X1065530Y359410D02*
D03*
X863600Y980440D02*
D03*
X726440Y843280D02*
D03*
Y806450D02*
D03*
X816610Y713740D02*
D03*
X885190Y648970D02*
D03*
X1106170Y508610D02*
D03*
X510540Y716280D02*
D03*
X504190D02*
D03*
X510540Y787400D02*
D03*
X504190D02*
D03*
X513080Y853440D02*
D03*
X505460D02*
D03*
Y916940D02*
D03*
X513080D02*
D03*
Y994410D02*
D03*
X505460D02*
D03*
X513080Y1060450D02*
D03*
X504190D02*
D03*
X1093470Y502920D02*
D03*
X1088390Y513080D02*
D03*
X1099950Y549910D02*
D03*
X1109980Y450850D02*
D03*
X1165860Y680720D02*
D03*
X1158240D02*
D03*
X1160780Y1014730D02*
D03*
X1151890D02*
D03*
X1165860Y1186180D02*
D03*
X1250950Y788670D02*
D03*
X1242060Y958850D02*
D03*
X1247140Y1130300D02*
D03*
X1249680Y622300D02*
D03*
X838200Y718820D02*
D03*
X800100Y723900D02*
D03*
X814070Y729020D02*
D03*
X831850Y739099D02*
D03*
X822960Y734099D02*
D03*
X953770Y829310D02*
D03*
X1089660Y969438D02*
D03*
X1088390Y980868D02*
D03*
X1062990Y960548D02*
D03*
X1009650Y961818D02*
D03*
D98*
X334010Y632460D02*
D03*
X468630Y259080D02*
D03*
X1507490Y255270D02*
D03*
X1508760Y1247140D02*
D03*
X336550Y1240790D02*
D03*
D99*
X365106D02*
G03*
X365106Y1240790I-28556J0D01*
G01*
X331084Y1070760D02*
G03*
X331084Y1070760I-11044J0D01*
G01*
Y1035760D02*
G03*
X331084Y1035760I-11044J0D01*
G01*
X331846Y1000760D02*
G03*
X331846Y1000760I-11806J0D01*
G01*
X332354Y826920D02*
G03*
X332354Y826920I-11044J0D01*
G01*
X331084Y965760D02*
G03*
X331084Y965760I-11044J0D01*
G01*
X332354Y861920D02*
G03*
X332354Y861920I-11044J0D01*
G01*
X333116Y756920D02*
G03*
X333116Y756920I-11806J0D01*
G01*
X332354Y791920D02*
G03*
X332354Y791920I-11044J0D01*
G01*
X387429Y588578D02*
G03*
X384810Y589534I-2619J-3108D01*
G01*
X387429Y588578D02*
G03*
X384810Y589534I-2619J-3108D01*
G01*
X362566Y632460D02*
G03*
X362566Y632460I-28556J0D01*
G01*
X284593Y1288937D02*
X390015D01*
X284480Y1132840D02*
X389581D01*
X361455Y1254760D02*
X389581D01*
X364391Y1234440D02*
X389581D01*
X330350Y1066800D02*
X389581D01*
X326384Y1061720D02*
X389581D01*
X329179Y1076960D02*
X389581D01*
X331027Y1071880D02*
X389581D01*
X284480Y1275080D02*
X389581D01*
X284480Y1270000D02*
X389581D01*
X284480Y1285240D02*
X389581D01*
X284480Y1280160D02*
X389581D01*
X284480Y1153160D02*
X389581D01*
X284480Y1148080D02*
X389581D01*
X284480Y1158240D02*
X389581D01*
X330117Y1031240D02*
X389581D01*
X330697Y1005840D02*
X389581D01*
X329535Y1041400D02*
X389581D01*
X331070Y1036320D02*
X389581D01*
X330697Y995680D02*
X389581D01*
X330117Y970280D02*
X389581D01*
X331846Y1000760D02*
X389581D01*
X284480Y1021080D02*
X389581D01*
X284480Y1016000D02*
X389581D01*
X322696Y1046480D02*
X389581D01*
X325499Y1026160D02*
X389581D01*
X326053Y990600D02*
X389581D01*
X325499Y975360D02*
X389581D01*
X326053Y1010920D02*
X389581D01*
X363687Y1249680D02*
X389581D01*
X364851Y1244600D02*
X389581D01*
X351820Y1264920D02*
X389581D01*
X357823Y1259840D02*
X389581D01*
X359850Y1224280D02*
X389581D01*
X355240Y1219200D02*
X389581D01*
X365078Y1239520D02*
X389581D01*
X362719Y1229360D02*
X389581D01*
X346756Y1214120D02*
X389581D01*
X284480Y1198880D02*
X389581D01*
X284480Y1183640D02*
X389581D01*
X284480Y1178560D02*
X389581D01*
X284480Y1193800D02*
X389581D01*
X284480Y1188720D02*
X389581D01*
X284480Y1168400D02*
X389581D01*
X284480Y1163320D02*
X389581D01*
X284480Y1173480D02*
X389581D01*
X330043Y868680D02*
X389581D01*
X332225Y863600D02*
X389581D01*
X331070Y965200D02*
X389581D01*
X329535Y960120D02*
X389581D01*
Y588578D02*
Y1287522D01*
X327323Y746760D02*
X389581D01*
X331387Y787400D02*
X389581D01*
X331967Y751840D02*
X389581D01*
X284480Y924560D02*
X389581D01*
X284480Y919480D02*
X389581D01*
X322696Y955040D02*
X389581D01*
X284480Y939800D02*
X389581D01*
X284480Y909320D02*
X389581D01*
X284480Y685800D02*
X389581D01*
X284480Y914400D02*
X389581D01*
X362453Y629920D02*
X389581D01*
X361530Y624840D02*
X389581D01*
X361530Y640080D02*
X389581D01*
X362453Y635000D02*
X389581D01*
X386224Y589280D02*
X389581D01*
X387429Y588578D02*
X389581D01*
X359586Y619760D02*
X389581D01*
X356355Y650240D02*
X389581D01*
X359586Y645160D02*
X389581D01*
X339909Y660400D02*
X389581D01*
X351123Y655320D02*
X389581D01*
X351123Y609600D02*
X389581D01*
X339909Y604520D02*
X389581D01*
X356355Y614680D02*
X389581D01*
X330449Y833120D02*
X389581D01*
X332297Y828040D02*
X389581D01*
X331818Y858520D02*
X389581D01*
X328385Y853440D02*
X389581D01*
X330805Y797560D02*
X389581D01*
X332340Y792480D02*
X389581D01*
X331620Y822960D02*
X389581D01*
X327654Y817880D02*
X389581D01*
X323964Y802640D02*
X389581D01*
X326770Y782320D02*
X389581D01*
X331967Y762000D02*
X389581D01*
X333116Y756920D02*
X389581D01*
X327323Y767080D02*
X389581D01*
X284480Y1107440D02*
X389581D01*
X284480Y1102360D02*
X389581D01*
X284480Y1117600D02*
X389581D01*
X284480Y1112520D02*
X389581D01*
X284480Y1087120D02*
X389581D01*
X284480Y1082040D02*
X389581D01*
X284480Y1097280D02*
X389581D01*
X284480Y1092200D02*
X389581D01*
X284480Y1203960D02*
X389581D01*
X284480Y1143000D02*
X389581D01*
X284480Y1214120D02*
X326344D01*
X284480Y1209040D02*
X389581D01*
X284480Y1127760D02*
X389581D01*
X284480Y1122680D02*
X389581D01*
X284480Y1137920D02*
X389581D01*
X284480Y899160D02*
X389581D01*
X284480Y894080D02*
X389581D01*
X284480Y929640D02*
X389581D01*
X284480Y904240D02*
X389581D01*
X284480Y883920D02*
X389581D01*
X284480Y878840D02*
X389581D01*
X284480Y889000D02*
X389581D01*
X284480Y985520D02*
X389581D01*
X284480Y980440D02*
X389581D01*
X284480Y1056640D02*
X389581D01*
X284480Y1051560D02*
X389581D01*
X284480Y944880D02*
X389581D01*
X284480Y934720D02*
X389581D01*
X284480Y949960D02*
X389581D01*
X284480Y1224280D02*
X313251D01*
X284480Y1219200D02*
X317860D01*
X284480Y1229360D02*
X310381D01*
X284480Y1076960D02*
X310901D01*
X284480Y1061720D02*
X313696D01*
X284480Y1046480D02*
X317384D01*
X284480Y1071880D02*
X309053D01*
X284480Y1066800D02*
X309730D01*
X284480Y1264920D02*
X321279D01*
X284480Y1259840D02*
X315277D01*
X284480Y1254760D02*
X311644D01*
X284480Y1249680D02*
X309413D01*
X284480Y1244600D02*
X308249D01*
X284480Y1234440D02*
X308709D01*
X284480Y1239520D02*
X308022D01*
X284480Y990600D02*
X314027D01*
X284480Y975360D02*
X314580D01*
X284480Y995680D02*
X309383D01*
X284480Y970280D02*
X309963D01*
X284480Y960120D02*
X310545D01*
X284480Y955040D02*
X317384D01*
X284480Y965200D02*
X309010D01*
X284480Y1041400D02*
X310545D01*
X284480Y1026160D02*
X314580D01*
X284480Y1036320D02*
X309010D01*
X284480Y1031240D02*
X309963D01*
X284480Y1010920D02*
X314027D01*
X284480Y1005840D02*
X309383D01*
X284480Y1000760D02*
X308234D01*
X284480Y741680D02*
X389581D01*
X284480Y736600D02*
X389581D01*
X284480Y777240D02*
X389581D01*
X284480Y772160D02*
X389581D01*
X284480Y721360D02*
X389581D01*
X284480Y716280D02*
X389581D01*
X284480Y731520D02*
X389581D01*
X284480Y726440D02*
X389581D01*
X284480Y843280D02*
X389581D01*
X284480Y838200D02*
X389581D01*
X284480Y873760D02*
X389581D01*
X284480Y848360D02*
X389581D01*
X284480Y812800D02*
X389581D01*
X284480Y807720D02*
X389581D01*
X284480Y802640D02*
X318656D01*
X284480Y670560D02*
X389581D01*
X284480Y665480D02*
X389581D01*
X284480Y660400D02*
X328111D01*
X284480Y604520D02*
X328111D01*
X284480Y599440D02*
X389581D01*
X284480Y594360D02*
X389581D01*
X284480Y589534D02*
X384810D01*
X284480Y701040D02*
X389581D01*
X284480Y695960D02*
X389581D01*
X284480Y711200D02*
X389581D01*
X284480Y706120D02*
X389581D01*
X284480Y680720D02*
X389581D01*
X284480Y675640D02*
X389581D01*
X284480Y690880D02*
X389581D01*
X284480Y817880D02*
X314966D01*
X284480Y797560D02*
X311815D01*
X284480Y822960D02*
X311000D01*
X284480Y792480D02*
X310280D01*
X284480Y782320D02*
X315850D01*
X284480Y767080D02*
X315297D01*
X284480Y787400D02*
X311233D01*
X284480Y868680D02*
X312577D01*
X284480Y853440D02*
X314235D01*
X284480Y863600D02*
X310394D01*
X284480Y858520D02*
X310802D01*
X284480Y833120D02*
X312171D01*
X284480Y828040D02*
X310323D01*
X284480Y589534D02*
Y1289050D01*
Y640080D02*
X306490D01*
X284480Y624840D02*
X306490D01*
X284480Y635000D02*
X305567D01*
X284480Y629920D02*
X305567D01*
X284480Y614680D02*
X311665D01*
X284480Y609600D02*
X316897D01*
X284480Y619760D02*
X308433D01*
X284480Y751840D02*
X310653D01*
X284480Y746760D02*
X315297D01*
X284480Y762000D02*
X310653D01*
X284480Y756920D02*
X309504D01*
X284480Y655320D02*
X316897D01*
X284480Y650240D02*
X311665D01*
X284480Y645160D02*
X308433D01*
D100*
X703580Y696360D02*
D03*
Y746360D02*
D03*
M02*
